<svg data-name="Layer 1" xmlns="http://www.w3.org/2000/svg" viewBox="0 0 700 550"><path d="M273.44 248.758a94.376 94.376 0 00-9.168-10.847 34.382 34.382 0 00-5.36-4.509 11.871 11.871 0 00-3.032-1.466c-.262-.07-.525-.122-.785-.17l-.82-.069a10.258 10.258 0 01-1.887-.244 7.336 7.336 0 01-3.492-1.728 7.922 7.922 0 01-2.079-3.316 16.395 16.395 0 01-.326-7.434c.742-4.869 2.699-9.301 3.728-13.817a20.182 20.182 0 00.511-6.784 31.247 31.247 0 00-1.502-6.746c-.36-1.094-.776-2.234-1.126-3.396a53.582 53.582 0 01-.932-3.498 56.514 56.514 0 01-1.17-7.124 39.351 39.351 0 01-.088-7.23 18.754 18.754 0 01.655-3.6 9.054 9.054 0 01.715-1.73 4.58 4.58 0 011.231-1.501 3.14 3.14 0 011.892-.653l.5.027.459.095a5.734 5.734 0 01.907.225 8.132 8.132 0 013.175 1.895 13.787 13.787 0 013.622 6.267l-.607.024a16.851 16.851 0 013.63-7.02 19.783 19.783 0 012.823-2.781l.774-.62.812-.568 1.578-1.118a26.398 26.398 0 008.438-12.525 17.351 17.351 0 00.474-1.815 5.958 5.958 0 00.103-.853 4.464 4.464 0 01.216-1.134 30.858 30.858 0 011.482-3.716 54.635 54.635 0 013.826-6.922 28.861 28.861 0 015.161-6.155 8.54 8.54 0 013.82-2.016 4.542 4.542 0 012.385.137 3.96 3.96 0 012.029 1.448 7.513 7.513 0 011.134 4.282 24.974 24.974 0 01-.348 4.052 73.779 73.779 0 01-1.764 7.716c-1.38 5.053-3.017 9.998-4.363 14.975a49.487 49.487 0 00-1.517 7.458c-.215 2.532-.33 5.142-.396 7.718-.066 2.584-.056 5.172-.03 7.76.027 2.61.143 5.133.215 7.825a.894.894 0 01-.766.908l-.041.006a2.175 2.175 0 00-.908.361.973.973 0 00-.41.637 13.07 13.07 0 00.53 2.501 182.03 182.03 0 001.633 5.616c1.15 3.735 2.304 7.474 3.537 11.187a343 343 0 003.889 11.069 118.49 118.49 0 002.168 5.445c.41.883.769 1.798 1.232 2.652.226.43.433.875.676 1.294l.794 1.216.011.017a.102.102 0 01-.167.116l-.885-1.195c-.272-.413-.504-.846-.758-1.27-.526-.839-.917-1.74-1.376-2.612a119.108 119.108 0 01-2.433-5.368c-1.55-3.609-2.942-7.28-4.314-10.957-1.348-3.686-2.682-7.378-3.897-11.113a183.544 183.544 0 01-1.766-5.634c-.146-.468-.27-.96-.401-1.444a6.492 6.492 0 01-.184-.81l-.074-.465a3.873 3.873 0 01.023-.508 2.795 2.795 0 011.07-1.812 3.904 3.904 0 011.78-.751l-.806.914c-.122-2.508-.296-5.182-.378-7.776a156.739 156.739 0 01-.071-7.85c.044-2.628.13-5.22.33-7.876a47.398 47.398 0 011.57-7.827c1.362-5.074 3.036-10.004 4.47-14.972a71.906 71.906 0 001.804-7.475 23.111 23.111 0 00.367-3.711 5.771 5.771 0 00-.721-3.174 2.032 2.032 0 00-1.08-.783 2.666 2.666 0 00-1.459-.094 6.965 6.965 0 00-3.016 1.568 27.283 27.283 0 00-4.942 5.678 59.547 59.547 0 00-3.885 6.638 29.752 29.752 0 00-1.52 3.484 3.41 3.41 0 00-.187.768 7.008 7.008 0 01-.16 1.08 18.51 18.51 0 01-.57 1.942 27.492 27.492 0 01-9.113 12.76l-1.618 1.123-.793.542-.754.593a19.076 19.076 0 00-2.755 2.66 16.137 16.137 0 00-3.546 6.676v.006a.314.314 0 01-.607.019 13.152 13.152 0 00-3.505-5.892 7.392 7.392 0 00-2.918-1.693 5.031 5.031 0 00-.823-.192l-.415-.082-.39-.014a2.331 2.331 0 00-1.406.506 3.484 3.484 0 00-.974 1.263 8.186 8.186 0 00-.59 1.58 17.811 17.811 0 00-.503 3.427 38.262 38.262 0 00.322 7.009 55.125 55.125 0 001.364 6.905 52.027 52.027 0 001.014 3.363c.37 1.105.812 2.183 1.21 3.343a31.586 31.586 0 011.695 7.121 21.95 21.95 0 01-.527 7.375c-1.158 4.738-3.14 9.096-3.882 13.654a21.73 21.73 0 00-.296 3.411 12.15 12.15 0 00.475 3.283 6.544 6.544 0 001.615 2.688 5.874 5.874 0 002.782 1.47 8.884 8.884 0 001.638.263l.953.112c.32.067.641.142.95.237a13.061 13.061 0 013.318 1.722 34.643 34.643 0 015.389 4.831 84.72 84.72 0 018.65 11.398.103.103 0 01-.032.142.106.106 0 01-.14-.028z"/><path d="M259.23 171.258q3.898 8.397 7.891 16.753 2.002 4.175 4.053 8.326c.688 1.381 1.382 2.76 2.095 4.128.358.683.718 1.366 1.096 2.038a9.05 9.05 0 001.27 1.921 9.066 9.066 0 01-1.326-1.889 79.787 79.787 0 01-1.153-2.01 245.906 245.906 0 01-2.21-4.07q-2.176-4.09-4.285-8.215-4.232-8.242-8.357-16.538a.514.514 0 01.92-.458z"/><path d="M285.916 189.669c0 1.84 10.798 35.574 15.282 40.844a92.843 92.843 0 00-14.64-12.762 5.008 5.008 0 012.52.642s1.58 1.312 1.58-2.108c0-3.43-13.71-11.334-15.023-11.861-1.322-.527-5.145-9.15-5.145-9.15a49.12 49.12 0 0116.058-7.052zM274.562 317.405c-.46.9-.872 1.82-1.303 2.72 0 0-2.108-53.5.269-71.427l2.366-.527c1.945 2.874 3.976 5.682 5.96 8.527q3.018 4.226 6.084 8.413 5.906 8.062 11.976 15.99c-2.366 2.913-4.647 5.874-6.927 8.844q-3.65 4.786-7.138 9.686-3.492 4.887-6.736 9.974c-1.082 1.696-2.098 3.43-3.104 5.165z"/><path d="M334.675 312.748s-1.39 4.398-2.99 11.172v.01c0 .009-.01.018-.01.028-2.117 5.183-3.966 10.453-5.71 15.77-1.753 5.318-3.315 10.703-4.771 16.116-1.409 5.433-2.74 10.884-3.631 16.451a209.747 209.747 0 00-.575 4.197l-.154 2.127-.067 1.054.02 1.082.047 1.073.02.537a3.276 3.276 0 00.134.584 2.79 2.79 0 003.593 2.022 7.703 7.703 0 001.964-.805 7.932 7.932 0 01-2.012.498 2.63 2.63 0 01-1.85-.373 2.428 2.428 0 01-.929-1.543 3.977 3.977 0 01-.057-.44l.038-.518.067-1.016.058-1.025.153-1.025.306-2.04.815-4.092c.326-1.35.632-2.711.93-4.062l1.005-4.063c.69-2.702 1.36-5.404 2.108-8.096l4.321-16.192c1.36-5.068 2.702-10.156 3.948-15.272-3.689 15.933-8.24 43.728.057 59.786 0 0-3.162 64.567-9.485 66.944 0 0-38.478 5.796-52.447-5.538-5.529-4.484-10.894-12.81-14.851-23.196a90.575 90.575 0 012.75-70.134c4.599-9.955 10.778-23.053 15.79-32.643a118.793 118.793 0 016.735-9.926q3.535-4.83 7.205-9.582c2.424-3.161 4.886-6.323 7.349-9.466l6.84-8.642 2.185 1.638-1.399-3.276a.814.814 0 00-.105-.25l-.058-.134a1.109 1.109 0 00-.344-.44.035.035 0 01-.03-.01q-6.165-7.976-12.483-15.857a651.452 651.452 0 00-6.564-8.057c-2.232-2.654-4.416-5.337-6.697-7.953-2.366-3.947-1.178-12.388-1.178-12.388 3.602-15.436 8.776-18.022 11.832-18.032a91.066 91.066 0 0014.65 12.762c4.484 5.27 34.262 33.208 39.005 47.973 0 0 4.216 10.798-5.528 34.262z"/><path d="M343.426 386.236a12.503 12.503 0 01-3.075.415 20.41 20.41 0 01-3.018-.166 20.048 20.048 0 01-2.962-.605 12.346 12.346 0 01-2.868-1.185 12.729 12.729 0 013.093-.415 19.87 19.87 0 013 .166 20.23 20.23 0 012.944.605 12.891 12.891 0 012.886 1.185zM375.417 388.092l7.64-.217c2.543-.083 5.091-.216 7.619-.347l-.391.152a23.818 23.818 0 013.935-2.81 21.818 21.818 0 012.187-1.085 20.846 20.846 0 012.33-.77 19.576 19.576 0 019.743-.03 30.638 30.638 0 018.886 3.866 41.069 41.069 0 017.52 6.084l-.986-.368 3.166-.376c1.055-.106 2.079-.288 3.3-.302a11.763 11.763 0 016.633 2.01 11.547 11.547 0 012.578 2.351c.706.905 1.278 1.73 1.923 2.6l3.766 5.152a.853.853 0 01-.182 1.193.88.88 0 01-.315.144 5.778 5.778 0 00-2.532 1.25 7.768 7.768 0 00-1.717 2.435 12.865 12.865 0 00-.95 2.988 17.76 17.76 0 00-.354 3.155l-.001.065a.381.381 0 01-.046.174 4.018 4.018 0 01-1.042 1.168c-.36.298-.724.575-1.093.841a15.691 15.691 0 01-2.349 1.471 6.119 6.119 0 01-2.813.514l-1.327-.06a4.432 4.432 0 00-1.235.053 3.32 3.32 0 00-1.96 1.264 3.782 3.782 0 00-.704 2.296 9.418 9.418 0 001.187 4.93 21.164 21.164 0 007.442 7.215 48.027 48.027 0 009.542 4.466.697.697 0 01.434.885.785.785 0 01-.045.103c-.63 1.19-1.31 2.297-2.004 3.405q-1.043 1.657-2.117 3.284a252.024 252.024 0 01-4.381 6.455.968.968 0 01-.722.408l-.031.003q-14.948 1.019-29.917 1.658c-4.995.212-9.98.423-15.021.405-.626.007-1.268-.013-1.91-.033l-.962-.029-1.067-.105-.522-.06-.423-.07a12.06 12.06 0 00-.87-.123 57.31 57.31 0 00-1.812-.196c-2.444-.235-4.925-.386-7.402-.513-2.478-.13-4.96-.197-7.44-.268-2.474-.06-4.967-.102-7.39.007a18.57 18.57 0 00-1.732.145c-.263.026-1.297.331-1.874.365-1.32.164-2.574.22-3.842.261-2.526.072-5.037.06-7.548-.031q-3.765-.148-7.52-.518a58.894 58.894 0 01-7.485-1.159 18.004 18.004 0 00-7.206-.775 8.955 8.955 0 00-1.749.434c-.589.187-1.084.49-1.79.672a.844.844 0 01-.301.021.651.651 0 01-.34-.1c-.1-.024-.27-.278-.225-.398a.685.685 0 01.108-.337 3.33 3.33 0 01.693-.729 15.046 15.046 0 011.539-1.105.129.129 0 01.177.039.132.132 0 01-.033.174 14.744 14.744 0 00-1.415 1.188 3.002 3.002 0 00-.549.662c-.014.043-.047.112-.03.103-.01.01-.003.005-.003-.018-.013-.016-.026-.013 0-.013a.201.201 0 00.107.01.388.388 0 00.16-.025c.496-.156 1.078-.522 1.664-.754a9.67 9.67 0 011.846-.582 18.41 18.41 0 017.609.347 57.66 57.66 0 007.344.797q3.71.2 7.433.175c2.478-.007 4.96-.043 7.418-.188 1.225-.072 2.463-.167 3.616-.343.67-.09.825-.187 1.786-.403a20.015 20.015 0 011.99-.23c5.093-.324 10.074-.243 15.097-.066 2.508.096 5.012.216 7.537.426q.945.072 1.91.195c.314.032.646.084.982.142l.5.084c.158.023.271.026.408.041l.795.079.909.027c.605.02 1.21.042 1.831.036 4.94 0 9.932-.126 14.91-.255 9.963-.285 19.935-.693 29.902-1.056l-.753.41 4.587-6.255q1.131-1.573 2.23-3.165c.726-1.06 1.45-2.134 2.073-3.215l.39.988a49.139 49.139 0 01-9.643-4.936c-2.975-2.01-5.872-4.392-7.635-7.669a10.314 10.314 0 01-1.22-5.361 4.579 4.579 0 01.835-2.733 4.13 4.13 0 012.426-1.592 5.166 5.166 0 011.427-.085l1.348.037a5.222 5.222 0 002.39-.503 15.113 15.113 0 002.138-1.43 14.26 14.26 0 001-.823 3.39 3.39 0 00.72-.827l-.048.24a18.814 18.814 0 01.227-3.408 14.18 14.18 0 01.9-3.327 9.218 9.218 0 011.94-3 7.37 7.37 0 013.242-1.777l-.497 1.337-3.979-4.98c-.657-.811-1.34-1.703-1.975-2.447a9.784 9.784 0 00-2.164-1.875 9.99 9.99 0 00-5.422-1.546c-.906.007-1.986.186-3.044.302l-3.166.374a1.149 1.149 0 01-.966-.347l-.02-.021a39.03 39.03 0 00-7-5.78 29.708 29.708 0 00-8.196-3.78 18.666 18.666 0 00-8.855-.285 19.469 19.469 0 00-8.018 4.018l-.03.024a.593.593 0 01-.362.129c-2.565.035-5.113-.046-7.665-.113-2.551-.073-5.1-.183-7.646-.348a.129.129 0 01.004-.257z"/><path d="M363.42 429.153a3.334 3.334 0 00-1.399 1.432 2.857 2.857 0 00-.211 1.826 6.052 6.052 0 00.668 1.79 12.928 12.928 0 001.126 1.606 43.612 43.612 0 005.978 5.616c2.139 1.749 4.398 3.362 6.703 4.919 2.317 1.545 4.701 2.994 7.165 4.422a33.252 33.252 0 01-7.982-3.042 44.147 44.147 0 01-7.177-4.7 29.793 29.793 0 01-5.977-6.271 11.476 11.476 0 01-1.06-2.002 6.943 6.943 0 01-.446-2.265 3.496 3.496 0 01.738-2.209 3.233 3.233 0 011.874-1.122zM388.984 406.487a3.258 3.258 0 012.295-1.335 4.863 4.863 0 012.722.608 13.571 13.571 0 014.028 3.637c2.15 2.71 4.288 5.448 6.306 8.304a60.06 60.06 0 015.356 9.066 27.508 27.508 0 011.766 5.016 12.743 12.743 0 01.193 5.276c-.2-3.507-1.758-6.587-3.388-9.564-.871-1.468-1.734-2.94-2.703-4.357a115.453 115.453 0 00-2.907-4.258c-1.954-2.837-4.019-5.625-5.921-8.55a14.504 14.504 0 00-3.252-3.712 4.295 4.295 0 00-2.184-.9 3.215 3.215 0 00-2.31.77zM394.519 453.118a45.504 45.504 0 004.608-1.283 25.83 25.83 0 004.168-1.882c.677-.341 1.278-.798 1.919-1.203.59-.47 1.22-.901 1.78-1.43a42.648 42.648 0 003.338-3.408 11.327 11.327 0 01-2.165 4.503 12.188 12.188 0 01-3.862 3.328 13.652 13.652 0 01-4.803 1.646 11.563 11.563 0 01-4.983-.27z"/><path d="M365.001 432.579c2.025-2.16 4.158-4.174 6.328-6.144 2.16-1.98 4.382-3.882 6.606-5.78 2.247-1.87 4.49-3.741 6.783-5.554l6.902-5.451a48.827 48.827 0 01-5.836 6.65c-2.093 2.071-4.292 4.021-6.525 5.926-2.26 1.874-4.545 3.714-6.918 5.446a84 84 0 01-7.34 4.907zM391.496 388.817a6.84 6.84 0 00-.984 1.152 8.578 8.578 0 00-.797 1.403 8.081 8.081 0 00-.73 3.255 8.607 8.607 0 01-.261-3.527 9.855 9.855 0 01.398-1.799 8.625 8.625 0 01.776-1.777l.012-.02a1.043 1.043 0 011.798 1.057 1.07 1.07 0 01-.212.256z"/><path d="M389.713 411.56c-3.054-4.608-6.026-9.268-9.043-13.9l-8.91-13.982a.706.706 0 01.086-.867l.012-.012c5.6-5.846 11.358-11.521 17.21-17.117 2.932-2.792 5.9-5.55 8.978-8.196 1.541-1.322 3.09-2.638 4.706-3.885a40.184 40.184 0 015.123-3.495l.724-.365.808-.304a5.699 5.699 0 01.96-.167l.82.014a9.384 9.384 0 013.196.74 8.867 8.867 0 002.607.934 4.437 4.437 0 002.478-.756c.42-.212.814-.518 1.223-.771l1.184-.886a50.849 50.849 0 012.48-1.815c1.69-1.152 3.446-2.191 5.227-3.167 1.78-.979 3.598-1.876 5.372-2.817a15.428 15.428 0 002.473-1.57 1.078 1.078 0 00.219-.226 1.277 1.277 0 00.192-.264c.128-.213.254-.427.37-.643a5.325 5.325 0 00.544-1.292.771.771 0 00-.004-.49.452.452 0 00-.36-.19 6.178 6.178 0 00-1.407.049c-.988.109-1.978.276-2.957.479a27.986 27.986 0 00-2.896.752 7.287 7.287 0 00-2.566 1.273l-.01.009a.313.313 0 01-.498-.353q1.758-4.177 3.373-8.417a69.975 69.975 0 002.797-8.572 9.023 9.023 0 00.166-1.068 2.512 2.512 0 00.002-.481c-.01-.067-.026-.096-.034-.149a.57.57 0 00-.086-.127c-.157-.27-.944.01-1.49.405a16.295 16.295 0 00-3.128 3.072 47.999 47.999 0 00-4.89 7.508.619.619 0 01-.564.325l-.02-.001a86.931 86.931 0 00-4.853-.027 24.849 24.849 0 00-4.691.44 14.906 14.906 0 01-2.42.834 5.515 5.515 0 01-1.405-.142 5.574 5.574 0 00-.528-.053 4.465 4.465 0 00-.496.018 9.887 9.887 0 00-4.16 1.5 3.713 3.713 0 00-.392.31l-.436.425a11.898 11.898 0 01-1.042.824c-.691.494-1.386.942-2.082 1.383-1.372.878-2.83 1.722-4.068 2.588l-.19.15a5.67 5.67 0 01-.405.264l-.565.304-1.098.564-2.182 1.11-4.34 2.236c-5.767 3.016-11.45 6.181-16.976 9.588a141.204 141.204 0 00-15.889 11.126 55.15 55.15 0 00-6.9 6.658c-.49.618-1.031 1.208-1.464 1.861l-.683.96c-.218.324-.405.664-.61.995a14.571 14.571 0 00-1.779 4.21 22.548 22.548 0 00.15 9.32 55.384 55.384 0 002.752 9.223 124.47 124.47 0 008.56 17.46q4.896 8.442 10.573 16.43a.103.103 0 01-.022.143.105.105 0 01-.141-.018c-2.042-2.552-3.979-5.183-5.857-7.858-1.878-2.675-3.71-5.386-5.428-8.171a120.725 120.725 0 01-9.158-17.402 57.024 57.024 0 01-3.01-9.457 24.332 24.332 0 01-.318-10.1 16.56 16.56 0 011.916-4.803c.217-.366.417-.747.65-1.1l.727-1.04c.466-.712 1.025-1.335 1.544-1.997a57.22 57.22 0 017.105-6.98c10.205-8.425 21.733-14.82 33.353-20.8l4.383-2.2 2.191-1.087 1.085-.543.514-.27a.826.826 0 01.115-.06l.292-.226c1.445-.992 2.836-1.75 4.226-2.605.69-.42 1.374-.845 2.018-1.289a10.411 10.411 0 00.89-.674l.448-.42a5.42 5.42 0 01.574-.44 10.15 10.15 0 012.409-1.145 11.351 11.351 0 012.583-.561 5.932 5.932 0 01.727-.01c.23.017.462.041.687.08a4.76 4.76 0 001.016.15 3.068 3.068 0 00.917-.278c.188-.075.302-.151.559-.248a3.673 3.673 0 01.711-.221 25.726 25.726 0 015.046-.35c1.65.004 3.285.065 4.932.162l-.584.323a50.625 50.625 0 015.207-7.556 17.134 17.134 0 013.414-3.181 4.439 4.439 0 011.143-.542 1.848 1.848 0 01.736-.07 1.171 1.171 0 01.76.406 1.32 1.32 0 01.316.75 3.296 3.296 0 01-.014.651 9.805 9.805 0 01-.208 1.17 78.357 78.357 0 01-2.93 8.648q-1.65 4.24-3.457 8.411l-.507-.344a8.221 8.221 0 012.804-1.44 28.631 28.631 0 012.957-.806 32.71 32.71 0 013.018-.525 6.536 6.536 0 011.612-.061 1.17 1.17 0 01.889.563 1.448 1.448 0 01.085.99 5.964 5.964 0 01-.602 1.502c-.121.23-.249.454-.378.676a2.82 2.82 0 01-.546.671 15.83 15.83 0 01-2.609 1.711c-1.767 1.002-3.545 1.949-5.277 2.97-1.732 1.015-3.426 2.089-5.041 3.26a49.828 49.828 0 00-2.357 1.835l-1.216.965c-.439.292-.84.62-1.314.881a5.767 5.767 0 01-3.22 1.024 5.252 5.252 0 01-1.71-.382c-.5-.196-.96-.408-1.401-.574a7.78 7.78 0 00-2.69-.544l-.695.007a5.1 5.1 0 00-.525.114l-.602.247-.62.333a38.778 38.778 0 00-4.823 3.41q-2.334 1.883-4.613 3.864-4.538 3.972-8.967 8.098c-5.908 5.487-11.665 11.154-17.395 16.831l.097-.879 8.52 14.223c2.793 4.77 5.63 9.513 8.386 14.306a.103.103 0 01-.175.108z"/><path d="M432.493 392.71a46.37 46.37 0 01-3.267-7.942 44.007 44.007 0 01-1.771-8.474 30.488 30.488 0 01.285-8.759c.55-2.827 1.147-5.569 1.649-8.372a292.726 292.726 0 001.499-8.377c.138-.719.19-1.337.41-2.198a6.597 6.597 0 011.107-2.209 6.524 6.524 0 011.836-1.63c.762-.422 1.369-.622 2.025-.93 1.296-.568 2.576-1.173 3.858-1.777l1.915-.923.951-.476.468-.239a1.133 1.133 0 00.262-.196 1.22 1.22 0 00-.109-1.437 1.75 1.75 0 00-1.507-.834 8.096 8.096 0 00-4.011 1.081 7.807 7.807 0 013.977-1.65 2.287 2.287 0 011.208.169 2.728 2.728 0 01.97.755 2.59 2.59 0 01.551 1.142 1.793 1.793 0 01-.274 1.383 1.978 1.978 0 01-.539.5l-.463.285-.92.554-1.857 1.082a97.11 97.11 0 01-3.79 2.03c-.619.329-1.346.646-1.81.95a4.89 4.89 0 00-1.297 1.237 4.758 4.758 0 00-.74 1.615c-.122.524-.194 1.33-.297 2.013a225.63 225.63 0 01-1.405 8.463c-.54 2.798-1.162 5.622-1.764 8.372a31.8 31.8 0 00-.595 8.253 61.737 61.737 0 003.445 16.54z"/><path d="M456.892 339.18h-12.67a.514.514 0 010-1.027h12.02l-1.337-5.619h-23.94a.514.514 0 010-1.027h24.346a.513.513 0 01.5.395l1.581 6.646a.513.513 0 01-.5.632z"/><path d="M442.837 332.02a2.728 2.728 0 00-.574-1.371 3.022 3.022 0 00-1.017-.738 9.51 9.51 0 00-2.677-.632c-.484-.067-.973-.131-1.482-.163-.252-.029-.504-.05-.758-.09a21.895 21.895 0 01-.774-.064 21.567 21.567 0 01-3.21-.533 10.4 10.4 0 013.147-1.082 8.685 8.685 0 011.657-.18c.28-.009.559-.019.842-.01l.855.085a6.194 6.194 0 013.325 1.35 3.348 3.348 0 011.018 1.67 2.236 2.236 0 01-.352 1.758zM420.482 350.375c-.932 2.999-2.015 5.92-3.135 8.82-1.106 2.906-2.294 5.772-3.425 8.649a104.84 104.84 0 00-1.665 4.3 24.966 24.966 0 00-.702 2.124 7.603 7.603 0 00-.183.95c-.012.359-.016.722.003 1.096.174 2.999.746 6.085 1.2 9.18a35.907 35.907 0 01-2.797-9.031c-.063-.4-.102-.814-.13-1.234a8.035 8.035 0 01.15-1.354c.167-.817.384-1.59.613-2.35.483-1.514 1.038-2.982 1.603-4.443a115.46 115.46 0 013.871-8.534 87.257 87.257 0 014.597-8.173zM428.297 370.279a5.978 5.978 0 01-1.389 2.176 6.562 6.562 0 01-2.183 1.492 6.965 6.965 0 01-1.298.369 5.565 5.565 0 01-1.343.021 5.159 5.159 0 01-2.44-.882 13.133 13.133 0 002.45.08 6.875 6.875 0 002.243-.539 13.625 13.625 0 003.96-2.717zM373.037 384.084c-.849.496-1.703.983-2.569 1.45a23.395 23.395 0 01-2.656 1.275 22.984 22.984 0 002.018-2.081 84.828 84.828 0 001.875-2.21 1.044 1.044 0 111.613 1.327 1.072 1.072 0 01-.28.239zM439.163 419.053c1.323 1.58 2.5 3.186 3.804 4.68a26.044 26.044 0 002.023 2.153 14.295 14.295 0 002.371 1.817 6.603 6.603 0 01-2.873-1.192 12.184 12.184 0 01-2.3-2.108 16.347 16.347 0 01-1.778-2.53 13.058 13.058 0 01-1.247-2.82z"/><path d="M444.594 440.736a.514.514 0 01-.514-.495c-.005-.163-.044-4.013 8.972-5.924a.518.518 0 01.609.391 4.378 4.378 0 002.955 2.918c.425.142.869.339 1.297.53 1.187.528 2.412 1.07 3.364.534 1.148-.644 1.97-2.81 2.44-6.44 2.213-16.993 13.719-23.03 16.573-24.278-3.508-4.332-12.164-4.524-15.819-4.404l-.243.007c-.564 0-.98-.508-1.67-1.351a17.607 17.607 0 00-2.478-2.587c-.39-.321-.588-.245-.655-.218-.738.288-1.344 2.421-1.54 3.843a.511.511 0 01-.544.444 33.5 33.5 0 00-12.57 1.287.514.514 0 01-.355-.964 33.615 33.615 0 0112.525-1.378c.203-1.16.789-3.673 2.11-4.19a1.612 1.612 0 011.682.382 18.566 18.566 0 012.622 2.73 5.084 5.084 0 00.913.98l.168-.012c3.967-.133 13.58.115 17.088 5.374a.515.515 0 01-.262.772c-.14.048-14.094 5.02-16.524 23.695-.532 4.08-1.471 6.37-2.958 7.205-1.405.788-2.936.108-4.284-.492a13.56 13.56 0 00-1.205-.494 5.503 5.503 0 01-3.474-3.18c-7.605 1.726-7.71 4.751-7.71 4.782a.514.514 0 01-.494.533z"/><path d="M444.594 440.222s-.132-3.558 8.565-5.403a4.911 4.911 0 003.294 3.294c2.768.923 6.45 4.386 7.775-5.798 2.504-19.239 16.868-24.115 16.868-24.115 14.363 3.558 20.293 13.573 24.114 17.658s16.472 9.488 29.914 15.682 13.309 11.594 13.309 11.594l-112.537-.017s6.853-9.469 8.698-12.895zM452.228 403.17a5.65 5.65 0 01.567 2.544 5.215 5.215 0 01-.567 2.55 6.876 6.876 0 01-.46-2.544 6.377 6.377 0 01.46-2.55zM464.755 410.533a1.543 1.543 0 000-3.084 1.543 1.543 0 000 3.084zM467.39 405.43a2.24 2.24 0 011.481 1.03 3.373 3.373 0 01.537 1.666 3.543 3.543 0 01-.323 1.668 2.972 2.972 0 01-1.167 1.305 7.127 7.127 0 01-.427-1.573 10.644 10.644 0 01-.136-1.295c-.024-.41-.017-.81-.008-1.249.014-.446.042-.907.044-1.552zM166.295 137.384a61.218 61.218 0 01-.067-4.398c.029-.814.039-1.628.106-2.443l.115-1.772c1.695.134 3.391.268 5.087.325l5.672.173c1.897.067 3.785.077 5.682.038 1.58-.028 3.162-.096 4.743-.163.086 1.17.191 2.357.316 3.584l.258 2.433c-.01.518-.028 1.035-.047 1.553l-5.27.153a77.817 77.817 0 00-3.354.201c-.91-.057-1.81-.096-2.701-.125a51.792 51.792 0 00-5.462.039c-1.667.096-3.363.287-5.078.402zM182.89 138.87l5.672.172c1.887.057 3.784.067 5.672.029 1.58-.03 3.162-.087 4.752-.163.077 1.178.182 2.357.307 3.593l.536 5.058c-2.108-.23-4.081-.392-6.007-.536-1.926-.134-3.804-.259-5.643-.307a51.846 51.846 0 00-5.462.029c-1.667.105-3.353.297-5.078.412a67.595 67.595 0 01-.067-4.407c.029-.815.048-1.63.106-2.444l.105-1.523c.69-.02 1.38-.057 2.06-.086 1.016.067 2.031.134 3.047.172zM188.964 136.685c-.01-.383-.038-.767-.038-1.15.086-.747.163-1.514.25-2.3.143-1.437.258-2.931.344-4.436 1.571.125 3.143.24 4.714.297l5.672.173c1.897.067 3.785.077 5.682.038 1.58-.028 3.161-.096 4.742-.163.086 1.17.182 2.357.316 3.584l.527 5.059c-2.098-.22-4.072-.384-6.007-.537-1.62-.115-3.2-.201-4.762-.268a1.043 1.043 0 00-.393-.115h-.105a160.189 160.189 0 00-5.672-.201 107.24 107.24 0 00-5.27.019z"/><path d="M201.41 257.36c-.124-1.227-.23-2.415-.306-3.584-1.59.077-3.172.134-4.753.163-1.887.038-3.784.029-5.672-.038l-5.672-.173c-1.696-.057-3.4-.191-5.097-.326l-.115 1.773c-.057.814-.076 1.629-.105 2.443-.02 1.466-.01 2.932.067 4.398 1.724-.115 3.41-.297 5.078-.403a51.842 51.842 0 015.461-.038c.891.029 1.792.067 2.702.125a78.69 78.69 0 013.353-.202l5.27-.153c.02-.517.038-1.035.048-1.552zm11.354 9.772c-.134-1.236-.23-2.414-.316-3.593-1.581.077-3.162.134-4.743.163-1.897.039-3.784.039-5.682-.029l-5.672-.172a105.622 105.622 0 01-3.037-.172c-.69.028-1.37.067-2.07.086l-.095 1.523c-.067.815-.077 1.629-.106 2.443a61.363 61.363 0 00.068 4.408c1.715-.115 3.4-.307 5.068-.412a51.86 51.86 0 015.461-.03c1.84.049 3.718.173 5.644.308 1.935.143 3.909.306 6.007.536zm11.344-9.773c-.125-1.226-.23-2.414-.316-3.583-1.581.077-3.162.134-4.743.163-1.887.038-3.784.029-5.672-.038l-5.672-.173c-1.58-.048-3.152-.172-4.723-.297a105.491 105.491 0 01-.345 4.436 129.89 129.89 0 01-.25 2.3c.01.383.03.766.039 1.15 1.763-.048 3.516-.058 5.28-.02 1.887.03 3.774.106 5.671.202h.096a1.043 1.043 0 01.393.115c1.561.067 3.142.153 4.762.268 1.82.143 3.688.297 5.652.498.048-.862.077-1.725.087-2.596zm11.593-7.07a23.6 23.6 0 00-.297-2.444c-.134-.814-.278-1.628-.335-2.443-.038-.46-.058-.93-.086-1.39-1.533.068-3.057.125-4.59.154q-2.831.058-5.672-.029l-5.672-.182c-1.696-.057-3.392-.191-5.087-.325l-.125 1.772c-.057.815-.077 1.629-.096 2.443a59.797 59.797 0 00.039 3.708c1.753-.057 3.516-.057 5.27-.028 1.887.038 3.784.105 5.671.2l.106.01a.934.934 0 01.392.115c.575.02 1.15.039 1.735.077a76.75 76.75 0 012.96-.192l5.203-.172c.201-.01.402-.01.603-.01.01-.421 0-.843-.019-1.264zm9.16 7.06a127.73 127.73 0 01-.316-3.544c-1.409.067-2.827.115-4.235.144-1.734.019-3.469.01-5.193-.048l-5.203-.182a62.884 62.884 0 01-2.663-.154c-.527.02-1.054.048-1.581.067a96.1 96.1 0 01-.336 4.235 129.89 129.89 0 01-.249 2.3c.01.613.039 1.236.067 1.849 1.562-.115 3.085-.307 4.6-.402a43.13 43.13 0 014.981-.039c1.677.058 3.392.173 5.155.307 1.773.153 3.583.316 5.538.536zm-3.65-13.336a30.252 30.252 0 01-4.063.163c-.02.412-.048.824-.077 1.226-.057.815-.2 1.629-.335 2.443-.038.23-.067.47-.105.7a93.589 93.589 0 01-.192 1.791c-.02.403-.029.796-.02 1.198 1.304-.029 2.597-.038 3.89-.02 1.735.04 3.46.087 5.194.183l.105.01a.974.974 0 01.738.402v-9.035a27.745 27.745 0 01-5.136.939zm-66.935 110.49c-.124-1.236-.23-2.415-.316-3.593-1.58.076-3.162.134-4.742.163q-2.846.057-5.672-.029l-5.682-.182c-1.696-.058-3.392-.192-5.088-.326l-.115 1.773c-.067.814-.076 1.628-.105 2.443a61.533 61.533 0 00.067 4.407c1.293-.096 2.577-.21 3.842-.306.201-.03.412-.039.623-.058.201-.01.412-.038.613-.048h.172a.393.393 0 01.106-.01c.115-.009.24-.009.354-.009 1.59-.077 3.19-.086 4.83-.01 1.13.03 2.28.087 3.439.163.872-.057 1.744-.115 2.616-.143l5.49-.173zm0 19.632a133.66 133.66 0 01-.316-3.584c-1.58.067-3.162.134-4.742.154a101.75 101.75 0 01-5.672-.03l-.623-.018a31.562 31.562 0 01-5.212-.068 29.51 29.51 0 01-1.85-.2c-1.025-.058-2.06-.135-3.085-.211l-.115 1.772c-.067.814-.076 1.629-.105 2.443a61.182 61.182 0 00.067 4.398c1.715-.115 3.41-.307 5.078-.402a49.347 49.347 0 015.461-.039c1.84.058 3.708.173 5.634.307 1.935.144 3.91.306 6.017.536zm11.344-9.773c-.124-1.227-.23-2.415-.306-3.584-1.581.077-3.171.135-4.752.163a101.8 101.8 0 01-5.672-.038l-5.672-.173c-1.294-.038-2.578-.134-3.871-.23-.412.02-.815.039-1.236.048l-.106 1.63c-.019.315-.038.641-.048.957.039.499.096.987.173 1.485.115.815.259 1.63.345 2.444.048.412.077.833.105 1.245 1.543-.029 3.095-.038 4.638-.01 1.887.03 3.784.106 5.672.202l.105.01a.923.923 0 01.393.105c1.552.067 3.133.163 4.762.278 1.926.143 3.9.306 6.007.527zm15.79-107.003c-.124-1.226-.23-2.414-.306-3.583-1.59.077-3.172.134-4.753.163-1.887.038-3.784.029-5.672-.038l-5.672-.173c-1.696-.057-3.4-.191-5.097-.326l-.115 1.773c-.057.814-.076 1.629-.105 2.443-.02 1.466-.01 2.932.067 4.398 1.724-.115 3.41-.297 5.078-.403a51.842 51.842 0 015.461-.038c.891.029 1.792.067 2.702.125a78.69 78.69 0 013.353-.202l5.27-.153c.02-.517.038-1.035.048-1.552zm11.354 9.773c-.134-1.236-.23-2.414-.316-3.593-1.581.077-3.162.134-4.743.163-1.897.038-3.784.038-5.682-.029l-5.672-.172a105.622 105.622 0 01-3.037-.173c-.69.03-1.37.068-2.07.087l-.095 1.523c-.067.814-.077 1.629-.106 2.443a61.363 61.363 0 00.068 4.408c1.715-.115 3.4-.307 5.068-.412a51.86 51.86 0 015.461-.03c1.84.049 3.718.173 5.644.308 1.935.143 3.909.306 6.007.536zm11.344-9.773c-.125-1.226-.23-2.414-.316-3.583-1.581.077-3.162.134-4.743.163-1.887.038-3.784.029-5.672-.038l-5.672-.173c-1.58-.048-3.152-.172-4.723-.297a105.491 105.491 0 01-.345 4.436 129.89 129.89 0 01-.25 2.3c.01.383.03.766.039 1.15 1.763-.048 3.516-.058 5.28-.02 1.887.029 3.774.106 5.671.201h.096a1.043 1.043 0 01.393.115c1.561.068 3.142.154 4.762.269 1.82.143 3.688.297 5.652.498.048-.862.077-1.725.087-2.596zm11.593-7.07a23.6 23.6 0 00-.297-2.444c-.134-.814-.278-1.628-.335-2.443-.038-.46-.058-.93-.086-1.39-1.533.068-3.057.125-4.59.154q-2.831.058-5.672-.029l-5.672-.182c-1.696-.057-3.392-.191-5.087-.325l-.125 1.772c-.057.815-.077 1.629-.096 2.443a59.797 59.797 0 00.039 3.708c1.753-.057 3.516-.057 5.27-.028 1.887.038 3.784.105 5.671.2l.106.01a.934.934 0 01.392.115c.575.02 1.15.039 1.735.077a76.75 76.75 0 012.96-.192l5.203-.172c.201-.01.402-.01.603-.01.01-.421 0-.843-.019-1.264zm9.16 7.06a127.73 127.73 0 01-.316-3.544c-1.409.067-2.827.115-4.235.143-1.734.02-3.469.01-5.193-.047l-5.203-.182a62.884 62.884 0 01-2.663-.154c-.527.02-1.054.048-1.581.067a96.1 96.1 0 01-.336 4.235 129.89 129.89 0 01-.249 2.3c.01.613.039 1.236.067 1.849 1.562-.115 3.085-.307 4.6-.403a43.13 43.13 0 014.981-.038c1.677.058 3.392.173 5.155.307 1.773.153 3.583.316 5.538.536zm-70.585 97.154c-.124-1.236-.23-2.415-.316-3.593-1.58.076-3.162.134-4.742.163q-2.846.057-5.672-.029l-5.682-.182c-1.696-.058-3.392-.192-5.088-.326l-.115 1.773c-.067.814-.076 1.628-.105 2.443a61.533 61.533 0 00.067 4.407c1.293-.096 2.577-.21 3.842-.306.201-.03.412-.039.623-.058.201-.01.412-.038.613-.048h.172a.393.393 0 01.106-.01c.115-.009.24-.009.354-.009 1.59-.077 3.19-.086 4.83-.01 1.13.03 2.28.087 3.439.163.872-.057 1.744-.115 2.616-.143l5.49-.173zm0 19.632a133.66 133.66 0 01-.316-3.584c-1.58.067-3.162.134-4.742.154a101.75 101.75 0 01-5.672-.03l-.623-.018a31.562 31.562 0 01-5.212-.068 29.51 29.51 0 01-1.85-.2c-1.025-.058-2.06-.135-3.085-.211l-.115 1.772c-.067.814-.076 1.629-.105 2.443a61.182 61.182 0 00.067 4.398c1.715-.115 3.41-.307 5.078-.402a49.347 49.347 0 015.461-.039c1.84.058 3.708.173 5.634.307 1.935.144 3.91.306 6.017.536zm11.344-9.773c-.124-1.227-.23-2.415-.306-3.584-1.581.077-3.171.135-4.752.163a101.8 101.8 0 01-5.672-.038l-5.672-.173c-1.294-.038-2.578-.134-3.871-.23-.412.02-.815.039-1.236.048l-.106 1.63c-.019.315-.038.641-.048.957.039.499.096.987.173 1.485.115.815.259 1.63.345 2.444.048.412.077.833.105 1.245 1.543-.029 3.095-.038 4.638-.01 1.887.03 3.784.106 5.672.202l.105.01a.923.923 0 01.393.105c1.552.067 3.133.163 4.762.278 1.926.143 3.9.306 6.007.527zm15.79-107.003c-.124-1.226-.23-2.414-.306-3.583-1.59.077-3.172.134-4.753.163-1.887.038-3.784.029-5.672-.038l-5.672-.173c-1.696-.057-3.4-.191-5.097-.326l-.115 1.773c-.057.814-.076 1.629-.105 2.443-.02 1.466-.01 2.932.067 4.398 1.724-.115 3.41-.297 5.078-.403a51.842 51.842 0 015.461-.038c.891.029 1.792.067 2.702.125a78.69 78.69 0 013.353-.202l5.27-.153c.02-.517.038-1.035.048-1.552zm11.354 9.773c-.134-1.236-.23-2.414-.316-3.593-1.581.077-3.162.134-4.743.163-1.897.038-3.784.038-5.682-.029l-5.672-.172a105.622 105.622 0 01-3.037-.173c-.69.03-1.37.068-2.07.087l-.095 1.523c-.067.814-.077 1.629-.106 2.443a61.363 61.363 0 00.068 4.408c1.715-.115 3.4-.307 5.068-.412a51.86 51.86 0 015.461-.03c1.84.049 3.718.173 5.644.308 1.935.143 3.909.306 6.007.536zm10.27 182.54c-.133-1.236-.229-2.414-.315-3.593-1.581.077-3.162.135-4.753.163q-2.83.058-5.672-.028l-5.672-.182c-1.695-.058-3.391-.192-5.087-.326l-.115 1.772c-.067.815-.077 1.63-.106 2.444a61.604 61.604 0 00.067 4.407c1.716-.125 3.402-.307 5.069-.412a49.413 49.413 0 015.461-.029c1.84.048 3.718.173 5.643.307 1.82.134 3.68.287 5.644.498.057-.862.076-1.734.086-2.597zm1.074-192.313c-.125-1.226-.23-2.414-.316-3.583-1.581.077-3.162.134-4.743.163-1.887.038-3.784.029-5.672-.038l-5.672-.173c-1.58-.048-3.152-.172-4.723-.297a105.491 105.491 0 01-.345 4.436 129.89 129.89 0 01-.25 2.3c.01.383.03.766.039 1.15 1.763-.048 3.516-.058 5.28-.02 1.887.029 3.774.106 5.671.201h.096a1.043 1.043 0 01.393.115c1.561.068 3.142.154 4.762.269 1.82.143 3.688.297 5.652.498.048-.862.077-1.725.087-2.597zm10.271 182.349a130.64 130.64 0 01-.316-3.593c-1.581.077-3.162.134-4.743.163-1.887.038-3.784.029-5.672-.029l-5.672-.182c-1.705-.057-3.401-.191-5.097-.326l-.115 1.773c-.058.814-.077 1.629-.105 2.443-.02 1.303 0 2.606.047 3.9 1.754-.048 3.507-.058 5.26-.02.642.01 1.275.03 1.907.048a50.29 50.29 0 013.392.039c1.39.038 2.817.124 4.254.21.604-.028 1.198-.076 1.801-.095l5.5-.163zm1.322-189.42a23.6 23.6 0 00-.297-2.443c-.134-.814-.278-1.628-.335-2.443-.038-.46-.058-.93-.086-1.39-1.533.068-3.057.125-4.59.154q-2.831.058-5.672-.029l-5.672-.182c-1.696-.057-3.391-.191-5.087-.325l-.125 1.772c-.057.815-.077 1.629-.096 2.443a59.797 59.797 0 00.039 3.708c1.753-.057 3.516-.057 5.27-.028 1.887.038 3.784.105 5.671.2l.106.01a.934.934 0 01.392.115c.575.02 1.15.039 1.735.077a76.75 76.75 0 012.96-.192l5.203-.172c.201-.01.402-.01.603-.01.01-.421 0-.843-.019-1.264zm9.16 7.062a127.73 127.73 0 01-.316-3.545c-1.409.067-2.827.115-4.235.144-1.734.019-3.469.01-5.193-.048l-5.203-.182a62.884 62.884 0 01-2.663-.154c-.527.02-1.054.048-1.581.067a96.1 96.1 0 01-.336 4.235 129.89 129.89 0 01-.249 2.3c.01.613.039 1.236.067 1.849 1.562-.115 3.085-.307 4.6-.402a43.13 43.13 0 014.981-.039c1.677.058 3.392.173 5.155.307 1.773.153 3.583.316 5.538.536zm.872 192.322c-.134-1.236-.23-2.414-.316-3.592-1.581.076-3.162.134-4.753.162q-2.831.058-5.672-.028l-5.672-.182c-1.561-.048-3.133-.173-4.695-.288h-.019a105.459 105.459 0 01-.345 4.436q-.129 1.179-.258 2.3c.01.613.038 1.226.076 1.849 1.715-.125 3.402-.307 5.069-.412a49.413 49.413 0 015.461-.029c1.84.048 3.717.173 5.643.307 1.926.143 3.9.306 6.008.527zm.613-355.844h-94.47V349.31a.586.586 0 01.23-.067h.086c1.897-.144 3.784-.307 5.672-.374l5.681-.172c1.888-.067 3.775-.067 5.672-.03 1.888.03 3.785.106 5.673.202h.105a.963.963 0 01.9.958v.039a120.86 120.86 0 01-.392 5.145c-.125 1.236-.269 2.404-.393 3.545 1.81-.058 3.631-.058 5.452-.03q2.845.058 5.672.202l.105.01a.946.946 0 01.9.939v.057a95.497 95.497 0 01-.392 5.136c-.163 1.657-.355 3.238-.527 4.714-1.677.23-3.488.392-5.337.536-1.677.125-3.401.22-5.145.288a113.402 113.402 0 01-.335 4.234c-.173 1.658-.364 3.239-.537 4.714-1.677.22-3.487.384-5.337.527s-3.765.259-5.71.316c-1.926.077-3.909.077-5.883-.038s-3.928-.326-5.844-.44h-.048a.393.393 0 01-.268-.125v75.212H200.5c.105-1.629.115-3.258.086-4.886-.029-.815-.038-1.63-.105-2.444l-.163-2.443a.594.594 0 01.546-.623h.086c1.888-.143 3.785-.306 5.672-.373l5.26-.163c.058-1.303.077-2.606.048-3.919-.019-.814-.038-1.629-.095-2.443l-.163-2.443a.593.593 0 01.536-.623h.086c1.897-.144 3.785-.307 5.682-.374l5.672-.172c1.888-.067 3.785-.067 5.672-.029 1.888.029 3.785.106 5.672.201h.105a.961.961 0 01.901.949v.048a106.93 106.93 0 01-.393 5.145 145.843 145.843 0 01-.412 3.65c1.83-.057 3.65-.067 5.471-.028 1.897.028 3.785.105 5.682.2V310.593c-2.683.211-5.366.336-8.058.403v.086c-.68.01-1.36 0-2.04 0a7.883 7.883 0 01.335 2.338 7.225 7.225 0 01-.508 2.836 7.238 7.238 0 01-.518-2.836 7.883 7.883 0 01.336-2.338c-.68 0-1.36.01-2.041 0v-.086a144.818 144.818 0 01-8.144-.412c2.711-.22 5.432-.345 8.144-.422v-.076c1.475-.02 2.96-.02 4.436 0v.076c2.692.077 5.375.201 8.058.412v-54.91q-.1 1.122-.201 2.214c-.182 1.657-.384 3.238-.566 4.704-1.514.22-3.162.383-4.857.537-1.696.134-3.44.249-5.232.306a50.919 50.919 0 01-5.403-.038c-1.82-.105-3.613-.326-5.366-.44h-.057a.4.4 0 01-.364-.307c-1.543.191-3.162.345-4.83.479-1.676.115-3.4.22-5.154.278a112.642 112.642 0 01-.326 4.244c-.172 1.658-.364 3.239-.536 4.714-1.677.22-3.488.383-5.337.527-1.859.134-3.765.259-5.71.307a57.414 57.414 0 01-5.883-.03c-1.974-.114-3.928-.325-5.845-.44l-.057-.01a.42.42 0 01-.393-.421v-.02c.105-1.628.115-3.257.086-4.886-.029-.814-.038-1.628-.105-2.443l-.096-1.494c-1.629.038-3.286.038-4.944-.058-1.974-.105-3.928-.326-5.844-.44h-.048a.418.418 0 01-.393-.413v-.028c.096-1.63.115-3.258.076-4.887-.019-.814-.038-1.629-.095-2.443l-.163-2.443a.593.593 0 01.536-.623l.087-.01c1.897-.143 3.784-.306 5.681-.364l5.672-.172c1.888-.067 3.785-.077 5.672-.038s3.785.105 5.672.2l.106.01a.976.976 0 01.66.307c1.64-.125 3.278-.25 4.916-.307l5.27-.163c.038-1.245.057-2.481.038-3.727-.029-.814-.048-1.628-.106-2.443l-.162-2.443a.593.593 0 01.536-.623h.096c1.887-.143 3.784-.306 5.672-.373l5.672-.173c1.897-.067 3.785-.067 5.672-.029 1.705.03 3.401.087 5.097.173a1.12 1.12 0 01.431-.125l.154-.01a29.691 29.691 0 015.135.106 28.558 28.558 0 015.136.939zm-71.351 99.865v.086c-.68.01-1.37 0-2.05 0a8.174 8.174 0 01.345 2.338 7.27 7.27 0 01-.518 2.836 7.27 7.27 0 01-.517-2.836 8.173 8.173 0 01.345-2.338h-2.05v-.086c-2.712-.077-5.424-.192-8.135-.412 2.711-.23 5.423-.345 8.134-.422v-.086c1.485-.01 2.96-.01 4.446 0v.086c2.711.077 5.423.201 8.134.422-2.711.22-5.423.335-8.134.412zm37.261-65.593c-.086 1.744-.22 3.478-.383 5.136-.173 1.657-.364 3.238-.537 4.713-1.676.22-3.487.384-5.336.537-1.677.115-3.402.22-5.145.278a95.397 95.397 0 01-.336 4.244c-.163 1.658-.364 3.239-.527 4.714-1.676.22-3.487.384-5.336.527-1.86.134-3.766.259-5.71.307a57.606 57.606 0 01-5.893-.029c-1.974-.115-3.929-.326-5.845-.44l-.048-.01a.411.411 0 01-.392-.412v-.029c.095-1.629.115-3.258.076-4.886-.019-.815-.038-1.63-.096-2.444l-.105-1.494c-1.629.038-3.277.038-4.934-.058-1.974-.105-3.929-.325-5.845-.44h-.057a.424.424 0 01-.393-.441v-.01c.105-1.619.115-3.248.086-4.877-.029-.814-.038-1.628-.105-2.443l-.154-2.443a.58.58 0 01.537-.623l.086-.01c1.888-.143 3.785-.306 5.672-.363l5.672-.173c1.897-.067 3.785-.076 5.682-.038q2.831.057 5.672.201l.105.01a.953.953 0 01.652.306c1.638-.124 3.277-.249 4.915-.306l5.672-.173c1.897-.067 3.784-.076 5.682-.038q2.83.057 5.672.201l.095.01a.946.946 0 01.901.939zm17.495 133.513a43.13 43.13 0 014.982-.038c1.677.058 3.392.173 5.155.307 1.773.153 3.583.316 5.538.536l-.565-5.068a127.73 127.73 0 01-.316-3.545c-1.409.067-2.827.115-4.235.144-1.734.019-3.469.01-5.193-.048l-5.203-.182a62.884 62.884 0 01-2.663-.154c-.527.02-1.054.048-1.581.067a96.1 96.1 0 01-.336 4.235 129.89 129.89 0 01-.249 2.3c.01.613.039 1.236.067 1.849 1.562-.115 3.085-.307 4.6-.403zm-4.924-9.878a.934.934 0 01.392.115c.575.02 1.15.039 1.735.077a76.75 76.75 0 012.96-.192l5.203-.172c.201-.01.402-.01.603-.01.01-.421 0-.843-.019-1.264a23.6 23.6 0 00-.297-2.444c-.134-.814-.278-1.628-.335-2.443-.038-.46-.058-.93-.086-1.39-1.533.068-3.057.125-4.59.154q-2.831.058-5.672-.029l-5.672-.182c-1.696-.057-3.392-.191-5.087-.325l-.125 1.772c-.057.815-.077 1.63-.096 2.443a59.797 59.797 0 00.039 3.708c1.753-.057 3.516-.057 5.27-.028 1.887.038 3.784.105 5.671.2zm-11.354 9.763a1.043 1.043 0 01.393.115c1.561.068 3.142.154 4.762.269 1.82.143 3.688.297 5.652.498.048-.862.077-1.725.087-2.596l-.259-2.425c-.125-1.226-.23-2.414-.316-3.583-1.581.077-3.162.134-4.743.163-1.887.038-3.784.029-5.672-.038l-5.672-.173c-1.58-.048-3.152-.172-4.723-.297a105.491 105.491 0 01-.345 4.436 129.89 129.89 0 01-.25 2.3c.01.383.03.766.039 1.15 1.763-.048 3.516-.058 5.28-.02 1.887.03 3.774.106 5.671.202zm-17.294 9.879a51.86 51.86 0 015.461-.029c1.84.048 3.718.172 5.643.307 1.936.143 3.91.306 6.008.536l-.527-5.059c-.134-1.236-.23-2.414-.316-3.593-1.581.077-3.162.134-4.743.163-1.897.039-3.785.039-5.682-.029l-5.672-.172a105.622 105.622 0 01-3.037-.172c-.69.028-1.37.067-2.07.086l-.095 1.523c-.067.815-.077 1.629-.106 2.443a61.363 61.363 0 00.067 4.408c1.716-.115 3.402-.307 5.069-.412zm.172-9.879l5.27-.153c.02-.517.038-1.035.048-1.552l-.259-2.434c-.124-1.226-.23-2.414-.306-3.583-1.59.077-3.172.134-4.753.163-1.887.038-3.784.029-5.672-.038l-5.672-.173c-1.696-.057-3.401-.191-5.097-.326l-.115 1.773c-.057.814-.077 1.629-.105 2.443-.02 1.466-.01 2.932.067 4.398 1.724-.115 3.41-.297 5.078-.403a51.842 51.842 0 015.461-.038c.891.029 1.792.067 2.702.125a78.697 78.697 0 013.353-.202zm-31.004 99.003c-.412.019-.815.038-1.236.047l-.106 1.63c-.019.315-.038.641-.048.957.039.499.096.987.173 1.485.115.815.259 1.63.345 2.444.048.412.076.833.105 1.245 1.543-.029 3.095-.038 4.637-.01 1.888.03 3.785.106 5.673.202l.105.01a.923.923 0 01.393.105c1.552.067 3.133.163 4.762.278 1.925.143 3.9.306 6.007.527l-.537-5.06c-.124-1.226-.23-2.414-.306-3.583-1.581.077-3.171.135-4.752.163a101.8 101.8 0 01-5.672-.038l-5.672-.172c-1.294-.039-2.578-.135-3.871-.23zm-12.724 18.29c1.715-.115 3.41-.307 5.078-.402a49.347 49.347 0 015.461-.039c1.84.058 3.708.173 5.634.307 1.935.144 3.91.307 6.017.536l-.537-5.058a133.66 133.66 0 01-.316-3.584c-1.58.067-3.162.134-4.742.154a101.75 101.75 0 01-5.672-.03l-.623-.018a31.562 31.562 0 01-5.212-.067 29.51 29.51 0 01-1.85-.202c-1.025-.057-2.06-.134-3.085-.21l-.115 1.772c-.067.814-.076 1.629-.105 2.443a61.199 61.199 0 00.067 4.398zm21.337-27.881c-1.58.077-3.162.134-4.742.163q-2.846.057-5.672-.029l-5.682-.182c-1.696-.058-3.392-.192-5.088-.326l-.115 1.773c-.067.814-.076 1.629-.105 2.443a61.533 61.533 0 00.067 4.407c1.293-.096 2.577-.21 3.842-.306.201-.03.412-.039.623-.058.201-.01.412-.038.613-.048h.172a.393.393 0 01.106-.01c.115-.009.24-.009.354-.009 1.59-.077 3.19-.086 4.83-.01 1.13.03 2.28.087 3.439.163.872-.057 1.744-.115 2.616-.143l5.49-.173-.432-4.062c-.124-1.236-.23-2.415-.316-3.593zm70.9-93.56a127.73 127.73 0 01-.315-3.545c-1.409.067-2.827.115-4.235.144-1.734.019-3.469.01-5.193-.048l-5.203-.182a62.884 62.884 0 01-2.663-.154c-.527.02-1.054.048-1.581.067a96.1 96.1 0 01-.336 4.235 129.89 129.89 0 01-.249 2.3c.01.613.039 1.236.067 1.849 1.562-.115 3.085-.307 4.6-.402a43.13 43.13 0 014.981-.039c1.677.058 3.392.173 5.155.307 1.773.153 3.583.316 5.538.536zm-9.159-7.061a23.6 23.6 0 00-.297-2.444c-.134-.814-.278-1.628-.335-2.443-.039-.46-.058-.93-.086-1.39-1.533.068-3.057.125-4.59.154q-2.831.058-5.672-.029l-5.672-.182c-1.696-.057-3.392-.191-5.087-.325l-.125 1.772c-.057.815-.077 1.629-.096 2.443a59.797 59.797 0 00.039 3.708c1.753-.057 3.516-.057 5.27-.028 1.887.038 3.784.105 5.671.2l.106.01a.934.934 0 01.392.115c.575.02 1.15.039 1.735.077a76.75 76.75 0 012.96-.192l5.203-.172c.201-.01.402-.01.603-.01.01-.421 0-.843-.019-1.264zm-11.593 7.07c-.125-1.226-.23-2.414-.316-3.583-1.581.077-3.162.134-4.743.163-1.887.038-3.784.029-5.672-.038l-5.672-.173c-1.58-.048-3.152-.172-4.723-.297a105.491 105.491 0 01-.345 4.436 129.89 129.89 0 01-.25 2.3c.01.383.03.766.039 1.15 1.763-.048 3.516-.058 5.28-.02 1.887.03 3.774.106 5.671.202h.096a1.043 1.043 0 01.393.115c1.561.067 3.142.153 4.762.268 1.82.143 3.688.297 5.652.498.048-.862.077-1.725.087-2.596zm-11.344 9.773c-.134-1.236-.23-2.414-.316-3.593-1.581.077-3.162.134-4.743.163-1.897.039-3.785.039-5.682-.029l-5.672-.172a105.622 105.622 0 01-3.037-.172c-.69.028-1.37.067-2.07.086l-.095 1.523c-.067.815-.077 1.629-.106 2.443a61.363 61.363 0 00.067 4.408c1.715-.115 3.402-.307 5.069-.412a51.86 51.86 0 015.461-.03c1.84.049 3.718.173 5.643.308 1.936.143 3.91.306 6.008.536zm-11.354-9.773c-.124-1.226-.23-2.414-.306-3.583-1.59.077-3.172.134-4.753.163-1.887.038-3.784.029-5.672-.038l-5.672-.173c-1.696-.057-3.401-.191-5.097-.326l-.115 1.773c-.057.814-.077 1.629-.105 2.443-.02 1.466-.01 2.932.067 4.398 1.724-.115 3.41-.297 5.078-.403a51.842 51.842 0 015.461-.038c.891.029 1.792.067 2.702.125a78.69 78.69 0 013.353-.201l5.27-.154c.02-.517.038-1.035.048-1.552zm-15.79 107.003c-.124-1.227-.23-2.415-.306-3.584-1.581.077-3.171.135-4.752.163a101.8 101.8 0 01-5.672-.038l-5.672-.172c-1.294-.039-2.578-.135-3.871-.23-.412.019-.815.038-1.236.047l-.106 1.63c-.019.315-.038.641-.048.957.039.499.096.987.173 1.485.115.815.259 1.63.345 2.444.048.412.077.833.105 1.245 1.543-.029 3.095-.038 4.638-.01 1.887.03 3.784.106 5.672.202l.105.01a.923.923 0 01.393.105c1.552.067 3.133.163 4.762.278 1.926.143 3.9.306 6.007.527zm-11.344 9.773a133.66 133.66 0 01-.316-3.584c-1.58.067-3.162.134-4.742.154a101.75 101.75 0 01-5.672-.03l-.623-.018a31.562 31.562 0 01-5.212-.067 29.51 29.51 0 01-1.85-.202c-1.025-.057-2.06-.134-3.085-.21l-.115 1.772c-.067.814-.076 1.629-.105 2.443a61.182 61.182 0 00.067 4.398c1.715-.115 3.41-.307 5.078-.402a49.347 49.347 0 015.461-.039c1.84.058 3.708.173 5.634.307 1.935.144 3.91.307 6.017.536zm0-19.632c-.124-1.236-.23-2.415-.316-3.593-1.58.077-3.162.134-4.742.163q-2.846.057-5.672-.029l-5.682-.182c-1.696-.058-3.392-.192-5.088-.326l-.115 1.773c-.067.814-.076 1.629-.105 2.443a61.533 61.533 0 00.067 4.407c1.293-.096 2.577-.21 3.842-.306.201-.03.412-.039.623-.058.201-.01.412-.038.613-.048h.172a.393.393 0 01.106-.01c.115-.009.24-.009.354-.009 1.59-.077 3.19-.086 4.83-.01 1.13.03 2.28.087 3.439.163.872-.057 1.744-.115 2.616-.143l5.49-.173zm70.585-97.153a127.73 127.73 0 01-.316-3.545c-1.409.067-2.827.115-4.235.144-1.734.019-3.469.01-5.193-.048l-5.203-.182a62.884 62.884 0 01-2.663-.154c-.527.02-1.054.048-1.581.067a96.1 96.1 0 01-.336 4.235 129.89 129.89 0 01-.249 2.3c.01.613.039 1.236.067 1.849 1.562-.115 3.085-.307 4.6-.402a43.13 43.13 0 014.981-.039c1.677.058 3.392.173 5.155.307 1.773.153 3.583.316 5.538.536zm-9.16-7.061a23.6 23.6 0 00-.297-2.444c-.134-.814-.278-1.628-.335-2.443-.038-.46-.058-.93-.086-1.39-1.533.068-3.057.125-4.59.154q-2.831.058-5.672-.029l-5.672-.182c-1.696-.057-3.392-.191-5.087-.325l-.125 1.772c-.057.815-.077 1.629-.096 2.443a59.797 59.797 0 00.039 3.708c1.753-.057 3.516-.057 5.27-.028 1.887.038 3.784.105 5.671.2l.106.01a.934.934 0 01.392.115c.575.02 1.15.039 1.735.077a76.75 76.75 0 012.96-.192l5.203-.172c.201-.01.402-.01.603-.01.01-.421 0-.843-.019-1.264zm-11.593 7.07c-.125-1.226-.23-2.414-.316-3.583-1.581.077-3.162.134-4.743.163-1.887.038-3.784.029-5.672-.038l-5.672-.173c-1.58-.048-3.152-.172-4.723-.297a105.491 105.491 0 01-.345 4.436 129.89 129.89 0 01-.25 2.3c.01.383.03.766.039 1.15 1.763-.048 3.516-.058 5.28-.02 1.887.03 3.774.106 5.671.202h.096a1.043 1.043 0 01.393.115c1.561.067 3.142.153 4.762.268 1.82.143 3.688.297 5.652.498.048-.862.077-1.725.087-2.596zm-11.344 9.773c-.134-1.236-.23-2.414-.316-3.593-1.581.077-3.162.134-4.743.163-1.897.039-3.784.039-5.682-.029l-5.672-.172a105.622 105.622 0 01-3.037-.172c-.69.028-1.37.067-2.07.086l-.095 1.523c-.067.815-.077 1.629-.106 2.443a61.363 61.363 0 00.068 4.408c1.715-.115 3.4-.307 5.068-.412a51.86 51.86 0 015.461-.03c1.84.049 3.718.173 5.644.308 1.935.143 3.909.306 6.007.536zm-11.354-9.773c-.124-1.226-.23-2.414-.306-3.583-1.59.077-3.172.134-4.753.163-1.887.038-3.784.029-5.672-.038l-5.672-.173c-1.696-.057-3.4-.191-5.097-.326l-.115 1.773c-.057.814-.076 1.629-.105 2.443-.02 1.466-.01 2.932.067 4.398 1.724-.115 3.41-.297 5.078-.403a51.842 51.842 0 015.461-.038c.891.029 1.792.067 2.702.125a78.69 78.69 0 013.353-.202l5.27-.153c.02-.517.038-1.035.048-1.552zm-15.79 107.003c-.124-1.227-.23-2.415-.306-3.584-1.581.077-3.171.135-4.752.163a101.8 101.8 0 01-5.672-.038l-5.672-.172c-1.294-.039-2.578-.135-3.871-.23-.412.019-.815.038-1.236.047l-.106 1.63c-.019.315-.038.641-.048.957.039.499.096.987.173 1.485.115.815.259 1.63.345 2.444.048.412.077.833.105 1.245 1.543-.029 3.095-.038 4.638-.01 1.887.03 3.784.106 5.672.202l.105.01a.923.923 0 01.393.105c1.552.067 3.133.163 4.762.278 1.926.143 3.9.306 6.007.527zm-11.344 9.773a133.66 133.66 0 01-.316-3.584c-1.58.067-3.162.134-4.742.154a101.75 101.75 0 01-5.672-.03l-.623-.018a31.562 31.562 0 01-5.212-.067 29.51 29.51 0 01-1.85-.202c-1.025-.057-2.06-.134-3.085-.21l-.115 1.772c-.067.814-.076 1.629-.105 2.443a61.182 61.182 0 00.067 4.398c1.715-.115 3.41-.307 5.078-.402a49.347 49.347 0 015.461-.039c1.84.058 3.708.173 5.634.307 1.935.144 3.91.307 6.017.536zm0-19.632c-.124-1.236-.23-2.415-.316-3.593-1.58.077-3.162.134-4.742.163q-2.846.057-5.672-.029l-5.682-.182c-1.696-.058-3.392-.192-5.088-.326l-.115 1.773c-.067.814-.076 1.629-.105 2.443a61.533 61.533 0 00.067 4.407c1.293-.096 2.577-.21 3.842-.306.201-.03.412-.039.623-.058.201-.01.412-.038.613-.048h.172a.393.393 0 01.106-.01c.115-.009.24-.009.354-.009 1.59-.077 3.19-.086 4.83-.01 1.13.03 2.28.087 3.439.163.872-.057 1.744-.115 2.616-.143l5.49-.173zm-11.2 7.674l-.105-1.6c-.623.02-1.246.039-1.878.039-.106.019-.22.038-.336.048a14.947 14.947 0 01-2.778.067 27.471 27.471 0 01-2.779-.26c-.479-.076-.967-.162-1.446-.267-.518-.039-1.045-.087-1.562-.115l-.048-.01a.384.384 0 01-.268-.115v8.987a.586.586 0 01.23-.067l.086-.01c1.226-.086 2.443-.182 3.67-.258.613-.077 1.226-.153 1.849-.201a31.968 31.968 0 014.79-.087c.029-.421.058-.843.106-1.264.086-.815.23-1.63.344-2.444.077-.498.135-.986.173-1.485-.01-.316-.029-.642-.048-.958zM246.342 454.805c6.136-.71 12.275-1.118 18.416-1.418 3.07-.179 6.142-.247 9.213-.367l9.214-.195 9.217-.029c3.073.05 6.145.04 9.218.147 6.147.153 12.294.415 18.446.983-6.136.716-12.276 1.124-18.417 1.423-3.07.18-6.142.244-9.212.367l-9.215.19-9.216.025c-3.073-.046-6.145-.041-9.219-.147-6.146-.153-12.294-.414-18.445-.979z"/><path d="M246.346 252.109v3.555c.077-.958.144-1.945.191-2.932a.946.946 0 00-.191-.623zm0-9.265v.23a.122.122 0 00.077-.077.126.126 0 00-.077-.153zM151.57 369.507l.152 2.443c.067.814.077 1.629.106 2.443.028 1.62.019 3.248-.086 4.877v.02a.398.398 0 00.134.306V368.95a.57.57 0 00-.307.556zm0-19.641l.152 2.443c.067.814.077 1.629.106 2.443.028 1.629.019 3.258-.086 4.886v.02a.413.413 0 00.134.306V349.31a.587.587 0 00-.307.556zM246.432 310.583a.266.266 0 00-.086.01v-.02a.265.265 0 00.086.01z" fill="#fff"/></svg>