<svg data-name="Layer 1" xmlns="http://www.w3.org/2000/svg" viewBox="0 0 700 550"><path d="M489.949 330.28s-22.152 2.35-48.844-21.708c0 0-3.89 16.268-6.493 20.41a24.846 24.846 0 01-8.478 9.697c-15.852 10.249-38.875-2.864-46.124-6.668-3.348-1.751-3.852-1.858-16.249-8.526-3.464-1.867-21.89-12.445-21.89-12.445-4.569-2.013-12.388-1.675-12.388-1.675l-5.74 9.465a29.364 29.364 0 01-8.758 9.165c3.842-.32 7.656-.561 11.478-.803 3.813-.271 7.626-.503 11.42-.852 1.906-.145 3.803-.339 5.69-.561 1.888-.194 3.765-.474 5.643-.774a48.606 48.606 0 005.535-1.21 13.328 13.328 0 005.062-2.458 11.541 11.541 0 01-4.733 3.348 34.54 34.54 0 01-5.564 1.8 75.597 75.597 0 01-11.459 1.781c-3.852.32-7.703.474-11.555.426a99.54 99.54 0 01-11.517-.697h-.01a29.197 29.197 0 01-11.38 4.549l-43.434 7.461s10.278 13.21-.339 40.85c0 0 21.533-2.178 35.005 1.877 13.461 4.046 34.123 4.046 55.995-3.851s33.408-5.875 47.992-3.04 67.637 28.56 86.267-18.832c0 0 6.28-15.388 4.868-26.73zm-221.94 22.538a1.453 1.453 0 010-2.903 1.453 1.453 0 010 2.903zm-.928-10.8a1.452 1.452 0 010 2.904 1.452 1.452 0 010-2.904zm-2.787 37.279a1.453 1.453 0 010-2.904 1.453 1.453 0 010 2.904zm2.322-7.897a1.453 1.453 0 010-2.904 1.453 1.453 0 010 2.904zm1.626-9.755a1.453 1.453 0 010-2.904 1.453 1.453 0 010 2.904zM407.456 284.039a11.504 11.504 0 002.313 2.487c-.329-.087-2.99-.842-2.874-1.8v-.058a1.164 1.164 0 01.561-.629zM489.213 286.778a126.88 126.88 0 00-6.116-31.772c-6.077-18.3-11.913-25.317-11.913-25.317s-2.38 3.106-5.487.9-11.807-5.187-11.807-5.187c-15.146-4.026-20.653 2.41-20.653 2.41a119.384 119.384 0 01-8.835 10.703 21.09 21.09 0 014.17-2.303 19.62 19.62 0 016.35-1.53 14.853 14.853 0 013.338.184 12.106 12.106 0 013.204 1.065 10.16 10.16 0 014.538 4.636 13.589 13.589 0 00-10.974-3.959 29.236 29.236 0 00-5.971 1.026 72.55 72.55 0 00-5.458 1.742l-.01.01c-10.675 11.197-18.504 14.43-18.504 14.43-3.407 14.148-1.558 22.684.755 27.474 0-.358.029-.716.048-1.074a34.786 34.786 0 01.813-4.82 82.894 82.894 0 012.845-9.28c1.133-3.02 2.352-6.01 3.707-8.933a89.132 89.132 0 014.461-8.584c-1.887 6.184-4.17 12.175-6.348 18.184-1.113 3-2.197 6-3.203 9.02-.494 1.51-.978 3.03-1.336 4.568a14.146 14.146 0 00-.377 2.09 16.659 16.659 0 001.006 1.578 11.222 11.222 0 013.378-1.084c8.235-1.684 56.053 7.994 33.59 13.142l-1.238 4.82c31.201 10.742 48.176-3.242 48.176-3.242-1.23-1.616-1.849-6.339-2.149-10.897zm-78.07-7.123a1.453 1.453 0 010-2.903 1.453 1.453 0 010 2.903zm7.84.523a1.453 1.453 0 010-2.904 1.453 1.453 0 010 2.904zm8.187 1.393a1.453 1.453 0 010-2.903 1.453 1.453 0 010 2.903zm8.535 1.568a1.453 1.453 0 010-2.903 1.453 1.453 0 010 2.903zm18.553-15.784c-.126 2.032-.223 4.074-.426 6.097l-.368 3.038a40.543 40.543 0 01-.445 3.02c-.358 1.993-.687 4.006-1.142 5.98-.474 1.985-.949 3.959-1.51 5.904.136-2.032.358-4.045.571-6.048.232-2.013.358-4.026.58-6.03.368-4.016.659-8.023.804-12.03a100.93 100.93 0 00-.261-11.98c-.126-.987-.184-1.994-.368-2.971l-.232-1.48c-.097-.485-.213-.969-.32-1.452a17.408 17.408 0 00-2.1-5.594 9.507 9.507 0 011.771 2.497 12.278 12.278 0 01.668 1.393 14.237 14.237 0 01.57 1.433 34.356 34.356 0 011.501 5.97 66.613 66.613 0 01.707 12.253zM405.085 253.815a13.893 13.893 0 00-.542 1.481c.039-.416.068-.832.087-1.258.29-.135.455-.223.455-.223z" fill="#020202"/><path d="M409.924 285.955l-3.552 16.83-1.8 9.88-2.12-.512c-18.039-3.804-47.788-16.781-47.788-16.781l-6.842-8.836c4.268 1.006 5.574-3.774 5.574-3.774 4.965 1.248 5.149-3.842 5.149-3.842 4.365.445 3.6-5.778 3.6-5.778 4.655.513 3.155-4.936 3.155-4.936a24.108 24.108 0 01-7.19-16.703 4.446 4.446 0 00-.814 0s13.762-23.575 26.285-19.036l12.533 4.538a22.162 22.162 0 00-2.294 9.436c1.142 10.597 8.052 8.74 10.452 7.752a40.278 40.278 0 00-1.626 5.894 49.027 49.027 0 00-.92 7.239 51.575 51.575 0 00.03 3.668 26.1 26.1 0 00.503 3.667 14.09 14.09 0 001.22 3.542 7.517 7.517 0 001.77 2.294 3.265 3.265 0 00.281.232l.01.01c.91.842 4.384 5.216 4.384 5.216zM373.997 179.565a54.08 54.08 0 00.737 5.607 35.19 35.19 0 001.418 5.387 20.311 20.311 0 001.074 2.514 7.37 7.37 0 01.869 3.018 13.443 13.443 0 01-.903 5.98l-.023.047-.027.049a5.157 5.157 0 00-.554 1.538 1.526 1.526 0 00.164 1.17 1.921 1.921 0 001.092.576c.282.024.55.077.841.09l.898-.003h.056a.944.944 0 01.843.512c.367.718.802 1.455 1.244 2.149a14.01 14.01 0 001.444 1.953 5.886 5.886 0 00.837.775 10.253 10.253 0 011.056.917 9.707 9.707 0 011.702 2.264l-.046-.077a12.412 12.412 0 001.938 2.172 9.22 9.22 0 002.461 1.578 6.138 6.138 0 002.882.476 7.957 7.957 0 002.924-.844 7.37 7.37 0 01-2.853 1.342 6.489 6.489 0 01-3.246-.127 9.608 9.608 0 01-2.92-1.484 11.801 11.801 0 01-2.377-2.288l-.047-.078a8.401 8.401 0 00-1.534-1.754 9.569 9.569 0 00-.932-.74 7.701 7.701 0 01-1.1-.936 15.712 15.712 0 01-1.723-2.134 24.652 24.652 0 01-1.388-2.31l.898.513-1.089.02c-.37-.012-.757-.072-1.135-.111a3.728 3.728 0 01-2.292-1.316 3.41 3.41 0 01-.476-2.635 6.94 6.94 0 01.818-2.172l-.05.095a12.892 12.892 0 00.914-5.128 6.334 6.334 0 00-.574-2.426 21.753 21.753 0 01-.971-2.773 29.163 29.163 0 01-.932-5.695 32.743 32.743 0 01.082-5.711z" fill="#020202"/><path d="M374.333 179.944a195.859 195.859 0 008.35 4.065 45.434 45.434 0 008.64 3.145 5.686 5.686 0 001.059.105c.322-.01.62-.103.645-.188.006-.053.013.015.056-.118l.113-.307a3.35 3.35 0 01.28-.597 4.058 4.058 0 01.842-1.038 4.832 4.832 0 012.38-1.056 5.986 5.986 0 011.291-.07 3.538 3.538 0 011.343.468 6.105 6.105 0 012.666 4.266 16.66 16.66 0 01.09 4.854l.006-.125a17.964 17.964 0 01-.118 3.172 6.446 6.446 0 01-.413 1.661 2.015 2.015 0 01-.232.447c-.05.076-.092.15-.151.226a4.298 4.298 0 01-.234.228 1.513 1.513 0 01-.636.339 2.02 2.02 0 01-.726.005l.843-.386a28.564 28.564 0 00-2.575 15.099c.15 1.24.43 2.629.574 3.957.163 1.343.278 2.697.316 4.055a40.659 40.659 0 01-.094 4.08c-.102 1.369-.292 2.695-.47 4.021a57.265 57.265 0 01-1.57 7.957 11.43 11.43 0 01-.78 1.997l-.523.871a6.747 6.747 0 00-.391.808 7.863 7.863 0 00-.517 3.583c.32 2.45 1.084 5.119 2.77 6.884a5.33 5.33 0 003.152 1.633 8.82 8.82 0 003.72-.349 24.742 24.742 0 006.937-3.585 61.36 61.36 0 006.14-5.033 125.716 125.716 0 0010.989-11.54c1.74-2.03 3.382-4.066 5.099-6.16a10.58 10.58 0 013.345-2.387 18.75 18.75 0 011.899-.768c.66-.163 1.312-.386 1.983-.497.673-.091 1.344-.231 2.02-.28l2.036-.09a29.993 29.993 0 014.042.35c.666.112 1.34.19 2 .332l1.964.487a39.352 39.352 0 013.863 1.186c1.296.385 2.503.98 3.754 1.477 1.258.486 2.452 1.1 3.654 1.7l1.806.895.451.224c.136.062.254.126.386.18a3.807 3.807 0 00.806.232 3.616 3.616 0 003.075-.85 4.475 4.475 0 00.956-1.391 3.734 3.734 0 00.304-.813l.116-.416.048-.43a6.865 6.865 0 00-.646-3.45 20.021 20.021 0 00-4.794-5.873 71.49 71.49 0 00-13.1-8.723 69.869 69.869 0 01-13.208-9.334 66.692 66.692 0 01-5.684-5.776 65.836 65.836 0 01-4.975-6.395 68.345 68.345 0 01-4.196-6.93c-.615-1.203-1.235-2.404-1.775-3.643-.28-.614-.565-1.23-.824-1.843l-.848-1.756-.838-1.76-1.014-1.656c-.35-.543-.65-1.125-1.042-1.637l-1.193-1.523-.595-.763-.679-.684-1.359-1.37-1.507-1.196a10.603 10.603 0 00-1.585-1.083 20.97 20.97 0 00-14.76-2.877l.15-.058c-2.48 1.31-4.933 2.73-7.334 4.206-2.4 1.483-4.755 3.042-7.018 4.721a43.621 43.621 0 00-6.356 5.526 13.416 13.416 0 00-2.34 3.442 4.087 4.087 0 00.141 3.92zm-.13.144a4.324 4.324 0 01-.35-4.198 13.839 13.839 0 012.276-3.656 44.28 44.28 0 016.228-5.871c2.241-1.763 4.574-3.4 6.954-4.963a130.765 130.765 0 017.296-4.455l.006-.003a.535.535 0 01.145-.056 21.49 21.49 0 018.244-.128 21.89 21.89 0 017.707 2.892 11.864 11.864 0 011.728 1.138l1.642 1.262 1.482 1.44.738.723.65.8 1.296 1.602c.425.539.753 1.142 1.133 1.71l1.1 1.735.913 1.83.902 1.837c.262.613.538 1.204.813 1.8.529 1.203 1.136 2.367 1.738 3.533a66.362 66.362 0 004.1 6.717 63.83 63.83 0 004.854 6.192 64.65 64.65 0 005.538 5.588 70.187 70.187 0 0012.765 9.171 73.196 73.196 0 0113.358 9.09 21.037 21.037 0 015.127 6.512 8.483 8.483 0 01.713 4.32l-.077.56c-.045.183-.104.363-.157.544a5.19 5.19 0 01-.412 1.047 5.965 5.965 0 01-1.337 1.846 5.116 5.116 0 01-4.371 1.155 5.264 5.264 0 01-1.104-.34c-.175-.073-.35-.17-.513-.252l-.438-.231-1.751-.924c-1.167-.62-2.328-1.254-3.546-1.76-1.211-.514-2.387-1.134-3.64-1.538a38.285 38.285 0 00-3.742-1.253l-1.902-.518c-.639-.153-1.289-.24-1.933-.365a29.061 29.061 0 00-3.901-.424l-1.958.043c-.651.033-1.292.155-1.94.227a12.156 12.156 0 00-6.856 3.312c-1.676 2.012-3.396 4.11-5.14 6.11a159.803 159.803 0 01-10.998 11.634 62.286 62.286 0 01-6.156 5.158 25.566 25.566 0 01-7.101 3.904 9.845 9.845 0 01-4.158.488 6.49 6.49 0 01-3.855-1.868 10.194 10.194 0 01-2.263-3.567 17.256 17.256 0 01-1.062-4.033 9.33 9.33 0 01.509-4.27 8.277 8.277 0 01.452-1l.484-.854a11.78 11.78 0 00.64-1.732 55.926 55.926 0 001.45-7.721 48.243 48.243 0 00-.326-15.69 27.262 27.262 0 01.353-8.198 32.048 32.048 0 012.54-7.788l.844-.387c.046-.034-.003.034.046-.024a.125.125 0 01.044-.032l.056-.092a.77.77 0 00.118-.225 5.078 5.078 0 00.321-1.28 18.219 18.219 0 00.146-2.897v-.029a.735.735 0 01.005-.096 15.35 15.35 0 00.038-4.43 4.887 4.887 0 00-1.983-3.477 2.607 2.607 0 00-.827-.336 4.873 4.873 0 00-1.031.032 3.734 3.734 0 00-1.852.754 2.995 2.995 0 00-.635.747 2.381 2.381 0 00-.225.45l-.094.237a2.63 2.63 0 01-.208.401 1.774 1.774 0 01-1.458.58 6.594 6.594 0 01-1.253-.15 24.944 24.944 0 01-4.483-1.548 82.483 82.483 0 01-4.24-1.985 133.28 133.28 0 01-8.215-4.477z" fill="#020202"/><path d="M383.423 211.54a15.744 15.744 0 01.775 5.538 11.852 11.852 0 01-1.457 5.62 14.919 14.919 0 00-1.383 2.163 7.319 7.319 0 00-.546 2.346 17.41 17.41 0 00.586 5.26 9.772 9.772 0 01-2.096-5.248 7.444 7.444 0 01.345-3.014 11.277 11.277 0 011.435-2.503 15.247 15.247 0 001.62-4.786c.326-1.734.524-3.526.721-5.376zM341.429 278.904a10.649 10.649 0 01-.914-1.777 8.399 8.399 0 01-.539-1.954 3.147 3.147 0 01.38-2.172 3.055 3.055 0 011.97-1.229l-.139.039a1.717 1.717 0 00.734-.679.594.594 0 00.058-.339.79.79 0 00-.052-.183l-.122-.303a3.66 3.66 0 01.385-3.435 3.8 3.8 0 011.355-1.17 8.21 8.21 0 011.452-.526 1.096 1.096 0 00.635-.431.383.383 0 00.022-.215.96.96 0 00-.107-.304.667.667 0 01-.111-.25l-.005-.022a6.252 6.252 0 01.032-2.836 4.022 4.022 0 01.673-1.39 3.457 3.457 0 011.244-.983 5.698 5.698 0 011.3-.402 3.12 3.12 0 00.915-.35 1.226 1.226 0 00.53-.553 1.137 1.137 0 00.042-.722l-.044-.162a.352.352 0 01-.008-.142 8.013 8.013 0 01.769-2.393 5.74 5.74 0 011.566-1.956 4.48 4.48 0 012.294-.964 6.754 6.754 0 011.226-.052c.405.024.8.107 1.2.16a.277.277 0 01.24.29l-.002.03a16.527 16.527 0 00.424 4.564 19.235 19.235 0 001.523 4.335 20.333 20.333 0 002.414 3.869 26.723 26.723 0 003.087 3.318.821.821 0 01.216.337 8.822 8.822 0 01.445 2.167 4.612 4.612 0 01-.415 2.4 6.1 6.1 0 01-.398.586 7.712 7.712 0 01-.544.487c-.205.113-.416.222-.63.322a4.338 4.338 0 01-.638.17 5.57 5.57 0 01-1.223.08c-.377-.04-.747-.097-1.12-.15l1.157-1.114a12.002 12.002 0 01.176 2.288 7.129 7.129 0 01-.423 2.383 3.683 3.683 0 01-1.878 2.088 4.557 4.557 0 01-2.683.198l1.248-.997a7.07 7.07 0 01-.472 2.21 4.547 4.547 0 01-1.41 1.97 3.64 3.64 0 01-2.386.762 6.148 6.148 0 01-1.148-.14c-.353-.099-.694-.216-1.038-.327l1.204-.742a8.14 8.14 0 01-.752 2.32 4.47 4.47 0 01-1.736 1.933 3.386 3.386 0 01-2.644.264 7.696 7.696 0 01-1.14-.455l-.987-.62a.58.58 0 01-.243-.312 10.203 10.203 0 00-.87-1.845c-.352-.609-.761-1.188-1.179-1.767a20.73 20.73 0 00-1.374-1.653 34.846 34.846 0 00-1.542-1.554zm.148-.124a19.244 19.244 0 011.747 1.309 21.38 21.38 0 011.623 1.512 15.567 15.567 0 011.43 1.724 11.049 11.049 0 011.17 2.002l-.243-.312.892.45a6.54 6.54 0 00.894.262 1.957 1.957 0 001.53-.223 2.905 2.905 0 001.008-1.314 6.505 6.505 0 00.477-1.808.891.891 0 011.098-.769l.105.027.803.202a4.311 4.311 0 00.753.047 1.788 1.788 0 001.177-.401 2.579 2.579 0 00.74-1.137 5.25 5.25 0 00.291-1.526 1.045 1.045 0 011.075-1.015l.094.007.08.01a2.591 2.591 0 001.42-.055 1.624 1.624 0 00.803-.955 5.514 5.514 0 00.34-1.702 10.204 10.204 0 00-.081-1.874.996.996 0 011.146-1.117l.011.002.843.142a3.852 3.852 0 00.753-.024 1.127 1.127 0 00.953-.578 4.968 4.968 0 00.015-3.198l.216.338a23.395 23.395 0 01-3.055-3.738 22.91 22.91 0 01-2.2-4.262 24.386 24.386 0 01-1.296-4.582 21.407 21.407 0 01-.379-4.747l.238.32a5.957 5.957 0 00-2.195-.04 3.552 3.552 0 00-1.88.926 4.832 4.832 0 00-1.158 1.761 7.048 7.048 0 00-.47 2.07l-.052-.302a2.366 2.366 0 01.101 1.665 2.594 2.594 0 01-.974 1.308 10.94 10.94 0 01-2.305 1.018 1.996 1.996 0 00-.986 1.349 4.952 4.952 0 00-.011 2.003l-.116-.27a2.556 2.556 0 01.356 1.043 2.089 2.089 0 01-.206 1.18 2.69 2.69 0 01-1.61 1.243 8.233 8.233 0 00-1.258.403 2.213 2.213 0 00-.836.64 2.238 2.238 0 00-.32 2.036l.118.374a2.13 2.13 0 01.084.519 1.937 1.937 0 01-.272 1.038 2.898 2.898 0 01-1.417 1.152.509.509 0 01-.126.036l-.012.002a1.984 1.984 0 00-1.326.62 2.47 2.47 0 00-.435 1.553 7.776 7.776 0 00.255 1.845 16.602 16.602 0 00.58 1.811z" fill="#020202"/><path d="M349.806 264.869a32.4 32.4 0 011.546 3.937 28.2 28.2 0 01.583 2.043c.091.33.14.75.237.971a3.668 3.668 0 00.433.822 24.736 24.736 0 002.616 3.146l2.888 3.054a24.934 24.934 0 01-3.413-2.51 16.215 16.215 0 01-2.907-3.171 4.552 4.552 0 01-.514-1.045 8.328 8.328 0 01-.233-1.076c-.12-.679-.28-1.356-.416-2.04a95.918 95.918 0 01-.82-4.131zM345.426 270.85a16.812 16.812 0 011.285 3.378c.081.291.156.585.217.881a2.821 2.821 0 00.3.7 8.615 8.615 0 00.98 1.37c.73.897 1.549 1.746 2.356 2.61.815.86 1.64 1.718 2.436 2.626a20.28 20.28 0 01-2.952-2.074 19.996 19.996 0 01-2.589-2.548 8.59 8.59 0 01-1.044-1.568 3.688 3.688 0 01-.32-.97l-.12-.874zM354.666 261.021c1.164 2.08 2.167 4.187 3.275 6.235q.804 1.548 1.72 3.022a16.779 16.779 0 002.093 2.793 8.503 8.503 0 01-2.707-2.354 18.57 18.57 0 01-1.96-3.006 26.206 26.206 0 01-1.453-3.258 20.237 20.237 0 01-.968-3.432z" fill="#020202"/><path d="M446.094 289.596c-.706 3.534-1.52 7.042-2.367 10.543-.848 3.5-1.722 6.995-2.674 10.47q-1.418 5.213-2.93 10.402c-.533 1.733-.975 3.443-1.587 5.194a24.658 24.658 0 01-2.33 5.019 22.77 22.77 0 01-7.779 7.85 28.47 28.47 0 01-10.41 3.686 40.677 40.677 0 01-10.984.18 42.902 42.902 0 01-2.724-.388 27.998 27.998 0 01-2.733-.707l-2.57-.967-2.503-1.064c-13.169-5.998-25.682-13.122-38.29-20.084a488.748 488.748 0 01-9.362-5.396c-.773-.465-1.555-.907-2.316-1.403a26.25 26.25 0 00-2.285-1.366 17.815 17.815 0 00-5.07-1.468 64.432 64.432 0 00-10.729-.288c-.455 0-.91-.002-1.377-.033a4.708 4.708 0 01-1.465-.27 1.358 1.358 0 01-.416-.258l-.258-.24-.49-.461-.979-.924-3.915-3.695-.033-.034a7.888 7.888 0 01-.8-1.072 5.648 5.648 0 01-.567-1.251 4.572 4.572 0 01-.194-1.399 3.53 3.53 0 01.33-1.46l.087.68a5.548 5.548 0 01-1.014-1.626 10.526 10.526 0 01-.558-1.724 19.16 19.16 0 01-.492-3.516l.111.354a6.411 6.411 0 01-.982-2.856 10.107 10.107 0 01-.05-1.465 9.42 9.42 0 01.167-1.473l.69.887a11.25 11.25 0 01-4.302-1.04 15.999 15.999 0 01-1.924-1.035 14.992 14.992 0 01-1.782-1.306.575.575 0 01-.074-.075l-.01-.013a6.093 6.093 0 01-1.236-2.239 2.888 2.888 0 010-1.527 2.694 2.694 0 01.882-1.317 3.192 3.192 0 012.839-.552l2.163.528 8.646 2.139-1.085 1.156a10.396 10.396 0 01-.48-3.695 8.675 8.675 0 01.358-1.895 4.078 4.078 0 011.104-1.863 3.107 3.107 0 012.25-.768 5.793 5.793 0 011.969.508 16.383 16.383 0 013.091 1.882c.939.699 1.828 1.445 2.693 2.156l.636.505a4.244 4.244 0 00.574.345 7.198 7.198 0 001.405.5 25.974 25.974 0 006.47.587h.044a.86.86 0 01.182.018 17.04 17.04 0 016.343 3.028 39.062 39.062 0 015.083 4.533 59.52 59.52 0 014.357 5.153 5.794 5.794 0 002.164 1.805l2.995 1.366q6.037 2.71 12.153 5.221a73.363 73.363 0 0012.4 4.109l.053.01.043.01q10.107 2.903 20.191 5.885l-.738.447 3.246-14.334 3.313-14.32a.097.097 0 01.19.04l-2.762 14.437-2.83 14.422a.584.584 0 01-.684.46l-.035-.008-.019-.005q-10.168-2.683-20.31-5.456l.095.021a44.57 44.57 0 01-6.55-1.73 153.195 153.195 0 01-6.28-2.273c-4.149-1.595-8.23-3.336-12.279-5.146l-3.047-1.377a7.792 7.792 0 01-2.894-2.388 57.53 57.53 0 00-4.224-4.962 37.084 37.084 0 00-4.821-4.274 15.101 15.101 0 00-5.54-2.656l.225.018a27.3 27.3 0 01-7.047-.709 9.11 9.11 0 01-1.788-.661 6.33 6.33 0 01-.875-.543c-.247-.19-.468-.374-.692-.56-.882-.738-1.726-1.459-2.603-2.124a14.618 14.618 0 00-2.692-1.684 3.983 3.983 0 00-1.303-.367 1.2 1.2 0 00-.894.272 4.164 4.164 0 00-.878 2.481 8.602 8.602 0 00.365 3.025l.004.012a.905.905 0 01-1.09 1.145l-8.625-2.223-2.155-.562a1.524 1.524 0 00-1.382.199 1.045 1.045 0 00-.35 1.168 4.596 4.596 0 00.898 1.632l-.084-.089a13.66 13.66 0 001.552 1.17 14.47 14.47 0 001.719.96 9.78 9.78 0 003.706.97h.005a.735.735 0 01.701.768.79.79 0 01-.015.119 8.908 8.908 0 00-.16 1.224 8.704 8.704 0 00.01 1.252 5.075 5.075 0 00.702 2.26l.007.012a.687.687 0 01.104.342 17.969 17.969 0 00.379 3.266 6.484 6.484 0 001.203 2.83l.004.005a.61.61 0 01.083.674 2.54 2.54 0 00-.217.941 3.455 3.455 0 00.12 1.05 4.564 4.564 0 00.432 1.012 6.632 6.632 0 00.661.928l-.032-.034 3.858 3.797.964.95.482.473c.077.074.17.171.233.225a.525.525 0 00.155.091 8.456 8.456 0 002.495.285 73.706 73.706 0 0110.826.439 18.455 18.455 0 015.247 1.567 26.844 26.844 0 012.335 1.418c.744.493 1.525.943 2.29 1.411 3.087 1.84 6.235 3.582 9.386 5.314q9.445 5.22 19.11 10.023c6.432 3.207 12.898 6.385 19.486 9.176l2.471 1.028 2.49.915 1.233.336a8.708 8.708 0 001.261.289c.868.146 1.745.26 2.623.351a43.399 43.399 0 0010.543-.173 26.835 26.835 0 009.848-3.371 21.224 21.224 0 007.334-7.26c1.899-2.946 2.84-6.38 3.963-9.814q1.633-5.139 3.176-10.307c2.048-6.893 4.036-13.809 5.826-20.778a.097.097 0 01.117-.07.098.098 0 01.072.112z" fill="#020202"/><path d="M409.823 314.324l-5.68-1.199a.486.486 0 01.2-.95.524.524 0 01.078.023zM319.226 282.415a28.912 28.912 0 015.235.637c.855.182 1.707.368 2.551.593.851.204 1.674.492 2.543.665a8.117 8.117 0 01-2.672.079 24.975 24.975 0 01-2.614-.39 22.99 22.99 0 01-5.043-1.584zM314.265 287.246a9.595 9.595 0 013.868 1.15 8.08 8.08 0 011.68 1.174 3.505 3.505 0 011.135 1.727 8.648 8.648 0 00-1.589-1.123c-.553-.316-1.107-.633-1.683-.926a33.121 33.121 0 01-3.411-2.002zM314.974 292.512a8.755 8.755 0 012.678 1.493 8.658 8.658 0 012.08 2.253 8.658 8.658 0 01-2.678-1.493 8.756 8.756 0 01-2.08-2.253zM316.796 298.992a6.567 6.567 0 012.368 1.184 6.493 6.493 0 011.784 1.955 6.493 6.493 0 01-2.368-1.184 6.567 6.567 0 01-1.784-1.955zM324.897 306.08a1.887 1.887 0 01-1.056-1.581 4.485 4.485 0 01.233-1.963l-.013.038a4.924 4.924 0 00.107-.98 1.191 1.191 0 00-.13-.704 3.083 3.083 0 01-.59-1.111 3.736 3.736 0 01-.2-1.197 2.774 2.774 0 01.26-1.229 9.357 9.357 0 00.535-.907 4.796 4.796 0 00.223-2.061 3.582 3.582 0 01.358 2.225 5.594 5.594 0 01-.398 1.044 2.334 2.334 0 00-.089.894 3.412 3.412 0 00.63 1.72 1.96 1.96 0 01.327 1.368 5.743 5.743 0 01-.232 1.16l-.005.018-.008.02c-.11.268-.227.534-.31.81a4.286 4.286 0 00-.163.833 1.95 1.95 0 00.52 1.603zM316.164 281.642a136.603 136.603 0 01-4.092-3.636c-1.335-1.24-2.671-2.477-3.973-3.75a295.659 295.659 0 01-7.719-7.716.948.948 0 01.022-1.34l.047-.043.016-.013c1.224-1.03 2.47-2.032 3.716-3.033l.01-.008a.946.946 0 011.287.1 283.487 283.487 0 016.885 7.864q1.692 1.993 3.331 4.034c1.094 1.36 2.176 2.73 3.218 4.138a130.987 130.987 0 01-3.847-3.56q-1.888-1.813-3.735-3.664a283.704 283.704 0 01-7.247-7.531l1.297.092a208.785 208.785 0 01-3.709 3.042l.085-1.395c2.501 2.64 4.972 5.31 7.377 8.044 1.215 1.355 2.394 2.743 3.575 4.13a136.678 136.678 0 013.456 4.245zM309.708 257.443a36.088 36.088 0 01-2.087-5.916 35.677 35.677 0 01-1.153-6.167 35.671 35.671 0 012.087 5.916 36.09 36.09 0 011.153 6.167zM318.551 261.426a16.124 16.124 0 012.595-3.278 15.942 15.942 0 013.278-2.595 15.936 15.936 0 01-2.594 3.279 16.12 16.12 0 01-3.279 2.594zM325.64 270.54a13.897 13.897 0 013.847-.484 13.74 13.74 0 013.848.483 13.739 13.739 0 01-3.848.484 13.896 13.896 0 01-3.848-.484zM258.54 343.376a11.09 11.09 0 01.477-1.851 4.76 4.76 0 01.435-.883 1.512 1.512 0 01.845-.697 1.177 1.177 0 011.1.396 4.146 4.146 0 01.629.822 12.358 12.358 0 01.846 1.773 38.099 38.099 0 011.905 7.459 68.283 68.283 0 01.079 15.31c-.267 2.539-.616 5.07-1.138 7.583a42.1 42.1 0 01-.968 3.746 12.289 12.289 0 01-1.695 3.678 2.877 2.877 0 01-.989.836 1.621 1.621 0 01-.84.138 1.722 1.722 0 01-.754-.294 4.177 4.177 0 01-1.272-1.847 21.316 21.316 0 01-1.034-3.758 64.939 64.939 0 01-.866-7.57c.567 2.47 1.056 4.952 1.789 7.348a21.099 21.099 0 001.265 3.452 3.327 3.327 0 00.89 1.212c.148.062.107.045.199.006a1.667 1.667 0 00.4-.425 12.615 12.615 0 001.28-3.256 40.4 40.4 0 00.797-3.62c.452-2.446.78-4.928 1.01-7.417.263-2.487.416-4.987.49-7.484a67.36 67.36 0 00-.138-7.468c-.087-1.24-.298-2.44-.508-3.684a38.853 38.853 0 00-.797-3.647 11.607 11.607 0 00-.592-1.728c-.232-.513-.604-1.116-.99-1.06-.436.067-.835.682-1.113 1.199a10.942 10.942 0 00-.742 1.731zM441.195 308.543l5.4 4.098 2.791 1.952c.935.641 1.832 1.335 2.808 1.912 1.927 1.19 3.795 2.467 5.797 3.52.995.533 1.95 1.14 2.963 1.636l3.032 1.502a92.71 92.71 0 0012.596 4.87 42.08 42.08 0 0013.33 1.943l-.273.304c.025-2.634.01-5.268-.025-7.902-.024-2.634-.118-5.268-.177-7.902l-.224-7.902-.147-7.902 1.441.674a26.622 26.622 0 01-5.444 3.175l-1.428.622-1.46.535c-.964.387-1.972.627-2.962.93a47.143 47.143 0 01-12.25 1.538l-3.083-.07c-1.025-.057-2.044-.203-3.064-.3-2.05-.152-4.049-.626-6.065-.962-2.003-.4-3.968-.972-5.938-1.488l-5.779-1.972.59-.313a885.702 885.702 0 01-2.429 7.502zm-.186.054a574.268 574.268 0 011.733-7.796l.102-.445.488.132 5.82 1.578 2.947.6c.984.185 1.948.47 2.945.574 1.983.249 3.949.638 5.944.704.994.06 1.987.146 2.98.187l2.98.014a53.057 53.057 0 0011.75-1.494c.948-.269 1.919-.475 2.84-.823l1.4-.477 1.365-.56a25.252 25.252 0 005.079-2.793l1.474-1.093-.033 1.767-.147 7.902-.224 7.902c-.059 2.634-.153 5.268-.177 7.902-.035 2.634-.05 5.268-.024 7.902l.002.285-.276.02a41.67 41.67 0 01-6.906-.18l-1.717-.185-1.705-.267c-1.144-.15-2.26-.43-3.39-.66a59.886 59.886 0 01-13.018-4.577l-3.071-1.581c-1.028-.52-1.991-1.154-2.982-1.738-2-1.14-3.862-2.492-5.74-3.81-.956-.636-1.837-1.375-2.73-2.094l-2.668-2.166c-1.742-1.57-3.447-3.199-5.04-4.73z" fill="#020202"/><path d="M472.62 226.513a39.267 39.267 0 015.571 4.617 67.444 67.444 0 014.896 5.34 89.902 89.902 0 018.2 11.943 117.965 117.965 0 0111.125 26.694 189.5 189.5 0 015.41 28.362q1.789 14.315 2.157 28.761a282.922 282.922 0 01-.629 28.859c-.063 1.223-.174 2.358-.125 3.507a21.582 21.582 0 00.36 3.423 21.276 21.276 0 002.383 6.415 20.595 20.595 0 004.35 5.241c.437.364.89.71 1.348 1.048l.712.471.357.238a2.937 2.937 0 01.303.207c.12.144-.017-.102.306.373.836.426-1.089 1.995-.88 1.526a1.224 1.224 0 01-.269-.013l-.118-.02-3.523-.978a60.735 60.735 0 00-13.984-2.063 45.614 45.614 0 00-13.985 1.702c-2.267.642-4.434 1.564-6.74 2.395-1.126.446-2.316.734-3.469 1.107-1.171.32-2.36.592-3.554.824a21.864 21.864 0 01-7.296.216 13.438 13.438 0 01-1.793-.41 10.455 10.455 0 01-1.695-.722 6.33 6.33 0 01-2.654-2.493.096.096 0 01.167-.096l.008.014a6.162 6.162 0 002.673 2.193 9.99 9.99 0 001.647.598 12.844 12.844 0 001.734.297 22.459 22.459 0 007.017-.557 48.647 48.647 0 003.425-.94c1.115-.412 2.256-.733 3.346-1.217 2.178-.88 4.396-1.945 6.744-2.657a47.302 47.302 0 0114.452-2.119 59.62 59.62 0 0114.478 1.93 52.9 52.9 0 011.76.478c.56.157 1.218.363 1.656.47h-.007a1.066 1.066 0 00-.158-.004c.245-.46-1.628 1.078-.83 1.47.305.443.132.177.228.295.041.032-.028-.018-.072-.043l-.392-.261-.788-.525a29.976 29.976 0 01-1.492-1.163 21.563 21.563 0 01-4.767-5.817 23.243 23.243 0 01-2.514-7.062 23.483 23.483 0 01-.343-3.736c-.036-1.252.103-2.513.18-3.685q1.23-14.317 1.383-28.703a200.49 200.49 0 00-1.72-28.693c-.353-2.371-.749-4.736-1.132-7.1-.49-2.347-.936-4.7-1.46-7.037-1.094-4.66-2.271-9.3-3.74-13.848-1.378-4.574-3.012-9.062-4.77-13.494a112.021 112.021 0 00-6.104-12.93 99.738 99.738 0 00-7.703-12.042 59.287 59.287 0 00-9.776-10.425l-.007-.004a.097.097 0 01.114-.157zM262.662 343.839a67.036 67.036 0 01-9.371-.157 75.234 75.234 0 01-9.302-1.322 63.468 63.468 0 01-9.076-2.535 52.525 52.525 0 01-8.536-4.07c-.67-.42-1.384-.78-2.018-1.247l-1.917-1.385c-1.278-.94-2.562-1.794-3.842-2.696l-7.672-5.36-15.283-10.795.138.08a6.616 6.616 0 00-1.18-.39 2.425 2.425 0 00-1.007-.052c-.213.083-.185.046-.254.289-.051.08-.002.3-.02.446l.095.575.002.007a1.058 1.058 0 01-.139.723 2.363 2.363 0 00-.204.537 2.96 2.96 0 00-.088.671 3.724 3.724 0 00.274 1.388l-.318 1.097c.118-.095.06-.05.077-.066l-.013.027a.526.526 0 00-.039.124 1.305 1.305 0 00-.005.43 3.966 3.966 0 00.35 1.126l.025.721c.032-.1-.01.068.001.138a1.985 1.985 0 00.026.31 3.223 3.223 0 00.198.697 6.582 6.582 0 00.787 1.414l.059 1.011a.567.567 0 00.049-.108c.002-.01.003-.009.003-.009a.155.155 0 01-.003.033 1.442 1.442 0 00.012.157 2.301 2.301 0 00.132.446 5.549 5.549 0 00.556.998 10.245 10.245 0 00.763.976c.274.316.623.65.93.973l3.807 3.913 7.613 7.826 15.22 15.663.023.024a.614.614 0 01.048.056 85.254 85.254 0 013.656 5.324 40.575 40.575 0 013.088 5.725 8.317 8.317 0 001.696 2.38 14.055 14.055 0 008.215 3.752 10.06 10.06 0 005.878-1.273l.665-.387.597-.486a40.01 40.01 0 001.22-1.016 10.33 10.33 0 011.286-1.001 10.61 10.61 0 011.38-.863 18.388 18.388 0 0112.51-1.752 18.635 18.635 0 00-12.231 2.235 10.087 10.087 0 00-1.297.88 9.77 9.77 0 00-1.196 1.006 45.69 45.69 0 01-1.198 1.075l-.623.545-.7.446a10.676 10.676 0 01-6.36 1.598 14.594 14.594 0 01-6.296-1.923 11.098 11.098 0 01-4.746-4.708 39.336 39.336 0 00-3.107-5.446 83.881 83.881 0 00-3.7-5.133l.071.08-15.381-15.556-7.688-7.784-3.844-3.892c-.321-.334-.637-.627-.964-.995a12.118 12.118 0 01-.928-1.168 6.831 6.831 0 01-.759-1.389 4.153 4.153 0 01-.239-.866 3.108 3.108 0 01-.028-.524 2.33 2.33 0 01.036-.306 1.43 1.43 0 01.042-.176 1.298 1.298 0 01.107-.267l.058 1.01a8.46 8.46 0 01-.998-1.837 5.095 5.095 0 01-.295-1.093 3.854 3.854 0 01-.044-.615 2.382 2.382 0 01.122-.78l.024.72a5.774 5.774 0 01-.495-1.692 3.143 3.143 0 01.04-1.038 2.365 2.365 0 01.2-.572 2.127 2.127 0 01.177-.29 1.59 1.59 0 01.328-.336l-.318 1.097a5.581 5.581 0 01-.39-2.11 4.804 4.804 0 01.153-1.1 3.803 3.803 0 01.475-1.113l-.137.73c-.048-.282-.098-.559-.134-.847a3.558 3.558 0 01.063-.985 2.07 2.07 0 011.604-1.663 4.104 4.104 0 011.845.053 8.285 8.285 0 011.546.529.733.733 0 01.125.071l.014.01 15.227 10.93 7.585 5.502c1.251.924 2.545 1.831 3.762 2.77l1.845 1.4c.612.473 1.293.833 1.936 1.256a51.352 51.352 0 008.25 4.166 74.742 74.742 0 0018.04 4.427 76.404 76.404 0 009.329.58z" fill="#020202"/><path d="M192.521 315.43a1.677 1.677 0 011.217-.38 2.844 2.844 0 011.25.357 4.053 4.053 0 011.013.767c.137.16.28.312.41.475.11.181.234.347.33.536-.716-.443-1.331-.936-2.016-1.281a4.625 4.625 0 00-1.045-.427 2.588 2.588 0 00-1.159-.048zM192.393 318.889c.033-.226.276-.369.49-.433a2.078 2.078 0 01.67-.02 3.813 3.813 0 011.221.39 6.275 6.275 0 011.966 1.531 10.63 10.63 0 01-1.136-.493l-1.077-.533a9.744 9.744 0 00-1.067-.475 1.881 1.881 0 00-.546-.128.589.589 0 00-.521.161zM192.454 321.674a1.533 1.533 0 011.658-.424 4.755 4.755 0 011.605.737 7.948 7.948 0 011.32 1.12 8.959 8.959 0 011.087 1.334c-.488-.314-.917-.68-1.372-1.01-.45-.335-.89-.675-1.348-.976a7.519 7.519 0 00-1.415-.792 2.197 2.197 0 00-.765-.179 1.122 1.122 0 00-.77.19zM193.567 325.116a.805.805 0 01.373-.662 1.226 1.226 0 01.802-.128 3.31 3.31 0 011.39.602 7.353 7.353 0 011.992 2.112c-.427-.248-.79-.556-1.178-.826-.381-.278-.749-.567-1.13-.82a4.943 4.943 0 00-1.163-.646.813.813 0 00-1.086.368z" fill="#020202"/><path d="M254.848 367.41a12.293 12.293 0 00-6.602 3.88c-6.48 6.378-16.606 1.113-18.53-3.444s-6.784-10.834-6.784-10.834a534.109 534.109 0 01-4.497-4.503c7.013-5.921 4.644-19.724 4.644-19.724-4.815-9.308-16.218-11.63-16.218-11.63 1.446 11.596-4.461 14.974-4.462 14.974-4.076-4.188-7.06-7.266-7.06-7.266-2.38-2.633-1.772-3.747-1.772-3.747-1.57-2.227-1.113-3.442-1.113-3.442-.962-2.127-.061-2.785-.061-2.785a3.829 3.829 0 01.128-3.46l-.067-.675-8.352 7.876a8.055 8.055 0 00-2.228 8.052c2.138 7.572 8.013 21.643 22.73 25.723 0 0 19.442 9.923 4.658 16.2l20.251 20.252s.844-4.22 4.641-5.157a16.734 16.734 0 008.893-5.83c.8-.989 1.666-2.142 2.595-3.488a29.525 29.525 0 014.96-5.59c1.666-1.44 3.522-2.693 4.698-2.414z" fill="#020202"/><path d="M250.719 343.175s-.092.399-.226 1.098" fill="none" stroke="#020202" stroke-linecap="round" stroke-linejoin="round" stroke-width="1.688"/><path d="M250.13 346.385c-.773 5.073-1.609 14.868 2.383 19.762" fill="none" stroke="#020202" stroke-linecap="round" stroke-linejoin="round" stroke-width="1.688" stroke-dasharray="2.1466 2.1466"/><path d="M253.247 366.937a7.627 7.627 0 00.873.71" fill="none" stroke="#020202" stroke-linecap="round" stroke-linejoin="round" stroke-width="1.688"/><path d="M253.005 359.307a6.708 6.708 0 001.926 1.417 2.34 2.34 0 001.086.167 4.411 4.411 0 001.173-.31 2.205 2.205 0 01-1.09.735 2.064 2.064 0 01-1.38-.07 2.879 2.879 0 01-1.08-.805 3.077 3.077 0 01-.635-1.134zM378.765 192.673a6.137 6.137 0 011.241-1.593 8.375 8.375 0 011.626-1.21 7.07 7.07 0 011.92-.72 4.246 4.246 0 012.044.08 18.793 18.793 0 00-1.823.643c-.568.264-1.125.534-1.67.842-1.1.609-2.15 1.304-3.338 1.958zM382.815 197.702a1.689 1.689 0 000-3.375 1.689 1.689 0 000 3.375zM396.924 194.597a3.853 3.853 0 001.25.65c.17-.012.156-.002.233-.14a.827.827 0 00.112-.22 1.104 1.104 0 00.093-.298 4.332 4.332 0 00.16-.681c.071-.23.084-.483.146-.728a9.75 9.75 0 01.402-1.52 5.083 5.083 0 01.352 1.566 4.578 4.578 0 01-.133 1.638 1.828 1.828 0 01-.165.425 1.484 1.484 0 01-.513.622 2.294 2.294 0 01-.314.128.955.955 0 01-.602-.075 1.606 1.606 0 01-.685-.611 2.346 2.346 0 01-.336-.756zM395.371 190.243a3.425 3.425 0 01-.388-1.548 2.43 2.43 0 01.525-1.678 1.607 1.607 0 01.93-.478 1.921 1.921 0 01.923.146 3.544 3.544 0 01.71.432 4.802 4.802 0 01.54.594 5.93 5.93 0 01-.758-.172c-.24-.044-.475-.097-.69-.125a1.004 1.004 0 00-.937.251 2.74 2.74 0 00-.495 1.114zM380.048 205.128a7.541 7.541 0 011.458-.722c.218-.082.418-.167.625-.26a4.12 4.12 0 00.684-.436 1.103 1.103 0 01-.16.981 1.77 1.77 0 01-.79.613 2.08 2.08 0 01-.926.136 1.667 1.667 0 01-.891-.312zM383.585 208.165a28.726 28.726 0 015.045-2.278.48.48 0 01.605.64 15.181 15.181 0 01-1.361 2.554 7.198 7.198 0 01-.93 1.143 2.592 2.592 0 01-.62.453.916.916 0 01-.39.096.485.485 0 01-.338-.178.47.47 0 00.578-.145 2.624 2.624 0 00.398-.53 13 13 0 00.641-1.218c.39-.837.774-1.695 1.13-2.544l.606.64a28.722 28.722 0 01-5.364 1.367zM466.792 385.443a1.453 1.453 0 000-2.904 1.453 1.453 0 000 2.904zM474.623 382.178a1.453 1.453 0 000-2.903 1.453 1.453 0 000 2.903zM482.423 378.393a1.453 1.453 0 000-2.904 1.453 1.453 0 000 2.904zM492.066 376.241a1.453 1.453 0 000-2.903 1.453 1.453 0 000 2.903zM500.792 376.239a1.453 1.453 0 000-2.903 1.453 1.453 0 000 2.903zM508.721 377.506a1.453 1.453 0 000-2.903 1.453 1.453 0 000 2.903z" fill="#020202"/></svg>