<svg data-name="Layer 1" xmlns="http://www.w3.org/2000/svg" viewBox="0 0 700 550"><path d="M347.001 190.674a13.411 13.411 0 00-.771-3.918 36.003 36.003 0 00-1.503-3.728 63.742 63.742 0 00-3.9-7.032.307.307 0 01.073-.41l.006-.004a20.47 20.47 0 005.147-6.232 54.34 54.34 0 003.507-7.406c1.993-5.117 3.446-10.419 5.045-15.72.212-.663.406-1.326.647-1.989a8.725 8.725 0 01.89-2.016 12.12 12.12 0 013.03-3.13 35.696 35.696 0 017.414-4c2.574-1.076 5.21-1.969 7.836-2.823l1.943-.65a2.583 2.583 0 001.387-.856 6.242 6.242 0 00.988-3.446l.001-.028a.745.745 0 01.569-.7l3.324-.803 1.663-.401.415-.1c.144-.036-.059.002-.085.043a.136.136 0 00-.058.051.03.03 0 00-.01.007 1.602 1.602 0 00.118-.49 16.368 16.368 0 00-.081-3.212c-.11-1.102-.27-2.22-.446-3.31l.767.657a19.292 19.292 0 01-6.392-1.084 9.39 9.39 0 01-2.903-1.72 7.96 7.96 0 01-2.02-2.763c-1.795-4.316-.275-8.797-.027-12.636a25.232 25.232 0 011.041-6.313 46.337 46.337 0 001.315-6.014 27.07 27.07 0 011.397-6.188 43.73 43.73 0 012.472-5.82l.458.755a19.889 19.889 0 01-2.435-.19 8.779 8.779 0 01-2.404-.69 3.932 3.932 0 01-1.928-1.79 3.568 3.568 0 01-.116-2.666.411.411 0 01.42-.278l.013.002a3.858 3.858 0 002.315-.577 9.945 9.945 0 001.957-1.666 32.935 32.935 0 013.866-3.791 13.829 13.829 0 014.975-2.247 29.284 29.284 0 015.346-.878 22.41 22.41 0 0110.659 1.52 18.816 18.816 0 014.517 3.016 9.847 9.847 0 011.776 2.103 5.039 5.039 0 01.57 1.292 2.81 2.81 0 01.053 1.494l-.11-.333a32.253 32.253 0 015.516 4.887 19.871 19.871 0 013.958 6.231 10.466 10.466 0 01.529 1.795c.058.307.15.609.18.92l.075.94a10.025 10.025 0 01-.063 1.883c-.059.626-.244 1.225-.362 1.839a26.893 26.893 0 01-3.066 6.727 72.26 72.26 0 01-9.06 11.567l-.635.665a5.44 5.44 0 00-.588.641 4.433 4.433 0 00-.656 1.464 20.944 20.944 0 00-.597 3.501 62.073 62.073 0 00-.231 7.228l-.604-.59 3.631-.023a.623.623 0 01.627.593v.034a20 20 0 001.393 6.276 16.542 16.542 0 001.44 2.869 18.888 18.888 0 002.038 2.48c3.056 3.158 6.505 6.01 9.853 8.961 1.68 1.475 3.356 2.96 4.996 4.503q1.23 1.157 2.411 2.387c.794.85 1.508 1.672 2.264 2.465.752.8 1.548 1.57 2.338 2.39a13.826 13.826 0 012.2 2.793 9.075 9.075 0 011.087 3.487 19.569 19.569 0 01.085 3.497 36.884 36.884 0 01-.333 3.41l-.364 1.75c-.162.565-.379 1.105-.567 1.658a11.628 11.628 0 01-.672 1.6c-.25.518-.48 1.05-.748 1.555-.577.982-1.09 2.013-1.73 2.948a91.642 91.642 0 01-8.209 10.737c-2.936 3.394-6.018 6.647-9.033 9.92-.747.82-1.494 1.64-2.198 2.473-.365.414-.643.834-.971 1.25a10.176 10.176 0 00-.74 1.32 4.066 4.066 0 00-.389 2.648 3.13 3.13 0 00.585 1.124 3.6 3.6 0 00.989.815l.038.02a.895.895 0 01.37 1.211l-.02.036-3.383 5.708a.89.89 0 01-.814.435l-.032-.002a7.47 7.47 0 00-4.376.955 3.376 3.376 0 00-1.28 1.552l-.17.5-.143.603c-.089.406-.173.817-.248 1.231-.592 3.323-.928 6.751-1.191 10.147l-.002.026a.79.79 0 01-.708.724c-4.776.482-9.562.88-14.361.94-4.796.136-9.595-.035-14.378-.353-4.784-.327-9.545-.935-14.271-1.717a112.952 112.952 0 01-14.024-3.19l-.011-.003a.365.365 0 01-.234-.221 33.628 33.628 0 01-1.535-5.924 45.173 45.173 0 01-.635-6.05 24.627 24.627 0 01.467-6.063c.373-1.991.893-3.945 1.445-5.886a.088.088 0 01.17.047c-.982 3.891-1.933 7.876-1.598 11.877a44.62 44.62 0 00.779 5.957 33.054 33.054 0 001.637 5.735l-.244-.224a112.652 112.652 0 0013.947 2.913c4.707.693 9.441 1.214 14.192 1.455 4.747.245 9.505.377 14.255.186 4.753-.11 9.488-.556 14.207-1.082l-.71.75c.232-3.461.528-6.891 1.104-10.348.073-.432.157-.865.248-1.299l.146-.652c.065-.232.155-.485.236-.725a5.076 5.076 0 011.926-2.373 7.476 7.476 0 012.702-1.073 10.836 10.836 0 012.82-.186l-.847.433 3.37-5.715.387 1.266a5.234 5.234 0 01-1.597-1.28 4.933 4.933 0 01-.95-1.82 5.831 5.831 0 01.48-3.851 11.899 11.899 0 01.891-1.598c.359-.464.705-.973 1.078-1.397.736-.874 1.49-1.704 2.244-2.537 3.027-3.3 6.08-6.537 8.977-9.903a98.778 98.778 0 008.062-10.507c.629-.905 1.115-1.878 1.676-2.815.258-.478.472-.973.71-1.458a10.36 10.36 0 00.633-1.479c.173-.502.378-1 .527-1.504l.327-1.525c.168-1.057.269-2.173.338-3.249a17.872 17.872 0 00-.055-3.187 7.35 7.35 0 00-.864-2.87c-.974-1.73-2.736-3.197-4.256-4.865-.78-.828-1.524-1.695-2.25-2.48q-1.13-1.193-2.334-2.338c-1.602-1.526-3.26-3.01-4.925-4.491-3.32-2.98-6.722-5.88-9.841-9.18a20.137 20.137 0 01-2.166-2.717 17.841 17.841 0 01-1.52-3.124 21.174 21.174 0 01-1.396-6.761l.628.627-3.631-.023h-.015a.594.594 0 01-.59-.59 63.12 63.12 0 01.333-7.375 21.911 21.911 0 01.683-3.686 5.316 5.316 0 01.877-1.827 6.473 6.473 0 01.653-.696l.636-.648a71.753 71.753 0 009.097-11.29 26.16 26.16 0 003.072-6.491c.118-.58.306-1.153.368-1.738a9.35 9.35 0 00.083-1.761l-.06-.884c-.027-.294-.115-.58-.168-.87a9.806 9.806 0 00-.494-1.709 19.258 19.258 0 00-3.807-6.053 31.701 31.701 0 00-5.379-4.816.294.294 0 01-.116-.305l.007-.03a3.368 3.368 0 00-.566-2.308 9.302 9.302 0 00-1.666-1.988 17.197 17.197 0 00-4.374-2.913 21.847 21.847 0 00-10.388-1.4 28.608 28.608 0 00-5.22.894 13.156 13.156 0 00-4.727 2.164 30.513 30.513 0 00-3.724 3.771 10.684 10.684 0 01-2.092 1.834 4.715 4.715 0 01-2.8.742l.433-.276a2.711 2.711 0 00.124 1.952 3.01 3.01 0 001.518 1.33 7.828 7.828 0 002.143.568 18.859 18.859 0 002.29.139.524.524 0 01.51.537.537.537 0 01-.053.218 42.98 42.98 0 00-2.308 5.7 25.824 25.824 0 00-1.245 5.982c-.42 4.254-2.188 8.197-2.138 12.178a24.669 24.669 0 01-.351 3.206c-.154 1.026-.295 2.038-.374 3.046a12.07 12.07 0 00.689 5.766 6.964 6.964 0 004.093 3.652 17.8 17.8 0 005.86.947.793.793 0 01.768.657c.194 1.145.336 2.275.447 3.428a17.508 17.508 0 01.053 3.571 2.72 2.72 0 01-.362 1.126 2.32 2.32 0 01-.134.18 1.843 1.843 0 01-.22.19 1.581 1.581 0 01-.478.193l-.411.096-1.644.386-3.288.772.57-.726a9.665 9.665 0 01-.324 2.233 5.826 5.826 0 01-1.013 2.128 3.456 3.456 0 01-.976.85 5.556 5.556 0 01-1.077.464l-1.986.65c-2.625.835-5.224 1.698-7.75 2.733a34.417 34.417 0 00-7.145 3.788 11.149 11.149 0 00-2.726 2.75 7.48 7.48 0 00-.798 1.749c-.24.63-.445 1.288-.664 1.935-1.67 5.233-3.224 10.567-5.322 15.706a55.238 55.238 0 01-3.69 7.478 21.155 21.155 0 01-5.505 6.297l.079-.413a64.204 64.204 0 013.742 7.2 36.323 36.323 0 011.415 3.805 13.64 13.64 0 01.674 4.003.089.089 0 01-.088.088.09.09 0 01-.088-.088z" fill="#020202"/><path d="M384.283 87.888a6.786 6.786 0 012.395-.979 8.654 8.654 0 012.613-.155 7.34 7.34 0 012.54.705 5.845 5.845 0 012.05 1.597 22.081 22.081 0 00-2.348-.808 13.23 13.23 0 00-2.347-.419 26.75 26.75 0 00-4.903.06zM373.128 89.056a4.369 4.369 0 011.43-.685 6.39 6.39 0 011.543-.251 5.618 5.618 0 011.574.175 3.22 3.22 0 011.42.76l-1.517.078c-.483.031-.96.045-1.442.066a14.812 14.812 0 01-3.008-.143zM389.47 94.568a1.622 1.622 0 000-3.242 1.622 1.622 0 000 3.242zM407.37 103.259a1.622 1.622 0 000-3.243 1.622 1.622 0 000 3.243zM376.76 95.476a1.622 1.622 0 000-3.243 1.622 1.622 0 000 3.243zM376.76 106.955a14 14 0 001.07.962 8.274 8.274 0 001.074.733 10.61 10.61 0 001.177.583c.419.186.863.337 1.348.576a3.483 3.483 0 01-4.232-1.34 2.496 2.496 0 01-.437-1.514zM405.84 110.225a46.302 46.302 0 01-3.769 2.551 45.465 45.465 0 01-3.974 2.175 23.664 23.664 0 01-8.626 2.51 23.411 23.411 0 008.378-2.99 44.743 44.743 0 003.779-2.374 45.387 45.387 0 003.523-2.705l.01-.008a.54.54 0 11.704.82zM380.78 92.947a5.291 5.291 0 01-.11 3.27 6 6 0 01-.784 1.515 12.508 12.508 0 00-.93 1.208c-.481.779-.594 1.678.11 2.157a2.8 2.8 0 001.312.46 10.335 10.335 0 001.57.08 5.148 5.148 0 01-1.578.45 2.986 2.986 0 01-1.74-.267 1.967 1.967 0 01-1.083-1.629 3.198 3.198 0 01.485-1.811 10.404 10.404 0 011.048-1.274 7.11 7.11 0 00.817-1.218 8.487 8.487 0 00.884-2.941z" fill="#020202"/><path d="M411.02 103.598c1.576-2.967.89-4.036-.796-7.279s-8.69 3.502-8.69 3.502V88.145c3.242-1.948 3.502-8.947 0-12.708s-21.272 1.297-21.272 1.297l-.004-.005c-8.294 0-6.479-4.663-6.479-4.663 3.888.256 5.448-4.671 9.6-7.007 4.142-2.336 14.781-3.887 21.004 0 6.232 3.896 5.192 6.743 5.192 6.743s10.12 6.752 10.12 15.046c0 5.08-4.372 11.519-8.24 16.227M379.967 126.91c.95 2.156 1.823 4.336 2.656 6.53q1.255 3.287 2.409 6.608l-1.38-.23q1.419-2.013 2.89-3.986 1.449-1.99 2.952-3.938a198.99 198.99 0 013.017-3.89c1.005-1.298 2.055-2.56 3.087-3.838l.03-.037a.522.522 0 01.265-.176c3.183-.9 6.371-1.782 9.602-2.534-3.042 1.322-6.128 2.515-9.22 3.689l.296-.213c-.936 1.349-1.852 2.712-2.814 4.042a198.976 198.976 0 01-2.884 3.99q-1.452 1.986-2.949 3.94-1.481 1.966-3.011 3.894l-.024.03a.779.779 0 01-1.355-.26 213.139 213.139 0 01-1.907-6.77 134.528 134.528 0 01-1.66-6.85zM378.523 132.193l-4.487 6.735 2.922-7.547a.887.887 0 111.654.64.926.926 0 01-.09.172z" fill="#020202"/><path d="M396.084 124.53c.391 1.433.695 2.878 1.008 4.32.294 1.446.574 2.894.823 4.345.512 2.902.935 5.814 1.31 8.733l-1.464-.53c1.014-.91 2.008-1.84 3.038-2.732 1.027-.894 2.048-1.796 3.1-2.664 2.089-1.75 4.215-3.463 6.455-5.051-1.76 2.108-3.633 4.093-5.543 6.038-.948.98-1.927 1.927-2.899 2.882-.97.956-1.976 1.874-2.962 2.813a.869.869 0 01-1.46-.516l-.002-.015a187.451 187.451 0 01-.963-8.777 148.786 148.786 0 01-.313-4.41c-.066-1.476-.14-2.95-.128-4.436zM347.078 191.243a92.81 92.81 0 011.147-13.017 59.818 59.818 0 013.273-12.755l5.689-11.74c1.868-3.913 3.75-7.826 5.759-11.69-1.333 4.147-2.864 8.217-4.5 12.246-.806 2.021-1.685 4.01-2.566 6.005-.871 1.984-1.959 3.965-2.755 5.853a78.835 78.835 0 00-3.553 12.334c-.914 4.221-1.713 8.48-2.494 12.764zM414.766 157.468l-4.837 7.135a265.874 265.874 0 00-4.713 7.164l-2.33 3.593c-.74 1.218-1.505 2.428-2.172 3.69a25.338 25.338 0 00-2.929 7.987.301.301 0 01-.311.253h-.018a13.815 13.815 0 00-5.488 1.001 10.081 10.081 0 00-2.327 1.388 7.896 7.896 0 00-1.728 1.976l.116-.496a25.42 25.42 0 002.57 7.245 32.652 32.652 0 001.988 3.324l1.13 1.577 1.253 1.481c.4.512.888.941 1.336 1.41a14.455 14.455 0 001.42 1.334l1.488 1.269 1.596 1.14a32.216 32.216 0 003.356 2.08c1.149.66 2.381 1.157 3.57 1.788l.008.005a.088.088 0 01-.065.162q-.966-.277-1.93-.584a19.905 19.905 0 01-1.921-.647 33.262 33.262 0 01-3.668-1.763 27.08 27.08 0 01-6.496-4.992 26.713 26.713 0 01-7.161-14.662l-.004-.033a.645.645 0 01.12-.463 9.328 9.328 0 012.213-2.23 10.344 10.344 0 012.765-1.328 16.008 16.008 0 015.913-.594l-.33.252a47.99 47.99 0 012.787-8.238 55.284 55.284 0 013.922-7.76 77.014 77.014 0 014.995-7.093 69.553 69.553 0 015.748-6.485.088.088 0 01.125 0 .09.09 0 01.01.114z" fill="#020202"/><path d="M411.555 204.872a33.042 33.042 0 01-4.908-3.26 34.737 34.737 0 01-4.33-4.034c-.673-.726-1.274-1.52-1.881-2.306a21.175 21.175 0 01-1.552-2.554 11.299 11.299 0 01-1.4-5.734 14.82 14.82 0 002.136 5.321 29.939 29.939 0 003.5 4.55c1.278 1.439 2.656 2.796 4.074 4.12 1.427 1.313 2.867 2.624 4.361 3.897zM396.084 217.14a68.6 68.6 0 01-3.65-5.92 63.967 63.967 0 01-3.058-6.275 32.976 32.976 0 01-2.988-13.778.882.882 0 011.763.063c0 .02-.002.038-.004.057l-.003.031a25.326 25.326 0 00.298 6.692 43.936 43.936 0 001.757 6.62 63.39 63.39 0 002.628 6.39 68.471 68.471 0 003.257 6.12zM341.09 175.829a6.914 6.914 0 012.226-.35 8.258 8.258 0 012.253.284 5.469 5.469 0 012.087 1.037 3.005 3.005 0 011.16 1.99 5.037 5.037 0 00-1.629-1.289 9.177 9.177 0 00-1.906-.697c-1.33-.38-2.728-.593-4.19-.975z" fill="#020202"/><path d="M387.202 192.908c-4.386.565-8.773.992-13.164 1.337-2.195.178-4.391.33-6.589.468l-.823.055a8.593 8.593 0 01-.902.026 16.418 16.418 0 01-1.732-.141c-1.127-.14-2.22-.376-3.306-.611-2.166-.505-4.292-1.096-6.424-1.646a50.575 50.575 0 00-6.43-1.371 13.634 13.634 0 00-1.615-.094 3.27 3.27 0 00-1.478.272.84.84 0 00-.24.19c-.073.095-.145.216-.217.323-.153.212-.26.464-.392.694a12.166 12.166 0 00-1.196 4.65 5.645 5.645 0 00.566 2.977 2.962 2.962 0 002.3 1.445 4.849 4.849 0 001.461.05 6.42 6.42 0 001.458-.39 5.649 5.649 0 011.835-.344 6.846 6.846 0 011.839.258 18.185 18.185 0 013.202 1.32 63.726 63.726 0 005.981 2.593c2.036.791 4.096 1.53 6.165 2.237a117.628 117.628 0 0012.605 3.605 41.53 41.53 0 0012.998 1.175h.006a.088.088 0 01.028.173 34.905 34.905 0 01-13.287.007 88.904 88.904 0 01-12.945-3.176 81.094 81.094 0 01-12.328-5.148 18.648 18.648 0 00-2.862-1.293 4.326 4.326 0 00-2.822-.072 7.641 7.641 0 01-1.752.37 6.025 6.025 0 01-1.822-.186 4.334 4.334 0 01-.87-.277 2.87 2.87 0 01-.84-.455c-.13-.097-.266-.185-.384-.292l-.318-.363a3.456 3.456 0 01-.506-.795 6.477 6.477 0 01-.464-3.472 14.382 14.382 0 01.782-3.297 15.896 15.896 0 01.674-1.552c.144-.246.258-.504.43-.739.083-.12.153-.238.248-.36a1.35 1.35 0 01.4-.321 4.033 4.033 0 011.734-.353 14.089 14.089 0 011.685.071c4.43.472 8.76 1.43 13.082 2.146 1.075.195 2.153.355 3.213.493a14.988 14.988 0 001.563.116c.266.01.477-.01.75-.016l.828-.038c2.205-.109 4.41-.205 6.618-.275 4.413-.15 8.83-.218 13.249-.15a.088.088 0 01.008.176zM378.316 149.499a1.622 1.622 0 000-3.243 1.622 1.622 0 000 3.243zM369.95 165.842a1.622 1.622 0 000-3.243 1.622 1.622 0 000 3.243zM364.892 180.434a1.622 1.622 0 000-3.243 1.622 1.622 0 000 3.243z" fill="#020202"/><path d="M360.822 193.319a1.498 1.498 0 011.543-1.34 1.554 1.554 0 011.542 1.868zM359.639 215.454a1.622 1.622 0 000-3.242 1.622 1.622 0 000 3.242zM345.957 225.846c-.24-.067-.421-.116-.536-.154zM346.83 226.095c-.346-.096-.643-.183-.873-.25zM360.626 265.464c.058.24.096.479.144.709a7.169 7.169 0 01-2.74-2.434 13.79 13.79 0 01-1.763-3.966 31.55 31.55 0 01-.834-4.34 45.99 45.99 0 01-.374-4.456c-.105-1.495-.115-2.999-.115-4.503-.019-1.504.03-3.018.058-4.532l.297-8.575a90.57 90.57 0 004.187.948c-.441 3.047-.767 6.103-.949 9.17a71.15 71.15 0 00.48 14.764c.105.613.191 1.227.316 1.84l.421 1.81z" fill="#020202"/><path d="M372.114 404.678c2.769 19.44 6.122 38.842 11.258 57.803-10.118 0-23.733-14.783-23.733-14.783l8.067-22.574s-19.353-68.486-22.755-104.281c-3.401-35.805 2.328-94.624 2.328-94.624a126.006 126.006 0 0013.136 2.664 95.575 95.575 0 00-.718 4.024c-4.293-.594-8.566-1.294-12.81-2.29a58.194 58.194 0 008.287 2.72 54.36 54.36 0 00-1.657 8.5 55.873 55.873 0 00-.374 9.226 30.403 30.403 0 001.706 9.189 12.712 12.712 0 002.452 4.081 6.793 6.793 0 003.517 2.06c.43 2.08.824 4.168 1.12 6.266.729 4.839 1.198 9.706 1.543 14.583.345 4.886.546 9.763.67 14.669l.442 14.726c.421 9.81.814 19.622 1.504 29.424 1.399 19.593 3.267 39.167 6.017 58.617z" fill="#020202"/><path d="M359.86 232.936c.162-1.36.345-2.712.555-4.053a156.645 156.645 0 0041.64.642q.546 2.486 1.025 4.982c-2.376 0-4.723.144-7.09.182l-3.535.058c-1.179.028-2.357.047-3.526.028a148.503 148.503 0 00-3.536-.01l-3.526-.095c-2.347-.01-4.694-.182-7.032-.278q-7.042-.431-14.027-1.322c-.316-.048-.632-.096-.948-.134z" fill="#020202"/><path d="M413.725 469.485c-10.894 5.835-30.353-7.004-30.353-7.004-2.233-9.562-4.024-19.21-5.596-28.887q-2.414-14.501-4.215-29.108-3.636-29.189-5.557-58.56c-.729-9.773-1.198-19.564-1.668-29.366l-.527-14.698c-.134-4.905-.402-9.84-.852-14.735-.44-4.896-1.006-9.792-1.82-14.66a105.48 105.48 0 00-1.457-7.253l-.949-3.573-.44-1.754c-.134-.593-.23-1.197-.345-1.791a70.595 70.595 0 01-.9-14.583c.105-3.056.325-6.113.66-9.15l.863.173a113.052 113.052 0 0014.15 1.763 124.03 124.03 0 0014.248-.03c2.376-.085 4.733-.41 7.09-.641 2.357-.297 4.695-.69 7.023-1.121h.01c9.983 51.24.134 105.01.134 105.01 7.78 37.75 10.5 129.968 10.5 129.968z" fill="#020202"/><path d="M384.67 463.255a23.696 23.696 0 01-4.378 9.827 18.555 18.555 0 01-3.96 3.834 15.565 15.565 0 01-5.04 2.332 31.718 31.718 0 00-4.979 1.54 9.361 9.361 0 00-2.197 1.273c-.606.52-1.164 1.261-.91 1.966a1.588 1.588 0 00.716.855 3.006 3.006 0 001.139.432c.88.155 1.745.331 2.621.46a49.586 49.586 0 005.264.54 35.75 35.75 0 005.221-.133 13.127 13.127 0 004.783-1.329 97.53 97.53 0 019.433-5.1 23.544 23.544 0 015.264-1.662 9.887 9.887 0 012.894-.06 12.784 12.784 0 011.364.272l.657.145a3.377 3.377 0 00.541.084 3.505 3.505 0 003.54-2.342 4.105 4.105 0 00.224-1.19l.09-1.331c.057-.888.116-1.775.195-2.663a.089.089 0 01.177 0c.08.888.138 1.775.196 2.663l.09 1.331a4.366 4.366 0 01-.115 1.44 4.568 4.568 0 01-4.452 3.47 4.828 4.828 0 01-.778-.073l-.651-.104a11.432 11.432 0 00-1.26-.173 8.342 8.342 0 00-2.402.2 25.249 25.249 0 00-4.814 1.712c-3.167 1.431-6.238 3.166-9.399 4.837a13.38 13.38 0 01-5.468 1.267 29.794 29.794 0 01-5.416-.3c-1.782-.219-3.534-.577-5.283-.912l-2.613-.521a4.014 4.014 0 01-1.335-.5 2.141 2.141 0 01-.963-1.13 1.973 1.973 0 01-.108-.78 2.615 2.615 0 01.207-.736 4.244 4.244 0 01.859-1.167 10.136 10.136 0 012.252-1.62 30.183 30.183 0 015.024-2.075 18.736 18.736 0 004.542-2.202 20.119 20.119 0 003.79-3.414 31.295 31.295 0 005.266-9.005l.002-.007a.088.088 0 01.17.05z" fill="#020202"/><path d="M362.47 450.638a23.697 23.697 0 01-4.378 9.827 18.544 18.544 0 01-3.96 3.834 15.553 15.553 0 01-5.04 2.333 31.675 31.675 0 00-4.978 1.54 9.344 9.344 0 00-2.197 1.272c-.607.52-1.165 1.261-.91 1.966a1.585 1.585 0 00.715.855 3.007 3.007 0 001.14.432c.878.155 1.744.332 2.62.46a49.46 49.46 0 005.265.54 35.685 35.685 0 005.22-.133 13.133 13.133 0 004.783-1.328 97.467 97.467 0 019.433-5.101 23.518 23.518 0 015.264-1.662 9.888 9.888 0 012.895-.06 13.03 13.03 0 011.364.272l.656.146a3.471 3.471 0 004.082-2.259 4.101 4.101 0 00.223-1.19l.09-1.331c.057-.888.117-1.775.196-2.663a.089.089 0 01.176 0c.08.888.138 1.775.196 2.663l.09 1.331a4.369 4.369 0 01-.115 1.44 4.568 4.568 0 01-4.451 3.47 4.834 4.834 0 01-.779-.073l-.651-.104a11.645 11.645 0 00-1.259-.173 8.326 8.326 0 00-2.402.201 25.246 25.246 0 00-4.815 1.712c-3.167 1.43-6.238 3.165-9.399 4.836a13.363 13.363 0 01-5.468 1.267 29.749 29.749 0 01-5.415-.299c-1.782-.219-3.534-.578-5.283-.913l-2.613-.52a4.014 4.014 0 01-1.335-.501 2.143 2.143 0 01-.964-1.13 1.972 1.972 0 01-.108-.78 2.598 2.598 0 01.207-.735 4.241 4.241 0 01.859-1.168 10.155 10.155 0 012.252-1.619 30.226 30.226 0 015.024-2.076 18.714 18.714 0 004.542-2.201 20.134 20.134 0 003.79-3.414 31.304 31.304 0 005.266-9.006l.003-.006a.088.088 0 01.168.048zM342.278 201.635a19.502 19.502 0 01-7.412-3.285 35.933 35.933 0 01-6.098-5.392 61.862 61.862 0 01-5.483-6.037 18.446 18.446 0 01-3.188-7.642 48.588 48.588 0 01-.72-8.16c-.049-2.716-.061-5.384-.146-8.08-.178-5.374-.332-10.755-.627-16.13l-.109-2.016-.052-1.008a3.476 3.476 0 00-.134-.81 2.86 2.86 0 00-4.018-1.645l-1.824.89a134.72 134.72 0 01-3.683 1.705 59.653 59.653 0 01-7.615 2.89 16.033 16.033 0 01-2.022.441 4.274 4.274 0 01-2.192-.126 1.613 1.613 0 01-.514-.389 4.272 4.272 0 00-.33-.331 12.96 12.96 0 00-.755-.632c-.522-.409-1.067-.8-1.615-1.185-2.202-1.535-4.475-2.984-6.737-4.449-2.268-1.457-4.565-2.868-6.786-4.422a23.177 23.177 0 01-1.633-1.238 3.256 3.256 0 01-.76-.84.74.74 0 01-.069-.219.48.48 0 01.109-.355.644.644 0 01.434-.194 3.03 3.03 0 01.562.017c1.364.107 2.7.32 4.037.524 2.672.43 5.32.945 7.966 1.508l-.361.793a33.868 33.868 0 01-5.207-4.476 5.347 5.347 0 01-1.024-1.587 1.397 1.397 0 01.147-1.332 1.783 1.783 0 011.083-.588 5.805 5.805 0 011.87.002 9.939 9.939 0 011.763.38 20.361 20.361 0 016.03 3.469 39.865 39.865 0 015.008 4.735l-1.165-.014a40.885 40.885 0 014.838-4.635 20.628 20.628 0 012.825-1.93 6.854 6.854 0 013.563-1.037l-.845 1.167a2.395 2.395 0 00-.277-.402 3.356 3.356 0 00-.419-.42 4.576 4.576 0 00-1.055-.658 7.198 7.198 0 00-2.575-.583c-.95-.07-1.74.09-2.983.052a5.29 5.29 0 01-3.242-1.345 7.327 7.327 0 01-1.855-2.823c-.053-.127-.095-.256-.14-.383l-.069-.205-.072-.3a2.22 2.22 0 01.157-1.255 2.33 2.33 0 011.936-1.374 2.414 2.414 0 011.183.212l.646.274q.654.26 1.336.47a23.198 23.198 0 002.782.674 44.314 44.314 0 005.819.42 13.497 13.497 0 016.115 1.519 12.091 12.091 0 012.56 1.91l.566.553.506.51c.331.349.685.657 1.037.97.362.306.717.586 1.128.9a5.401 5.401 0 011.224 1.214 14.153 14.153 0 011.41 2.851c1.448 3.75 2.677 7.51 4.003 11.252q1.978 5.602 4.084 11.167c2.841 7.404 5.776 14.781 8.866 22.095a.088.088 0 01-.16.073c-3.44-7.161-6.706-14.408-9.748-21.754a288.802 288.802 0 01-4.386-11.095c-1.397-3.715-2.713-7.48-4.196-11.11a12.925 12.925 0 00-1.254-2.458 3.672 3.672 0 00-.904-.847c-.384-.281-.816-.606-1.212-.943-.39-.343-.786-.689-1.14-1.057l-.544-.545-.503-.485a10.314 10.314 0 00-2.2-1.633 11.71 11.71 0 00-5.345-1.275 45.266 45.266 0 01-6.05-.422 24.964 24.964 0 01-3.004-.714q-.743-.226-1.474-.512a18.332 18.332 0 01-.726-.305.524.524 0 00-.264-.051.465.465 0 00-.377.265.384.384 0 00-.025.2.243.243 0 01.014.062l.049.149c.036.106.069.214.111.316a5.504 5.504 0 001.345 2.133 3.453 3.453 0 002.144.908c.74.05 1.932-.109 2.967-.02a8.93 8.93 0 013.188.771 6.274 6.274 0 011.45.932 5.072 5.072 0 01.622.64 3.603 3.603 0 01.53.846.826.826 0 01-.796 1.17l-.05-.003a5.35 5.35 0 00-2.658.804 19.094 19.094 0 00-2.606 1.744 42.386 42.386 0 00-4.697 4.377l-.009.009a.775.775 0 01-1.095.04l-.06-.063a38.497 38.497 0 00-4.716-4.628 19.793 19.793 0 00-5.549-3.368 8.755 8.755 0 00-1.523-.375 4.765 4.765 0 00-1.49-.06.876.876 0 00-.396.143c-.011 0-.052.072.014.278a4.445 4.445 0 00.78 1.248 32.129 32.129 0 004.91 4.446l.012.01a.444.444 0 01-.374.783 159.602 159.602 0 00-7.883-1.696 43.073 43.073 0 00-3.97-.571 2.755 2.755 0 00-.446-.024c-.065-.004-.081.036-.027-.022a.144.144 0 00.038-.12c.01.002-.006-.008.012.02a2.991 2.991 0 00.598.642c.495.427 1.034.827 1.576 1.217 4.381 3.109 9.057 5.81 13.541 8.83.559.383 1.115.772 1.658 1.187.272.208.541.421.803.655a4.917 4.917 0 01.387.38.877.877 0 00.288.214 3.533 3.533 0 001.796.035 15.304 15.304 0 001.91-.48 58.847 58.847 0 007.401-3.077q1.813-.873 3.601-1.802l1.784-.937a4.103 4.103 0 012.29-.487 4.204 4.204 0 013.618 2.77 4.922 4.922 0 01.236 1.17l.072 1.01.129 2.02c.316 5.387.628 10.78.688 16.181.167 5.404-.26 10.827.653 16.027a18.006 18.006 0 002.806 7.229 61.262 61.262 0 005.21 6.072 38.859 38.859 0 005.775 5.536 23.644 23.644 0 003.374 2.145 15.591 15.591 0 003.72 1.446l.01.002a.088.088 0 01-.035.172z" fill="#020202"/><path d="M291.051 135l6.199 4.511-6.772-3.594a.542.542 0 01.508-.958.626.626 0 01.065.04z" fill="#020202"/><path d="M178.728 179.808c-.134-2.99-.25-5.93-.336-8.843a443.557 443.557 0 01-.191-8.68c-.02-2.559-.02-5.117.019-7.675-2.769-.039-5.538-.067-8.307-.134a451.533 451.533 0 01-8.786-.288c-.086 2.76-.191 5.528-.201 8.288-.038 2.941.01 5.883.125 8.824l.364 8.824c.076 2.673.076 5.346.047 8.01 2.722.039 5.443.125 8.212.25l4.656.239 4.8.258zm47.034-40.317c-.144-2.098-.259-4.13-.269-6.161-.613-.01-1.216-.029-1.83-.048l-2.845-.086c-1.734-.038-3.469-.173-5.203-.307a70.302 70.302 0 00-.182 3.172c-.019 1.255-.029 2.5.039 3.746.124 2.213.411 4.426.479 6.64 1.523.01 3.037.086 4.598.191 1.86.144 3.776.345 5.893.575-.259-2.73-.508-5.28-.68-7.722zm0 0c-.144-2.098-.259-4.13-.269-6.161-.613-.01-1.216-.029-1.83-.048l-2.845-.086c-1.734-.038-3.469-.173-5.203-.307a70.302 70.302 0 00-.182 3.172c-.019 1.255-.029 2.5.039 3.746.124 2.213.411 4.426.479 6.64 1.523.01 3.037.086 4.598.191 1.86.144 3.776.345 5.893.575-.259-2.73-.508-5.28-.68-7.722zm-47.034 40.317c-.134-2.99-.25-5.93-.336-8.843a443.557 443.557 0 01-.191-8.68c-.02-2.559-.02-5.117.019-7.675-2.769-.039-5.538-.067-8.307-.134a451.533 451.533 0 01-8.786-.288c-.086 2.76-.191 5.528-.201 8.288-.038 2.941.01 5.883.125 8.824l.364 8.824c.076 2.673.076 5.346.047 8.01 2.722.039 5.443.125 8.212.25l4.656.239 4.8.258zm0 0c-.134-2.99-.25-5.93-.336-8.843a443.557 443.557 0 01-.191-8.68c-.02-2.559-.02-5.117.019-7.675-2.769-.039-5.538-.067-8.307-.134a451.533 451.533 0 01-8.786-.288c-.086 2.76-.191 5.528-.201 8.288-.038 2.941.01 5.883.125 8.824l.364 8.824c.076 2.673.076 5.346.047 8.01 2.722.039 5.443.125 8.212.25l4.656.239 4.8.258zm47.034-40.317c-.144-2.098-.259-4.13-.269-6.161-.613-.01-1.216-.029-1.83-.048l-2.845-.086c-1.734-.038-3.469-.173-5.203-.307a70.302 70.302 0 00-.182 3.172c-.019 1.255-.029 2.5.039 3.746.124 2.213.411 4.426.479 6.64 1.523.01 3.037.086 4.598.191 1.86.144 3.776.345 5.893.575-.259-2.73-.508-5.28-.68-7.722zm0 0c-.144-2.098-.259-4.13-.269-6.161-.613-.01-1.216-.029-1.83-.048l-2.845-.086c-1.734-.038-3.469-.173-5.203-.307a70.302 70.302 0 00-.182 3.172c-.019 1.255-.029 2.5.039 3.746.124 2.213.411 4.426.479 6.64 1.523.01 3.037.086 4.598.191 1.86.144 3.776.345 5.893.575-.259-2.73-.508-5.28-.68-7.722zm-47.034 40.317c-.134-2.99-.25-5.93-.336-8.843a443.557 443.557 0 01-.191-8.68c-.02-2.559-.02-5.117.019-7.675-2.769-.039-5.538-.067-8.307-.134a451.533 451.533 0 01-8.786-.288c-.086 2.76-.191 5.528-.201 8.288-.038 2.941.01 5.883.125 8.824l.364 8.824c.076 2.673.076 5.346.047 8.01 2.722.039 5.443.125 8.212.25l4.656.239 4.8.258zm0 0c-.134-2.99-.25-5.93-.336-8.843a443.557 443.557 0 01-.191-8.68c-.02-2.559-.02-5.117.019-7.675-2.769-.039-5.538-.067-8.307-.134a451.533 451.533 0 01-8.786-.288c-.086 2.76-.191 5.528-.201 8.288-.038 2.941.01 5.883.125 8.824l.364 8.824c.076 2.673.076 5.346.047 8.01 2.722.039 5.443.125 8.212.25l4.656.239 4.8.258zm47.034-40.317c-.144-2.098-.259-4.13-.269-6.161-.613-.01-1.216-.029-1.83-.048l-2.845-.086c-1.734-.038-3.469-.173-5.203-.307a70.302 70.302 0 00-.182 3.172c-.019 1.255-.029 2.5.039 3.746.124 2.213.411 4.426.479 6.64 1.523.01 3.037.086 4.598.191 1.86.144 3.776.345 5.893.575-.259-2.73-.508-5.28-.68-7.722zm0 0c-.144-2.098-.259-4.13-.269-6.161-.613-.01-1.216-.029-1.83-.048l-2.845-.086c-1.734-.038-3.469-.173-5.203-.307a70.302 70.302 0 00-.182 3.172c-.019 1.255-.029 2.5.039 3.746.124 2.213.411 4.426.479 6.64 1.523.01 3.037.086 4.598.191 1.86.144 3.776.345 5.893.575-.259-2.73-.508-5.28-.68-7.722zm-47.034 40.317c-.134-2.99-.25-5.93-.336-8.843a443.557 443.557 0 01-.191-8.68c-.02-2.559-.02-5.117.019-7.675-2.769-.039-5.538-.067-8.307-.134a451.533 451.533 0 01-8.786-.288c-.086 2.76-.191 5.528-.201 8.288-.038 2.941.01 5.883.125 8.824l.364 8.824c.076 2.673.076 5.346.047 8.01 2.722.039 5.443.125 8.212.25l4.656.239 4.8.258zm50.358-63.264h-72.682a9.564 9.564 0 00-9.562 9.562v64.71a9.564 9.564 0 009.562 9.563h58.723v-14.065c-2.329.373-4.657.574-6.985.719-2.395.153-4.79.19-7.186.21-2.395-.02-4.79-.067-7.186-.21a69.864 69.864 0 01-7.176-.748 67.227 67.227 0 017.176-.747c2.395-.154 4.79-.192 7.186-.211 2.395.019 4.79.057 7.186.21a66.171 66.171 0 016.985.72V179.3a64.451 64.451 0 01-7.138.748c-2.376.153-4.753.201-7.129.21-2.385-.019-4.761-.057-7.138-.21a66.6 66.6 0 01-7.128-.748 66.693 66.693 0 017.128-.738c2.377-.153 4.753-.2 7.138-.22 2.376.02 4.753.058 7.129.211a69.41 69.41 0 017.138.747v-6.534a69.013 69.013 0 01-6.985.719c-2.395.153-4.79.191-7.186.21-2.395-.019-4.79-.057-7.186-.21a69.735 69.735 0 01-7.176-.748 69.862 69.862 0 017.176-.747c2.395-.154 4.79-.192 7.186-.211 2.395.02 4.79.057 7.186.21a69.007 69.007 0 016.985.72v-.959a9.566 9.566 0 019.562-9.57h13.96v-36.074a9.558 9.558 0 00-9.563-9.562zm-56.299 15.032c4.053-.153 8.106-.19 12.159-.21 4.053.02 8.105.057 12.159.21 4.062.145 8.115.346 12.168.748-4.053.402-8.106.604-12.168.747-4.053.154-8.106.192-12.16.211-4.052-.019-8.105-.057-12.158-.21-4.052-.144-8.105-.355-12.158-.748 4.053-.393 8.106-.603 12.158-.748zm0 7.58c4.053-.154 8.106-.202 12.159-.221 4.053.02 8.105.057 12.159.21 4.062.145 8.115.355 12.168.748-4.053.402-8.106.613-12.168.747-4.053.154-8.106.201-12.16.211-4.052-.019-8.105-.057-12.158-.21-4.052-.144-8.105-.346-12.158-.748 4.053-.393 8.106-.603 12.158-.738zm7.416 23.511a552.011 552.011 0 01-.2 8.968q-.13 4.456-.327 8.815a564.994 564.994 0 01-.412 8.566l-4.484.268-4.627.24c-3.133.134-6.334.23-9.524.258l-.824.01-.01-.843c-.048-2.942-.038-5.883.048-8.825l.355-8.824c.115-2.941.163-5.883.124-8.824-.01-2.942-.124-5.883-.22-8.825l-.02-.507.547-.02c3.095-.134 6.19-.239 9.284-.296 3.095-.077 6.19-.106 9.284-.154l.958-.019.02.997c.057 2.998.047 6.007.028 9.015zm4.743-14.429c-4.053-.019-8.106-.057-12.159-.21-4.052-.135-8.105-.346-12.158-.738 4.053-.403 8.106-.613 12.158-.748 4.053-.153 8.106-.191 12.159-.21 4.053.01 8.105.057 12.159.21 4.062.135 8.115.345 12.168.748-4.053.392-8.106.603-12.168.747-4.054.144-8.106.192-12.16.201zm23.043 18.271c-2.377.154-4.753.192-7.129.211-2.385-.019-4.762-.067-7.138-.22a66.575 66.575 0 01-7.128-.738 66.6 66.6 0 017.128-.747c2.376-.153 4.753-.192 7.138-.21 2.376.009 4.752.057 7.129.21a64.335 64.335 0 017.138.747 69.279 69.279 0 01-7.138.747zm0-7.3c-2.377.153-4.753.191-7.129.21-2.385-.019-4.762-.057-7.138-.21a69.097 69.097 0 01-7.128-.748 69.223 69.223 0 017.128-.747c2.376-.153 4.753-.192 7.138-.21 2.376.018 4.752.057 7.129.21a66.776 66.776 0 017.138.747 64.449 64.449 0 01-7.138.748zm19.267-19.096a155.034 155.034 0 01-.68 7.244c-1.677.23-3.555.43-5.49.575a81.45 81.45 0 01-5.96.21l-.862-.009.01-.843c0-2.501.364-4.992.498-7.483.077-1.246.067-2.491.048-3.746-.038-1.246-.134-2.492-.22-3.737l-.029-.479.556-.048c1.897-.153 3.794-.297 5.69-.345l2.846-.086c.949-.02 1.898-.067 2.846-.067l1.016.01.01 1.015c.028 2.616-.106 5.25-.279 7.79zm-1.763-6.783c-.613-.01-1.216-.029-1.83-.048l-2.845-.086c-1.734-.038-3.469-.173-5.203-.307a70.302 70.302 0 00-.182 3.172c-.019 1.255-.029 2.5.039 3.746.124 2.213.411 4.426.479 6.64 1.523.01 3.037.086 4.598.191 1.86.144 3.776.345 5.893.575-.259-2.73-.508-5.28-.68-7.722-.144-2.098-.259-4.13-.269-6.161zm-47.1 37.635a443.557 443.557 0 01-.192-8.68c-.02-2.559-.02-5.117.019-7.675-2.769-.039-5.538-.067-8.307-.134a451.533 451.533 0 01-8.786-.288c-.086 2.76-.191 5.528-.201 8.288-.038 2.941.01 5.883.125 8.824l.364 8.824c.076 2.673.076 5.346.047 8.01 2.722.039 5.443.125 8.212.25l4.656.239 4.8.258-.402-9.073c-.134-2.99-.25-5.93-.336-8.843zm.335 8.843c-.134-2.99-.25-5.93-.336-8.843a443.557 443.557 0 01-.191-8.68c-.02-2.559-.02-5.117.019-7.675-2.769-.039-5.538-.067-8.307-.134a451.533 451.533 0 01-8.786-.288c-.086 2.76-.191 5.528-.201 8.288-.038 2.941.01 5.883.125 8.824l.364 8.824c.076 2.673.076 5.346.047 8.01 2.722.039 5.443.125 8.212.25l4.656.239 4.8.258zm47.034-40.317c-.144-2.099-.259-4.13-.269-6.161-.613-.01-1.216-.029-1.83-.048l-2.845-.086c-1.734-.038-3.469-.173-5.203-.307a70.302 70.302 0 00-.182 3.172c-.019 1.255-.029 2.5.039 3.746.124 2.213.411 4.426.479 6.64 1.523.01 3.037.086 4.598.191 1.86.144 3.776.345 5.893.575-.259-2.73-.508-5.28-.68-7.722zm0 0c-.144-2.099-.259-4.13-.269-6.161-.613-.01-1.216-.029-1.83-.048l-2.845-.086c-1.734-.038-3.469-.173-5.203-.307a70.302 70.302 0 00-.182 3.172c-.019 1.255-.029 2.5.039 3.746.124 2.213.411 4.426.479 6.64 1.523.01 3.037.086 4.598.191 1.86.144 3.776.345 5.893.575-.259-2.73-.508-5.28-.68-7.722zm-47.034 40.317c-.134-2.99-.25-5.93-.336-8.843a443.557 443.557 0 01-.191-8.68c-.02-2.559-.02-5.117.019-7.675-2.769-.039-5.538-.067-8.307-.134a451.533 451.533 0 01-8.786-.288c-.086 2.76-.191 5.528-.201 8.288-.038 2.941.01 5.883.125 8.824l.364 8.824c.076 2.673.076 5.346.047 8.01 2.722.039 5.443.125 8.212.25l4.656.239 4.8.258zm0 0c-.134-2.99-.25-5.93-.336-8.843a443.557 443.557 0 01-.191-8.68c-.02-2.559-.02-5.117.019-7.675-2.769-.039-5.538-.067-8.307-.134a451.533 451.533 0 01-8.786-.288c-.086 2.76-.191 5.528-.201 8.288-.038 2.941.01 5.883.125 8.824l.364 8.824c.076 2.673.076 5.346.047 8.01 2.722.039 5.443.125 8.212.25l4.656.239 4.8.258zm47.034-40.317c-.144-2.099-.259-4.13-.269-6.161-.613-.01-1.216-.029-1.83-.048l-2.845-.086c-1.734-.038-3.469-.173-5.203-.307a70.302 70.302 0 00-.182 3.172c-.019 1.255-.029 2.5.039 3.746.124 2.213.411 4.426.479 6.64 1.523.01 3.037.086 4.598.191 1.86.144 3.776.345 5.893.575-.259-2.73-.508-5.28-.68-7.722zm0 0c-.144-2.099-.259-4.13-.269-6.161-.613-.01-1.216-.029-1.83-.048l-2.845-.086c-1.734-.038-3.469-.173-5.203-.307a70.302 70.302 0 00-.182 3.172c-.019 1.255-.029 2.5.039 3.746.124 2.213.411 4.426.479 6.64 1.523.01 3.037.086 4.598.191 1.86.144 3.776.345 5.893.575-.259-2.73-.508-5.28-.68-7.722zm-47.034 40.317c-.134-2.99-.25-5.93-.336-8.843a443.557 443.557 0 01-.191-8.68c-.02-2.559-.02-5.117.019-7.675-2.769-.039-5.538-.067-8.307-.134a451.533 451.533 0 01-8.786-.288c-.086 2.76-.191 5.528-.201 8.288-.038 2.941.01 5.883.125 8.824l.364 8.824c.076 2.673.076 5.346.047 8.01 2.722.039 5.443.125 8.212.25l4.656.239 4.8.258zm47.034-40.317c-.144-2.099-.259-4.13-.269-6.161-.613-.01-1.216-.029-1.83-.048l-2.845-.086c-1.734-.038-3.469-.173-5.203-.307a70.302 70.302 0 00-.182 3.172c-.019 1.255-.029 2.5.039 3.746.124 2.213.411 4.426.479 6.64 1.523.01 3.037.086 4.598.191 1.86.144 3.776.345 5.893.575-.259-2.73-.508-5.28-.68-7.722zm0 0c-.144-2.099-.259-4.13-.269-6.161-.613-.01-1.216-.029-1.83-.048l-2.845-.086c-1.734-.038-3.469-.173-5.203-.307a70.302 70.302 0 00-.182 3.172c-.019 1.255-.029 2.5.039 3.746.124 2.213.411 4.426.479 6.64 1.523.01 3.037.086 4.598.191 1.86.144 3.776.345 5.893.575-.259-2.73-.508-5.28-.68-7.722zM544.654 156.161c-7.527.05-15.054.048-22.58.143l-22.582.322c-7.527.137-15.054.156-22.58.21-3.784.026-7.484.055-11.336-.025a11.062 11.062 0 01-9.442-6.582 10.368 10.368 0 01-.806-2.9 11.723 11.723 0 01-.106-1.501l.012-1.416.062-5.645.126-11.29.129-11.291.057-11.29c.057-7.528.024-15.055-.005-22.582l-.02-5.645a14.516 14.516 0 01.193-2.88 11.277 11.277 0 01.954-2.754 10.693 10.693 0 013.914-4.268 10.83 10.83 0 015.588-1.63c15.054-.111 30.108-.301 45.162-.347l22.58-.09c3.788-.008 7.474-.047 11.345.025a11.23 11.23 0 019.596 6.666 10.978 10.978 0 01.836 2.944 11.926 11.926 0 01.12 1.528l.002 1.417-.008 5.645c-.004 3.764-.006 7.527-.053 11.291-.074 7.527-.12 15.054-.259 22.58l-.335 22.582-.06 5.645a14.215 14.215 0 01-.229 2.843 11.083 11.083 0 01-.974 2.688 10.483 10.483 0 01-9.3 5.607zm0-.176a10.269 10.269 0 005.3-1.53 10.152 10.152 0 003.73-4.042 10.762 10.762 0 00.914-2.615 13.849 13.849 0 00.19-2.775l-.06-5.645-.335-22.581c-.14-7.527-.185-15.054-.26-22.581-.046-3.764-.048-7.527-.052-11.29l-.008-5.646-.006-1.405a10.123 10.123 0 00-.107-1.283 9.15 9.15 0 00-.707-2.464 9.389 9.389 0 00-8.043-5.554c-.412-.03-.88-.031-1.356-.027l-1.412.003-2.822.004-5.645-.016-22.581-.09c-15.055-.046-30.108-.236-45.162-.346a9.928 9.928 0 00-8.828 5.281 10.535 10.535 0 00-.935 2.547 13.494 13.494 0 00-.227 2.74l-.02 5.644c-.028 7.527-.062 15.054-.004 22.581l.057 11.29.129 11.291.125 11.291.062 5.645.02 1.407a10.325 10.325 0 00.121 1.31 9.815 9.815 0 00.737 2.508 9.558 9.558 0 008.197 5.637l11.245.035c7.527.056 15.054.074 22.581.211l22.581.323c7.527.095 15.054.091 22.581.142z"/><path d="M583.727 226.26c-7.527.05-15.054.047-22.581.142l-22.581.323c-7.527.137-15.054.155-22.581.21-3.783.026-7.483.054-11.335-.026a11.06 11.06 0 01-9.442-6.582 10.375 10.375 0 01-.806-2.9 11.723 11.723 0 01-.106-1.5l.012-1.416.062-5.646.126-11.29.128-11.291.058-11.29c.057-7.528.024-15.054-.005-22.581l-.02-5.646a14.511 14.511 0 01.193-2.88 11.273 11.273 0 01.954-2.754 10.698 10.698 0 013.913-4.268 10.829 10.829 0 015.588-1.63c15.054-.111 30.108-.301 45.162-.347l22.581-.09c3.788-.008 7.474-.046 11.344.026a11.229 11.229 0 019.597 6.665 10.985 10.985 0 01.836 2.945 11.952 11.952 0 01.12 1.527l.002 1.417-.009 5.646c-.003 3.763-.005 7.527-.052 11.29-.075 7.527-.12 15.054-.26 22.581l-.335 22.581-.059 5.645a14.23 14.23 0 01-.229 2.843 11.077 11.077 0 01-.975 2.688 10.48 10.48 0 01-9.3 5.608zm0-.177a10.265 10.265 0 005.3-1.53 10.16 10.16 0 003.729-4.042 10.746 10.746 0 00.914-2.614 13.843 13.843 0 00.19-2.775l-.06-5.646-.335-22.581c-.139-7.527-.184-15.054-.259-22.58-.047-3.764-.048-7.528-.052-11.291l-.009-5.646-.005-1.405a10.123 10.123 0 00-.107-1.283 9.168 9.168 0 00-.707-2.463 9.39 9.39 0 00-8.043-5.554 17.29 17.29 0 00-1.356-.027l-1.412.002-2.822.004-5.646-.016-22.58-.09c-15.055-.045-30.109-.235-45.163-.346a9.928 9.928 0 00-8.827 5.281 10.555 10.555 0 00-.936 2.548 13.494 13.494 0 00-.226 2.738l-.02 5.646c-.029 7.527-.062 15.053-.004 22.58l.057 11.291.128 11.29.126 11.291.062 5.646.02 1.406a10.275 10.275 0 00.121 1.31 9.79 9.79 0 00.737 2.508 9.557 9.557 0 008.197 5.637l11.245.036c7.527.055 15.054.073 22.581.21l22.581.323c7.527.095 15.054.092 22.58.142z"/><path d="M505.304 135.717a10.319 10.319 0 00-10.318 10.319v10.037h49.668a10.319 10.319 0 0010.319-10.319v-10.037zM187.989 295.941c-13.952-.028-27.904.255-41.856.465-6.976.137-13.952.155-20.928.21-3.507.027-6.931.052-10.508-.023a10.306 10.306 0 01-8.796-6.135 9.634 9.634 0 01-.75-2.702 10.926 10.926 0 01-.097-1.398l.012-1.313.062-5.232.126-10.464.128-10.464.057-10.463c.058-6.976.025-13.952-.004-20.928l-.02-5.232a13.504 13.504 0 01.177-2.675 10.493 10.493 0 01.885-2.56 9.947 9.947 0 013.636-3.97 10.07 10.07 0 015.195-1.519q20.928-.254 41.855-.346l20.928-.09c3.512-.01 6.923-.045 10.518.023a10.474 10.474 0 018.95 6.218 10.242 10.242 0 01.78 2.747 11.123 11.123 0 01.112 1.424l.001 1.314-.008 5.232c-.004 3.488-.006 6.976-.053 10.464-.074 6.976-.12 13.952-.259 20.928l-.335 20.927-.06 5.233a13.21 13.21 0 01-.213 2.637 10.268 10.268 0 01-.906 2.493 9.75 9.75 0 01-8.63 5.199zm0-.176a9.509 9.509 0 008.358-5.163 9.955 9.955 0 00.845-2.42 12.806 12.806 0 00.175-2.57l-.06-5.232-.335-20.928c-.14-6.976-.185-13.952-.26-20.928-.046-3.488-.048-6.976-.052-10.464l-.008-5.231-.006-1.302a9.317 9.317 0 00-.098-1.18 8.423 8.423 0 00-.65-2.267 8.635 8.635 0 00-7.398-5.106c-.378-.027-.81-.029-1.253-.025l-1.308.003-2.616.004-5.232-.016-20.928-.09q-20.927-.077-41.855-.346a9.197 9.197 0 00-8.157 4.872 9.76 9.76 0 00-.866 2.353 12.463 12.463 0 00-.212 2.533l-.018 5.232c-.03 6.976-.063 13.952-.005 20.928l.057 10.464.128 10.464.126 10.464.062 5.231.019 1.304a9.572 9.572 0 00.113 1.206 9.077 9.077 0 00.68 2.31 8.802 8.802 0 007.552 5.19l10.418.034c6.976.055 13.952.074 20.928.21 13.952.21 27.904.493 41.856.466z"/><path d="M215.328 172.737l-.201.03v-.058l.2.028zM215.328 186.285l-.201.029v-.058l.2.029z" fill="#fff"/><path d="M228.086 175.785c4.054-.364 8.107-.555 12.161-.685 4.054-.14 8.108-.178 12.161-.195 4.054.015 8.108.052 12.162.192 4.053.13 8.107.321 12.16.688-4.053.367-8.107.559-12.16.688-4.054.14-8.108.178-12.162.193-4.053-.017-8.107-.055-12.16-.196-4.055-.13-8.108-.32-12.162-.685zM228.086 183.357c4.054-.365 8.107-.556 12.161-.685 4.054-.14 8.108-.178 12.161-.196 4.054.015 8.108.053 12.162.193 4.053.13 8.107.321 12.16.688-4.053.367-8.107.559-12.16.688-4.054.14-8.108.178-12.162.193-4.053-.018-8.107-.055-12.16-.196-4.055-.13-8.108-.32-12.162-.685zM228.086 190.746c4.054-.365 8.107-.556 12.161-.685 4.054-.14 8.108-.178 12.161-.196 4.054.016 8.108.053 12.162.193 4.053.13 8.107.32 12.16.688-4.053.367-8.107.559-12.16.688-4.054.14-8.108.178-12.162.193-4.053-.018-8.107-.055-12.16-.195-4.055-.13-8.108-.32-12.162-.686zM294.034 190.808a96.532 96.532 0 01-5.51.529c-1.941.125-3.947.21-5.938.195l-.788-.006.002-.78c.006-2.493.335-4.987.463-7.48.068-1.247.06-2.494.04-3.74-.03-1.247-.124-2.494-.2-3.74l-.027-.445.51-.038c1.898-.143 3.795-.278 5.693-.323l2.846-.077c.95-.02 1.898-.064 2.847-.057l.93.007.01.932c.026 2.606-.097 5.228-.252 7.766-.16 2.54-.389 4.987-.626 7.257zm-.124-.124c-.238-2.717-.467-5.257-.627-7.703-.154-2.45-.278-4.815-.25-7.196l.939.94c-.949.007-1.898-.037-2.847-.058l-2.846-.077c-1.898-.045-3.795-.18-5.693-.322l.483-.483c-.076 1.247-.17 2.494-.2 3.74-.02 1.247-.028 2.494.04 3.74.128 2.494.457 4.988.463 7.481l-.786-.786c1.804-.014 3.594.07 5.448.195 1.858.132 3.779.314 5.876.529zM246.724 232.475l-4.498.244-4.635.217c-3.129.124-6.32.218-9.505.241l-.755.006-.01-.771c-.038-2.942-.037-5.884.041-8.826l.33-8.825q.159-4.413.118-8.826c-.01-2.942-.116-5.884-.207-8.826l-.014-.464.497-.019c3.096-.118 6.192-.217 9.287-.276l9.288-.138.882-.013.015.91c.05 2.995.047 6.001.022 9.001-.036 2.998-.091 5.992-.19 8.953-.151 5.938-.398 11.784-.666 17.412zm-.125-.125c-.269-6.14-.515-12.062-.666-17.89-.1-2.924-.154-5.815-.19-8.7-.025-2.884-.028-5.762.021-8.65l.897.896-9.288-.139a480.99 480.99 0 01-9.287-.276l.482-.482c-.09 2.942-.196 5.884-.206 8.826q-.045 4.413.117 8.826l.33 8.825c.079 2.942.08 5.884.042 8.826l-.765-.765c3.006.024 6.007.118 9.07.242zM254.05 201.924c3.305-.365 6.61-.556 9.914-.686 3.304-.14 6.609-.178 9.913-.195 3.305.015 6.61.052 9.914.193 3.304.129 6.608.32 9.913.688-3.305.366-6.61.558-9.913.687-3.305.14-6.61.178-9.914.193-3.304-.017-6.609-.055-9.913-.195-3.305-.13-6.61-.32-9.914-.685zM254.05 209.219c3.305-.365 6.61-.556 9.914-.685 3.304-.14 6.609-.179 9.913-.196 3.305.015 6.61.053 9.914.193 3.304.13 6.608.32 9.913.688-3.305.367-6.61.558-9.913.688-3.305.14-6.61.177-9.914.193-3.304-.018-6.609-.055-9.913-.196-3.305-.13-6.61-.32-9.914-.685zM254.05 216.198c3.321-.365 6.642-.556 9.964-.686 3.32-.14 6.642-.178 9.963-.195 3.321.015 6.642.052 9.963.192 3.321.13 6.642.321 9.963.689-3.32.366-6.642.558-9.963.687-3.321.14-6.642.178-9.963.193-3.321-.017-6.642-.055-9.963-.196-3.322-.13-6.643-.32-9.964-.684zM254.05 222.765c3.305-.365 6.61-.555 9.914-.685 3.304-.14 6.609-.178 9.913-.196 3.305.016 6.61.053 9.914.194 3.304.129 6.608.32 9.913.687-3.305.368-6.61.559-9.913.688-3.305.14-6.61.178-9.914.193-3.304-.017-6.609-.055-9.913-.195-3.305-.13-6.61-.32-9.914-.686zM254.05 229.744c3.321-.365 6.642-.555 9.964-.685 3.32-.14 6.642-.178 9.963-.196 3.321.016 6.642.053 9.963.193 3.321.13 6.642.321 9.963.688-3.32.367-6.642.559-9.963.688-3.321.14-6.642.177-9.963.193-3.321-.017-6.642-.055-9.963-.196-3.322-.13-6.643-.32-9.964-.685z"/><path d="M297.37 246.103c-13.952-.028-27.904.255-41.856.465-6.976.137-13.952.155-20.928.21-3.508.027-6.932.052-10.508-.024a10.306 10.306 0 01-8.797-6.134 9.625 9.625 0 01-.75-2.702 10.922 10.922 0 01-.097-1.398l.013-1.313.062-5.232.125-10.463.129-10.464.057-10.464c.058-6.976.024-13.952-.005-20.928l-.019-5.232a13.484 13.484 0 01.177-2.675 10.487 10.487 0 01.885-2.56 9.942 9.942 0 013.635-3.969 10.07 10.07 0 015.195-1.52q20.928-.254 41.856-.346l20.928-.09c3.511-.01 6.922-.044 10.517.023a10.474 10.474 0 018.95 6.218 10.23 10.23 0 01.78 2.746 11.129 11.129 0 01.113 1.425v1.314l-.008 5.232c-.003 3.488-.005 6.976-.052 10.464-.075 6.976-.12 13.952-.26 20.928l-.335 20.928-.059 5.231a13.188 13.188 0 01-.214 2.638 10.272 10.272 0 01-.905 2.493 9.749 9.749 0 01-8.63 5.199zm0-.177a9.507 9.507 0 008.357-5.162 9.962 9.962 0 00.846-2.42 12.82 12.82 0 00.174-2.57l-.06-5.232-.335-20.928c-.139-6.976-.184-13.952-.259-20.928-.047-3.488-.048-6.976-.052-10.464l-.009-5.232-.005-1.302a9.289 9.289 0 00-.099-1.18 8.425 8.425 0 00-.65-2.265 8.634 8.634 0 00-7.397-5.107c-.378-.027-.81-.03-1.253-.025l-1.308.002-2.616.005-5.232-.016-20.928-.09q-20.928-.078-41.856-.346a9.196 9.196 0 00-8.156 4.872 9.744 9.744 0 00-.867 2.353 12.48 12.48 0 00-.21 2.533l-.02 5.232c-.03 6.976-.062 13.952-.005 20.928l.057 10.464.129 10.464.126 10.463.062 5.232.018 1.304a9.478 9.478 0 00.114 1.206 9.07 9.07 0 00.68 2.31 8.803 8.803 0 007.552 5.19l10.418.034c6.976.055 13.952.073 20.928.21 13.952.21 27.904.493 41.855.465zM470.007 124.756c5.906-.484 11.812-.738 17.718-.91 5.906-.188 11.812-.237 17.718-.26 5.906.02 11.812.07 17.717.256 5.906.172 11.812.426 17.718.914-5.906.488-11.812.743-17.718.915-5.905.186-11.811.236-17.717.256-5.906-.023-11.812-.073-17.718-.26-5.906-.172-11.812-.425-17.718-.91z"/><path d="M475.867 76.588c.484 4.6.738 9.2.91 13.8.188 4.6.237 9.2.26 13.8-.02 4.6-.07 9.2-.256 13.8-.172 4.6-.426 9.2-.914 13.8-.488-4.6-.743-9.2-.915-13.8-.186-4.6-.236-9.2-.256-13.8.023-4.6.073-9.2.26-13.8.172-4.6.426-9.2.91-13.8zM494.985 125.094a296.95 296.95 0 01-6.361.316c-2.174.104-4.402.143-6.617.162l-.51.005-.01-.524c-.06-3.578.151-7.156.28-10.733.05-1.79.082-3.578.046-5.367-.006-1.789-.067-3.578-.127-5.366l-.01-.308.33-.013q3.235-.133 6.47-.197l6.468-.094.605-.009.006.62c.015 1.824.025 3.658-.01 5.482a248.254 248.254 0 01-.13 5.447c-.093 3.616-.264 7.161-.43 10.58zm-.083-.083c-.166-3.737-.337-7.347-.43-10.887-.059-1.775-.111-3.535-.13-5.285a182.906 182.906 0 01-.01-5.252l.612.61-6.469-.093q-3.234-.066-6.468-.197l.32-.32c-.06 1.788-.12 3.577-.127 5.366-.035 1.789-.004 3.578.047 5.367.128 3.577.34 7.155.28 10.733l-.52-.52c2.097.02 4.18.059 6.32.162 2.133.085 4.306.192 6.575.316z"/><path d="M507.895 125.094c-2.074.089-4.203.2-6.383.265-2.172.079-4.382.152-6.595.163l-.464.002-.005-.471c-.028-2.662-.08-5.325-.043-7.987.03-2.662.14-5.324.212-7.987q.143-3.992.115-7.986-.014-3.994-.136-7.987l-.009-.31.33-.01q6.468-.201 12.937-.249l.563-.005.006.574c.028 2.695.06 5.402.046 8.105-.016 2.7-.04 5.403-.109 8.079-.067 2.673-.105 5.355-.2 7.984zm-.083-.083l-.264-8.153c-.096-2.696-.133-5.337-.2-7.988-.07-2.65-.094-5.27-.11-7.894-.014-2.622.018-5.24.046-7.87l.57.57q-6.469-.054-12.937-.249l.32-.32q-.114 3.993-.135 7.986-.025 3.993.115 7.986c.072 2.663.182 5.325.212 7.987.036 2.662-.015 5.325-.043 7.987l-.469-.47c2.1.01 4.202.085 6.342.163z"/><path d="M520.832 125.094l-6.39.25c-2.174.056-4.375.158-6.588.164l-.453.001-.002-.456c-.019-3.055-.095-6.11-.066-9.164.016-3.054.125-6.108.202-9.163.1-3.054.127-6.109.137-9.163l-.038-4.582-.1-4.581-.008-.312.328-.009a651.89 651.89 0 0112.936-.235l.553-.004.004.56c.02 3.085.074 6.186.057 9.28.004 3.097-.042 6.188-.096 9.26-.072 3.065-.107 6.142-.204 9.163zm-.083-.083l-.272-9.335-.204-9.164c-.054-3.036-.1-6.055-.097-9.066-.016-3.014.037-6.023.058-9.046l.556.556c-4.312-.031-8.624-.12-12.936-.236l.32-.32-.101 4.581-.037 4.582c.01 3.054.036 6.109.137 9.163.077 3.055.185 6.11.201 9.163.03 3.055-.047 6.11-.065 9.164l-.455-.456c2.1.006 4.21.108 6.348.165z"/><path d="M533.768 125.094c-2.073.089-4.203.2-6.382.265-2.173.079-4.382.152-6.596.163l-.464.002-.005-.471c-.028-2.662-.079-5.325-.043-7.987.03-2.662.141-5.324.212-7.987q.143-3.992.116-7.986-.015-3.994-.136-7.987l-.01-.31.33-.01q6.469-.201 12.937-.249l.563-.005.006.574c.029 2.695.061 5.402.046 8.105-.016 2.7-.04 5.403-.108 8.079-.068 2.673-.106 5.355-.2 7.984zm-.082-.083l-.265-8.153c-.095-2.696-.133-5.337-.2-7.988-.07-2.65-.093-5.27-.11-7.894-.014-2.622.019-5.24.047-7.87l.57.57q-6.47-.054-12.938-.249l.321-.32a315.81 315.81 0 00-.136 7.986q-.025 3.993.116 7.986c.07 2.663.182 5.325.211 7.987.037 2.662-.014 5.325-.042 7.987l-.47-.47c2.1.01 4.202.085 6.342.163zM520.927 203.053c1.84-5.227 3.808-10.402 5.851-15.545q1.525-3.86 3.11-7.695l.197-.48a3.523 3.523 0 01.33-.6 2.862 2.862 0 011.022-.931 3.18 3.18 0 012.672-.182 3.234 3.234 0 011.142.78 4.102 4.102 0 01.657 1.07l.887 1.877c2.331 5.02 4.546 10.096 6.932 15.088l.905 1.868a4.682 4.682 0 00.472.858 1.823 1.823 0 00.706.569 2.085 2.085 0 001.775.014 1.857 1.857 0 00.71-.554 4.3 4.3 0 00.478-.846c1.237-2.474 2.408-4.983 3.614-7.473q3.55-7.506 7.246-14.939l1.849-3.715.924-1.858.462-.93c.09-.17.125-.273.26-.499a3.15 3.15 0 01.416-.584 3.258 3.258 0 015.062.304 4.217 4.217 0 01.343.598l.217.47.436.942.867 1.886c4.553 10.086 9.002 20.22 13.128 30.504l-.16.074c-5.142-9.815-9.961-19.779-14.676-29.79l-.87-1.884-.434-.943-.216-.471a2.21 2.21 0 00-.17-.301 1.432 1.432 0 00-2.17-.15 2.726 2.726 0 00-.417.671l-.482.919-.964 1.837-1.929 3.675q-3.846 7.355-7.863 14.623c-1.312 2.436-2.66 4.854-3.94 7.306a3.086 3.086 0 01-1.491 1.635 2.63 2.63 0 01-2.24-.038 3.108 3.108 0 01-1.432-1.67l-.929-1.855c-2.502-4.935-5.178-9.785-7.736-14.693l-.947-1.847a2.886 2.886 0 00-.428-.687 1.685 1.685 0 00-.56-.376 1.604 1.604 0 00-1.335.1 1.422 1.422 0 00-.499.45 1.95 1.95 0 00-.176.302l-.204.478q-1.621 3.82-3.29 7.62c-2.224 5.067-4.524 10.103-6.95 15.086z"/><path d="M507.772 203.053c1.842-5.227 3.809-10.402 5.852-15.545q1.525-3.86 3.11-7.695l.197-.48a3.524 3.524 0 01.33-.6 2.862 2.862 0 011.022-.931 3.18 3.18 0 012.672-.182 3.234 3.234 0 011.141.78 4.095 4.095 0 01.658 1.07l.886 1.877c2.332 5.02 4.547 10.096 6.933 15.088l.905 1.868a4.68 4.68 0 00.472.858 1.825 1.825 0 00.706.569 2.085 2.085 0 001.775.014 1.857 1.857 0 00.71-.554 4.3 4.3 0 00.478-.846c1.237-2.474 2.408-4.983 3.614-7.473q3.55-7.506 7.246-14.939l1.848-3.715.925-1.858.462-.93c.09-.17.125-.273.26-.499a3.15 3.15 0 01.416-.584 3.258 3.258 0 015.061.304 4.216 4.216 0 01.343.598l.218.47.436.942.867 1.886c4.553 10.086 9.002 20.22 13.127 30.504l-.16.074c-5.142-9.815-9.96-19.779-14.675-29.79l-.87-1.884-.434-.943-.217-.471a2.185 2.185 0 00-.17-.301 1.432 1.432 0 00-2.17-.15 2.733 2.733 0 00-.416.671l-.482.919-.964 1.837-1.929 3.675q-3.846 7.355-7.863 14.623c-1.312 2.436-2.66 4.854-3.94 7.306a3.088 3.088 0 01-1.491 1.635 2.63 2.63 0 01-2.24-.038 3.108 3.108 0 01-1.432-1.67l-.929-1.855c-2.503-4.935-5.178-9.785-7.736-14.693l-.947-1.847a2.894 2.894 0 00-.428-.687 1.686 1.686 0 00-.56-.376 1.604 1.604 0 00-1.336.1 1.424 1.424 0 00-.498.45 1.95 1.95 0 00-.177.302l-.203.478q-1.622 3.82-3.29 7.62c-2.225 5.067-4.524 10.103-6.95 15.086z"/><path d="M548.806 198.937a2.338 2.338 0 01-4.18-.03l-4.397-8.926-4.577 8.956a2.338 2.338 0 01-4.18-.03l-4.716-9.574-5.748 13.754h49.354l-11.23-24.354zM153.108 255.308l3.583 25.227c-.057.01-.115.01-.163.02q-.546.057-1.092.085h-.115a25.907 25.907 0 01-25.314-16.125c-.009-.048-.028-.086-.038-.124a17.723 17.723 0 01-.383-.997c-.058-.153-.105-.316-.153-.47-.077-.23-.153-.469-.23-.708-.125-.403-.23-.815-.336-1.227-.115-.46-.21-.93-.306-1.389-.02-.105-.029-.21-.048-.316a21.975 21.975 0 01-.172-1.111c-.02-.096-.03-.192-.039-.288a24.145 24.145 0 01-.115-1.169 1.556 1.556 0 01-.01-.21 27.964 27.964 0 01-.057-1.275v-.105a25.727 25.727 0 011.293-8.45c.02-.049.039-.106.058-.154q.187-.575.402-1.121l.115-.288c.134-.325.278-.651.422-.977.048-.115.096-.22.144-.326.163-.335.325-.66.488-.986.048-.087.096-.173.134-.26q.331-.617.69-1.207c.039-.057.077-.115.115-.182.201-.325.412-.651.623-.967.086-.125.172-.24.259-.355.038-.057.076-.115.115-.162zM153.855 253.44l-19.699-15.273a25.864 25.864 0 0135.384-4.1zM160.217 279.922c-.537.134-1.083.249-1.62.345l-3.573-25.208 16.02-19.786c.258.23.507.46.757.7.057.048.105.096.153.144.48.46.948.939 1.39 1.437a.01.01 0 00.009.01 25.686 25.686 0 012.5 3.314c.01.01.01.02.02.03a25.829 25.829 0 011.925 3.64.136.136 0 01.02.058c.258.594.479 1.197.69 1.81.038.106.076.211.105.317.201.603.383 1.216.536 1.84a25.893 25.893 0 01-18.932 31.349z"/><path d="M132.959 239.671l.469-.603c-.153.201-.307.412-.45.623zM134.137 238.148l.02.019c-.202.24-.403.489-.604.738zM156.825 280.525c.211-.028.422-.048.633-.076l-.767.105v-.02c.038 0 .086-.009.134-.009zM157.889 280.381c.24-.028.47-.066.709-.114v.019zM169.559 234.047l.747.613c-.25-.2-.508-.402-.766-.594zM171.053 235.264l-.01.01c-.23-.202-.469-.403-.708-.594z" fill="#fff"/></svg>