<svg data-name="Layer 1" xmlns="http://www.w3.org/2000/svg" viewBox="0 0 700 550"><path d="M344.028 115.251a14.521 14.521 0 003.09-.295 4.474 4.474 0 002.603-1.329 2.276 2.276 0 000-2.611 4.674 4.674 0 00-2.276-1.736 13.066 13.066 0 00-5.971-.727 13.454 13.454 0 00-2.963.614 11.63 11.63 0 00-2.691 1.34c-.862.55-1.677 1.187-2.555 1.794a7.228 7.228 0 01-3.005 1.326 6.325 6.325 0 01-3.242-.454 13.963 13.963 0 01-1.465-.655l-1.378-.768a10.926 10.926 0 00-8.926-1.017 14.57 14.57 0 00-1.454.539l-.715.314a3.11 3.11 0 01-.805.286.158.158 0 01-.18-.133v-.002l-.002-.02a32.056 32.056 0 01-.203-6.646 21.383 21.383 0 011.452-6.528 12.652 12.652 0 014.079-5.386 13.248 13.248 0 016.339-2.419 19.18 19.18 0 0112.93 3.136 16.917 16.917 0 014.631 4.919 20.434 20.434 0 011.464 3.04c.433 1.046.757 2.095 1.077 3.148l-.265-.234a17.243 17.243 0 012.747.94 12.745 12.745 0 012.522 1.419 7.75 7.75 0 012.006 2.087 5.498 5.498 0 01.8 2.747.052.052 0 01-.05.053.055.055 0 01-.054-.05 5.303 5.303 0 00-.93-2.594 7.38 7.38 0 00-2.033-1.866 12.534 12.534 0 00-2.484-1.256 16.673 16.673 0 00-2.665-.788.352.352 0 01-.262-.228l-.002-.006a28.917 28.917 0 00-2.64-5.928 16.983 16.983 0 00-4.456-4.54 18.625 18.625 0 00-12.215-2.955 12.245 12.245 0 00-5.897 2.145 12.006 12.006 0 00-3.91 4.934 21.181 21.181 0 00-1.633 6.262 28.16 28.16 0 00.014 6.537l-.182-.155c.38-.094.92-.37 1.389-.553a14.908 14.908 0 011.492-.532 13.426 13.426 0 013.122-.546 12.162 12.162 0 016.137 1.438l1.39.7a13.396 13.396 0 001.423.566 5.645 5.645 0 002.91.3c1.903-.39 3.396-1.987 5.188-3.129a11.085 11.085 0 012.9-1.455 14.34 14.34 0 013.174-.606 13.615 13.615 0 016.345.897 5.344 5.344 0 012.526 2.115 2.593 2.593 0 01.319.795 2.816 2.816 0 01.112.85 3.186 3.186 0 01-.131.86 2.701 2.701 0 01-.455.746 4.767 4.767 0 01-2.936 1.325 12.868 12.868 0 01-3.157.079.052.052 0 01-.047-.057.054.054 0 01.054-.047z"/><path d="M339.293 103.227c-1.293-1.944-2.469-3.895-3.785-5.734a21.815 21.815 0 00-2.128-2.592 5.808 5.808 0 00-2.803-1.761 4.54 4.54 0 013.317 1.174 12.86 12.86 0 012.427 2.596 19.556 19.556 0 012.972 6.317zM326.468 92.268l-1.49 3.507a75.422 75.422 0 00-1.357 3.51 46.08 46.08 0 00-1.093 3.58 33.157 33.157 0 00-.667 3.722 12.34 12.34 0 01-.1-3.866 20.125 20.125 0 01.917-3.77 21.53 21.53 0 013.79-6.683zM339.293 105.217a26.737 26.737 0 00-4.536.265c-1.5.191-2.997.402-4.491.656-2.995.47-5.973 1.065-9.027 1.445a39.416 39.416 0 014.368-1.453 46.333 46.333 0 014.499-.979 34.796 34.796 0 014.597-.445 13.853 13.853 0 014.59.511zM326.966 91.677a.779.779 0 000-1.557.779.779 0 000 1.557zM342.78 109.45a34.882 34.882 0 011.326 3.984 8.575 8.575 0 01.2 1.057 3.33 3.33 0 01.022.574l-.023.51a16.064 16.064 0 00.106 2.044 10.408 10.408 0 01-.033 2.152l-.187 2.08a93.59 93.59 0 00-.312 4.138 42.051 42.051 0 01-.316 4.219 6.215 6.215 0 01-.77 2.11 8.61 8.61 0 01-1.426 1.657 11.978 11.978 0 01-3.513 2.423 12.892 12.892 0 01-4.102.944 12.604 12.604 0 007.041-3.921 9.995 9.995 0 001.215-1.564 5.273 5.273 0 00.586-1.814c.192-1.305.173-2.71.249-4.11q.131-2.104.374-4.184a35.61 35.61 0 00.4-4.085 16.757 16.757 0 01.037-2.128l.06-.53a2.697 2.697 0 00.012-.468 9.949 9.949 0 00-.116-1.006c-.193-1.364-.53-2.72-.83-4.081zM331.827 136.782a8.69 8.69 0 01-3.48-.863 11.304 11.304 0 01-3.018-2.019 11.646 11.646 0 01-2.237-2.853 11.138 11.138 0 01-1.25-3.355c.646 1.008 1.225 2.005 1.929 2.913a18.086 18.086 0 002.264 2.535 17.019 17.019 0 002.693 2.068 18.885 18.885 0 003.099 1.574zM324.155 111.444s-2.458 6.1-2.314 8.03l-1.163-.311s.239-7.007-3.372-6.173a3.174 3.174 0 00-2.309 2.424 6.57 6.57 0 002.195 6.924l.436 3.05s-3.549 2.235-5.354-13.7a12.135 12.135 0 0111.88-.244z"/><path d="M319.745 121.778a1.35 1.35 0 01-.238.881 1.54 1.54 0 01-.754.602 1.249 1.249 0 01-1.06-.115 1.053 1.053 0 01-.5-.808 4.859 4.859 0 00.767.075 1.58 1.58 0 00.467-.096c.321-.102.71-.332 1.318-.54zM343.464 114.93c-1.027.086-1.92.071-2.82.13-.45.008-.891.06-1.346.1-.46.036-.908.126-1.437.163a3.725 3.725 0 012.731-1.262 4.839 4.839 0 011.516.171 3.433 3.433 0 011.356.697zM333.752 114.935c-1.236.123-2.37.123-3.502.2-.565.028-1.118.096-1.682.16-.562.08-1.113.197-1.734.32a3.886 3.886 0 011.528-1.073 6.22 6.22 0 011.825-.405 7.255 7.255 0 011.842.138 5.145 5.145 0 011.723.66zM338.895 120.844a2.182 2.182 0 01.843 1.076 1.802 1.802 0 01-.088 1.543 1.833 1.833 0 01-1.312.824 2.512 2.512 0 01-1.348-.206 4.377 4.377 0 01.593-.287l.529-.254a1.757 1.757 0 00.677-.584 3.938 3.938 0 00.106-2.112zM339.916 118.51a.779.779 0 000-1.557.779.779 0 000 1.556zM331.075 118.571a.779.779 0 000-1.556.779.779 0 000 1.556zM338.202 126.447a2.322 2.322 0 01-1.081 1.034 4.008 4.008 0 01-1.436.409 4.662 4.662 0 01-1.463-.104 3.766 3.766 0 01-1.341-.592 9.577 9.577 0 011.403-.186c.447-.053.882-.057 1.308-.113a12.901 12.901 0 002.61-.448z"/><path d="M318.227 140.244c.99 2.22 1.88 4.47 2.73 6.74 1.34-.78 2.71-1.5 4.06-2.24 1.45-.76 2.9-1.52 4.39-2.22-5.02 1.62-10.88-2.09-11.18-2.28zm74.98 43.79c-28.11-65.73-37.43-46.39-40.28-50.83a4.044 4.044 0 01.44 1.89 3.743 3.743 0 01-.8 2.25 8.34 8.34 0 01-4.17 2.25 17.002 17.002 0 01-2.31.42l-1.14.14c-.35.06-.73.14-1.09.22a27.002 27.002 0 00-4.31 1.37 18.343 18.343 0 00-3.9 2.17l-.87.7-.8.77-1.46 1.76a11.378 11.378 0 01-1.94 1.73 24.406 24.406 0 00.51 4.98 25.254 25.254 0 001.56 5.12c.68 1.65 1.66 3.11 2.44 4.84a18.378 18.378 0 011.34 5.39 29.908 29.908 0 01-.05 5.52 35.016 35.016 0 00-.4 5.31 22.4 22.4 0 001.13 5.23c.53 1.72 1.18 3.41 1.79 5.12-1.58-3.24-3.23-6.56-3.71-10.25a10.939 10.939 0 01-.01-2.8l.22-2.7a29.667 29.667 0 000-5.33 17.815 17.815 0 00-1.21-5.11c-.65-1.59-1.68-3.18-2.28-4.93a22.798 22.798 0 01-1.37-10.36 10.583 10.583 0 01-1.81 1.06 8.922 8.922 0 01-4.57.73 9.35 9.35 0 004.35-1.19 10.94 10.94 0 003.4-2.87l.66-.91.74-.95.83-.86.91-.78a19.003 19.003 0 014.1-2.35 26.51 26.51 0 014.5-1.37c.39-.07.76-.14 1.18-.2l1.15-.1c.77-.04 1.5-.18 2.24-.29a7.888 7.888 0 003.97-1.81 3.411 3.411 0 00.91-1.94 4.469 4.469 0 00-.36-2.21c-2.61-5.73-9.4-6.42-9.4-6.42-.12 1.89-.63 5.03-.63 5.03-1.99 4.78-7.96 5.69-7.96 5.69-1.33 3.11-3.27 4.69-5.34 5.36-1.37.91-2.78 1.75-4.18 2.59-1.42.81-2.83 1.66-4.27 2.44h-.01a.245.245 0 01-.33-.1l-.01-.03c-.86-2.38-1.69-4.76-2.39-7.19a13.51 13.51 0 01-.46-9.71c.56-1.49-.13-5.14-.13-5.14-4.23.1-5.59 5.23-5.59 5.23a4.753 4.753 0 00.08 2.4 11.178 11.178 0 00.81 2.25 24.263 24.263 0 002.51 4.12 23.451 23.451 0 012.46 4.37 10.243 10.243 0 01.98 4.89 14.578 14.578 0 00-1.71-4.54c-.31-.58-.65-1.14-.99-1.7a48.245 48.245 0 00-1.52 5.11 36.451 36.451 0 00-.98 5.85 23.322 23.322 0 00.19 5.85c.36 1.92.87 3.89 1.29 5.84a63.872 63.872 0 011.53 11.95 25.988 25.988 0 01-.6 6.03 15.233 15.233 0 01-2.17 5.07.78.78 0 11-.4-.12.797.797 0 01.36.09 16.056 16.056 0 001.71-5.14 25.314 25.314 0 00.3-5.9 70.239 70.239 0 00-1.75-11.77c-.38-1.96-.85-3.88-1.2-5.89a21.069 21.069 0 01-.05-6.09 37.149 37.149 0 013.24-10.96q-.72-1.2-1.53-2.34a17.563 17.563 0 01-2.42-4.42 9.115 9.115 0 01-.56-2.48 4.464 4.464 0 01.42-2.47c-28.51 2.62-26.04 24.66-26.04 24.66-10.45 72.46 11.58 83.55 11.58 83.55 1.25-.5 3.62-5.98 3.62-5.98a69.294 69.294 0 002.24-11.37 46.092 46.092 0 00-.08-11.5c-.31-1.87-.76-3.77-1.12-5.68-.36-1.91-.7-3.83-.98-5.76q-.855-5.745-1.15-11.57l-2.59-12.82-1.37-6.41c-.47-2.13-.95-4.26-1.55-6.36.75 2.05 1.34 4.17 1.92 6.27.58 2.11 1.11 4.24 1.62 6.36 1.03 4.25 2.01 8.52 2.89 12.8l.01.06v.02c.22 3.84.69 7.69 1.23 11.51q.39 2.865.92 5.72c.33 1.9.76 3.78 1.06 5.74a34.885 34.885 0 01.28 5.86 47.236 47.236 0 01-.51 5.83 50.469 50.469 0 01-1.13 5.73 51.768 51.768 0 01-1.69 5.57c9.96 19.05 33.61 13.82 36.73 11.08 2.3-2.02 10.84-6.35 15.16-8.49a119.6 119.6 0 01-11.7 4.72 61.833 61.833 0 01-14.08 3.32c-.6.07-1.23.02-1.84.04-.3 0-.61.02-.92-.01l-.93-.1-.92-.11c-.3-.06-.6-.15-.9-.22a15.344 15.344 0 01-1.76-.5 34.077 34.077 0 01-6.61-3.02 62.242 62.242 0 01-11.49-8.7c1.88 1.5 3.79 2.94 5.78 4.27a65.839 65.839 0 006.09 3.74c4.19 2.19 8.72 4.12 13.42 3.57a66.729 66.729 0 0013.92-3.03c2.29-.69 4.56-1.46 6.81-2.26 2.25-.77 4.46-1.61 6.68-2.46.02-.01.05-.02.07-.03.57-.28.9-.44.9-.44l3.49-9.63c1.13-3.21 2.28-6.42 3.36-9.65 1.09-3.22 2.12-6.47 3.11-9.72.47-1.64.98-3.27 1.38-4.92.45-1.55.78-3.13 1.18-4.71-1.2-1.69-2.35-3.43-3.43-5.2a60.424 60.424 0 01-4.7-9.21c-.59-1.66-1.12-3.21-1.84-4.75a48.18 48.18 0 00-2.36-4.5c-.85-1.47-1.78-2.9-2.76-4.3-.95-1.42-1.98-2.78-3.04-4.13a49.072 49.072 0 016.48 8.01 37.64 37.64 0 012.57 4.5 49.564 49.564 0 011.92 4.8 83.14 83.14 0 004.42 9.18c.81 1.5 1.66 2.98 2.53 4.45.85 1.49 1.74 2.95 2.63 4.42-.83-1.05-1.62-2.14-2.4-3.23a76.1 76.1 0 01-1.81 9.8c-.81 3.32-1.83 6.59-2.9 9.84-1.1 3.24-2.29 6.45-3.6 9.61-1.31 3.16-2.68 6.29-4.23 9.34 3.23 8.47 15.94 17.43 15.94 17.43 32.49-50.8 21.66-67.61 21.66-67.61zm-54.04 6.57a.78.78 0 010 1.56.78.78 0 010-1.56zm11.27 34.72c1.81-.46 3.63-.85 5.48-1.13a14.849 14.849 0 01-2.72-3.59 15.767 15.767 0 01-1.04-2.29 17.784 17.784 0 01-.58-2.45 17.109 17.109 0 01-.04-5 18.046 18.046 0 011.33-4.79 18.546 18.546 0 00-1.16 4.82 16.907 16.907 0 00.17 4.92 16.312 16.312 0 00.64 2.37 16.042 16.042 0 001.06 2.21 16.506 16.506 0 003.09 3.78.272.272 0 010 .39.26.26 0 01-.16.09 55.013 55.013 0 00-5.9 1.3c-1.95.54-3.88 1.15-5.77 1.85a67.76 67.76 0 00-10.92 5.18h-.01a.371.371 0 01-.11.05 45.84 45.84 0 01-6.86.96 51.547 51.547 0 01-6.92-.03 42.788 42.788 0 01-6.85-1.05 37.186 37.186 0 01-6.58-2.22.474.474 0 01-.3-.48v-.01l1.31-24.78a.447.447 0 01.47-.42.438.438 0 01.05.01c3.46.59 6.98 1.03 10.49 1.33s7.04.47 10.57.44a86.667 86.667 0 0010.55-.69 51.862 51.862 0 0010.27-2.51 47.537 47.537 0 01-10.22 2.83 79.982 79.982 0 01-10.59.95c-3.55.09-7.1-.03-10.64-.27-3.37-.25-6.73-.58-10.08-1.13l-1.14 23.93a38.052 38.052 0 006.08 2.03 39.7 39.7 0 006.68 1.06 48.084 48.084 0 006.79.07 43.398 43.398 0 006.65-.89c1.76-.99 3.53-1.97 5.38-2.78a60.637 60.637 0 015.68-2.28 70.37 70.37 0 015.85-1.78zm7.18-84.64a12.3 12.3 0 00-2.54 1.68 11.202 11.202 0 00-2.03 2.26 16.545 16.545 0 00-1.49 2.71c.14-.5.27-1.01.45-1.51a11.668 11.668 0 01.7-1.42 9.137 9.137 0 012.04-2.43 9.592 9.592 0 015.78-2.34 13.29 13.29 0 00-2.91 1.05z"/><path d="M371.636 251.64c.368 5.127.716 10.254.984 15.385.28 5.13.584 10.258.79 15.391l.671 15.396c.197 5.133.327 10.269.417 15.406v.039a.594.594 0 01-.227.475 49.029 49.029 0 01-8.87 5.422 43.22 43.22 0 01-9.8 3.335 27.527 27.527 0 01-10.332.135 23.34 23.34 0 01-9.459-4.168l.282.067a93.858 93.858 0 01-11.034 1.32 74.25 74.25 0 01-11.14-.076 43.726 43.726 0 01-10.994-2.264 21.745 21.745 0 01-9.486-6.284.874.874 0 01-.197-.654l.002-.022a793.928 793.928 0 001.775-17.875c.553-5.965 1.005-11.938 1.441-17.913.403-5.977.676-11.96.914-17.947.168-5.988.236-11.979.114-17.979a.09.09 0 01.087-.092.09.09 0 01.092.081 275.787 275.787 0 01.428 36.029c-.257 6.004-.673 12-1.165 17.988-.523 5.988-1.138 11.96-1.915 17.93l-.195-.675a20.052 20.052 0 008.675 5.876 43.762 43.762 0 0010.564 2.398 80.913 80.913 0 0010.952.416 89.555 89.555 0 0010.95-.966l.017-.003a.349.349 0 01.266.069 21.98 21.98 0 009.136 4.18 24.68 24.68 0 0010.093-.197 36.702 36.702 0 009.524-3.52 48.553 48.553 0 008.447-5.592l-.228.515c-.295-5.13-.55-10.26-.738-15.394l-.484-15.403c-.178-5.133-.26-10.27-.365-15.407-.116-5.136-.153-10.275-.17-15.415a.09.09 0 01.178-.007z"/><path d="M326.835 259.693a24.31 24.31 0 01-4.481-.667 27.25 27.25 0 01-4.327-1.397 19.127 19.127 0 01-4-2.217 10.205 10.205 0 01-3.056-3.372 15.796 15.796 0 003.487 2.722 30.313 30.313 0 003.956 1.945c1.354.587 2.751 1.084 4.156 1.573 1.41.473 2.825.958 4.265 1.413z"/><path d="M336.026 318.168l-1.267-7.523-1.294-7.513c-.888-5.003-1.776-10.005-2.823-14.974-.47-2.495-1.019-4.973-1.544-7.457-.575-2.471-1.15-4.943-1.773-7.402-.586-2.47-1.297-4.905-2.02-7.337l-1.151-3.63-1.33-3.572a84.91 84.91 0 015.244 14.34c1.409 4.9 2.515 9.876 3.553 14.86.968 5 1.873 10.011 2.6 15.05.728 5.037 1.379 10.086 1.805 15.158z"/><path d="M327.177 319.19c-.76-4.418-1.34-8.863-1.857-13.315-.516-4.452-.89-8.92-1.223-13.392-.252-4.477-.473-8.962-.407-13.454.043-2.245.125-4.492.337-6.732a22.485 22.485 0 011.469-6.56 24.443 24.443 0 00-.98 6.597c-.112 2.227-.107 4.461-.057 6.693q.14 6.697.635 13.39c.249 4.465.637 8.922.989 13.384zM371.728 270.934a83.658 83.658 0 01-8.67.878l.663-.706c.074 1.469.155 2.938.136 4.41-.015 1.473-.091 2.947-.14 4.42a61.492 61.492 0 00.273 8.822c.123 1.468.29 2.934.4 4.403.108 1.468.183 2.937.265 4.406.193 2.938.271 5.879.267 8.823l-.67-.745c.777.128 1.612.206 2.423.262a24.125 24.125 0 002.445.016 8.694 8.694 0 002.358-.441 3.128 3.128 0 001.843-1.428.08.08 0 01.15.056 3.334 3.334 0 01-1.707 1.988 8.817 8.817 0 01-2.505.863 16.06 16.06 0 01-2.6.292 20.087 20.087 0 01-2.62-.07.729.729 0 01-.665-.68l-.005-.065a131.6 131.6 0 01-.288-8.821c-.01-1.471-.028-2.943-.012-4.415s.091-2.946.122-4.419a61.457 61.457 0 00-.282-8.821c-.141-1.468-.31-2.934-.417-4.403-.112-1.468-.123-2.94-.142-4.41v-.03a.67.67 0 01.66-.677h.004a83.681 83.681 0 018.71.332.08.08 0 01.004.16z"/><path d="M372.044 277.187a18.024 18.024 0 01-4.284 1.36 17.82 17.82 0 01-4.48.38 17.822 17.822 0 014.285-1.36 18.021 18.021 0 014.48-.38zM372.89 313.999q.552 2.084 1.034 4.187a13.126 13.126 0 00.584 2.021 9.78 9.78 0 001.112 1.754c.426.566.836 1.2 1.256 1.735.412.553.888 1.098 1.344 1.644.929 1.089 1.87 2.179 2.78 3.296a102.956 102.956 0 019.978 14.162c1.488 2.484 2.795 5.074 4.032 7.693.61 1.313 1.166 2.652 1.744 3.98l1.524 4.069 1.32 4.135q.597 2.053 1.28 4.083c.892 2.711 1.92 5.376 3.028 8.015l-.012-.023.052.117.012.022 1.437 3.319c.5 1.099.928 2.233 1.357 3.36-1.1-2.15-2.286-4.244-3.41-6.384l.01.022-.06-.112-.013-.023a74.862 74.862 0 01-3.588-7.884q-.781-2.023-1.477-4.077l-1.43-4.028a108.707 108.707 0 00-7.327-15.404c-1.398-2.48-2.947-4.873-4.508-7.258a172.029 172.029 0 00-4.98-6.971l-2.597-3.433a32.478 32.478 0 01-2.416-3.616 10.332 10.332 0 01-1.022-1.975 13.524 13.524 0 01-.436-2.157zM392.667 396.209c-1.989-3.194-3.948-6.398-6-9.544a306.153 306.153 0 00-6.174-9.406c-2.143-3.082-4.254-6.162-6.548-9.111a62.998 62.998 0 00-7.349-8.302c-1.302-1.175-2.946-2.311-4.308-3.64a34.41 34.41 0 01-2.055-1.999 35.957 35.957 0 01-1.937-2.102 66.407 66.407 0 01-6.7-9.204 73.55 73.55 0 01-5.132-10.122 47.317 47.317 0 01-3.022-10.89 53.283 53.283 0 003.826 10.538 73.786 73.786 0 005.49 9.735 76.41 76.41 0 006.805 8.816c.626.683 1.24 1.377 1.905 2.018a32.85 32.85 0 001.998 1.916c1.34 1.29 2.824 2.273 4.325 3.601a62.34 62.34 0 017.504 8.616 142.244 142.244 0 016.345 9.378q2.988 4.8 5.775 9.71c1.804 3.304 3.616 6.602 5.252 9.992zM332.356 318.284a2.778 2.778 0 00-1.345.945 6.33 6.33 0 00-.896 1.394 14.55 14.55 0 00-1.115 3.13 27.68 27.68 0 00-.578 3.287c-.062.555-.14 1.106-.187 1.66l-.098 1.672a102.167 102.167 0 00.26 13.398l1.262 13.42c.373 4.49.661 8.988.823 13.501a120.012 120.012 0 01-.258 13.578 60.733 60.733 0 01-.997 6.76q-.35 1.67-.774 3.314a28.986 28.986 0 00-.63 3.228 123.886 123.886 0 00-.855 13.382c-.158 4.489-.15 8.984-.174 13.484a170.337 170.337 0 01-.339-27.037 30.484 30.484 0 01.54-3.41c.247-1.09.487-2.176.692-3.266a59.1 59.1 0 00.847-6.596 123.757 123.757 0 00.159-13.38c-.126-4.475-.407-8.952-.72-13.428-.29-4.477-.727-8.945-.946-13.465a100.856 100.856 0 01.24-13.555l.2-1.687c.082-.561.194-1.12.29-1.678a28.217 28.217 0 01.789-3.31 14.658 14.658 0 011.334-3.133 6.508 6.508 0 011.033-1.356 2.84 2.84 0 011.443-.852zM299.401 314.984a19.108 19.108 0 00-.932 4.946 31.516 31.516 0 00.076 5.024 44.99 44.99 0 00.76 4.96c.166.82.38 1.63.568 2.444l.692 2.412a.683.683 0 01.018.09l1.427 11.074 1.33 11.088c.822 7.399 1.754 14.791 2.393 22.202.68 7.414 1.26 14.84 1.634 22.282.175 3.72.38 7.442.385 11.172.015 1.863.004 3.729-.066 5.593a30.348 30.348 0 01-.58 5.559 35.59 35.59 0 00.18-5.562c-.04-1.856-.138-3.711-.263-5.564-.266-3.706-.513-7.413-.849-11.115-.678-7.403-1.417-14.8-2.163-22.199l-.561-5.553-.621-5.543-1.195-11.09-1.128-11.098-1.032-11.11.019.088-.618-2.484c-.162-.84-.35-1.672-.49-2.514a37.954 37.954 0 01-.504-5.092 32.072 32.072 0 01.222-5.1 17.635 17.635 0 011.298-4.91zM364.903 330.507a9.334 9.334 0 011.255 2.244 11.143 11.143 0 01.682 2.5 6.671 6.671 0 01-.103 2.645 3.165 3.165 0 01-1.535 2.113 4.351 4.351 0 00.767-2.25 10.293 10.293 0 00-.118-2.37c-.22-1.601-.633-3.193-.948-4.882zM313.056 328.062a12.119 12.119 0 01-.43 5.42 7.316 7.316 0 01-1.34 2.476 2.757 2.757 0 01-2.543 1.07 3.238 3.238 0 001.922-1.544 11.25 11.25 0 001.01-2.31c.524-1.644.887-3.358 1.381-5.112z"/><path d="M373.823 312.167a37.015 37.015 0 01.639 6.08 36.591 36.591 0 01-.256 6.108 36.593 36.593 0 01-.639-6.08 37.012 37.012 0 01.256-6.108zM428.827 395.234a9.19 9.19 0 00-6.29-5.35c-3.39-.86-6.37-5.02-6.37-5.02s-3.75-7.85-7.62-5.73c-2.42 1.32-2.3 5.1-1.86 7.75a9.745 9.745 0 01-1.67 7.5c-3.39 4.4-8.22 3.26-10.33 2.47a4.334 4.334 0 00-3.09-.07c-4.73 1.78-.18 8.85-.18 8.85a6.864 6.864 0 012.03-2.16 7.71 7.71 0 012.77-1.24 7.551 7.551 0 013.03-.09 5.719 5.719 0 012.74 1.18 18.245 18.245 0 00-5.44.37 16.903 16.903 0 00-2.53.81c-.86.32-1.67.75-2.6 1.13 0 0-.95 2.92-2.3 7a9.27 9.27 0 012.51-1.48 12.167 12.167 0 012.8-.81 8.257 8.257 0 013.01.08 3.046 3.046 0 012.36 1.84 4.068 4.068 0 00-2.52-.68 21.669 21.669 0 00-2.62.25l-2.71.44c-.91.15-1.84.29-2.83.36-.72 2.2-1.56 4.73-2.43 7.33a8.085 8.085 0 012.43-1.72 9.26 9.26 0 012.88-.88 7.423 7.423 0 013.07.2 4.893 4.893 0 012.51 1.71 11.874 11.874 0 00-2.72-.56 15.797 15.797 0 00-2.66.13c-1.78.24-3.55.73-5.51 1.12-1.45 4.36-2.98 8.9-4.18 12.32-3.23 9.24.51 10.63.51 10.63a3.418 3.418 0 01-.7-2.98 3.288 3.288 0 012.51-1.91 4.52 4.52 0 011.64-.01 7.757 7.757 0 011.52.48 6.988 6.988 0 002.87.35 9.788 9.788 0 005.25-2.38 23.329 23.329 0 003.95-4.39l.04-.06c1.87-3.29 3.88-6.5 5.99-9.66 1.07-1.58 2.18-3.14 3.35-4.66.59-.76 1.2-1.51 1.86-2.23.33-.36.7-.7 1.04-1.05.38-.32.84-.69 1.17-.94a28.929 28.929 0 003.94-3.89c1.22-1.42 2.37-2.92 3.45-4.46a56.496 56.496 0 002.99-4.8 14.157 14.157 0 001.85-5.3 13.093 13.093 0 01-1.41 5.52 39.034 39.034 0 01-2.71 5.06q-1.53 2.415-3.3 4.7a25.032 25.032 0 01-4.01 4.24 20.815 20.815 0 00-3.72 4.03c-1.14 1.5-2.21 3.05-3.26 4.61-2.11 3.14-4.12 6.36-6.08 9.58l-.01.03-.03.03a23.059 23.059 0 01-4.36 4.58 10.887 10.887 0 01-5.94 2.35 7.894 7.894 0 01-3.19-.55 7.611 7.611 0 00-1.38-.55 3.834 3.834 0 00-1.43-.1 2.896 2.896 0 00-2.32 1.49 3.377 3.377 0 00.43 2.87c8.03 8.53 19.71-6.79 26.86-20.04 7.15-13.25 12.66-15.56 12.66-15.56 7.56-3.84 7.76-8.53 6.29-12.08zm-13.53 6.6c-.23 3.69-4.2 5.04-5.73 4.07-1.53-.96-1.45-4.35.18-7.56s4.2-5.03 5.73-4.07.08 3.27-.18 7.56zM333.697 442.654c-1.92-3.25-1.42-8.5-1.42-8.5s2.31-8.49-1.89-9.99c-2.62-.95-4.96 1.84-6.35 4.06a8.173 8.173 0 01-6.05 4.02c-5.32.49-8.12-4.06-9.15-6.26a5.21 5.21 0 00-2.21-2.46c-4.61-2.4-5.84 6.14-5.84 6.14a7.129 7.129 0 013.08.13 7.933 7.933 0 012.84 1.32 8.286 8.286 0 012.17 2.25 6.609 6.609 0 011.13 2.87 24.083 24.083 0 00-4.17-3.9 15.861 15.861 0 00-2.38-1.44c-.83-.45-1.73-.78-2.67-1.23 0 0-2.57 1.33-6.18 3.18a10.865 10.865 0 012.9.96 13.748 13.748 0 012.59 1.63 8.82 8.82 0 012.07 2.35 3.565 3.565 0 01.49 3.09 5.255 5.255 0 00-1.43-2.4 23.517 23.517 0 00-2.08-1.88l-2.26-1.8a29.131 29.131 0 01-2.28-1.95c-1.94 1-4.19 2.14-6.49 3.32a8.753 8.753 0 013.02.74 10.66 10.66 0 012.69 1.64 8.7 8.7 0 012.03 2.48 5.743 5.743 0 01.65 3.1 16.812 16.812 0 00-1.63-2.45 21.075 21.075 0 00-2.02-1.99c-1.46-1.23-3.06-2.28-4.74-3.52h-.01c-3.87 1.97-7.92 4-11 5.5-8.32 4.05-6.48 7.93-6.48 7.93a4.49 4.49 0 01.39-1.52 2.207 2.207 0 011.12-1.17 2.46 2.46 0 011.65-.02 4.221 4.221 0 011.46.75 6.376 6.376 0 011.88 2.64 8.415 8.415 0 001.76 2.38 9.206 9.206 0 002.44 1.65 12.818 12.818 0 002.85.85 19.78 19.78 0 005.95.01h.02q5.31-1.305 10.72-2.21c1.81-.29 3.62-.54 5.46-.71.92-.08 1.85-.12 2.79-.13.47.01.95.05 1.42.07.47.07 1.04.16 1.43.23a24.794 24.794 0 005.27.3 48.424 48.424 0 005.38-.48 45.692 45.692 0 005.3-1.09 19.204 19.204 0 002.54-.91 7.604 7.604 0 002.27-1.46 10.97 10.97 0 01-4.66 2.83 33.579 33.579 0 01-5.3 1.47 47.97 47.97 0 01-5.47.76 22.908 22.908 0 01-5.6-.12 17.673 17.673 0 00-5.24-.03c-1.78.18-3.57.44-5.35.73-3.56.61-7.13 1.32-10.66 2.11h-.02l-.05.01a20.205 20.205 0 01-6.44-.18 13.144 13.144 0 01-3.08-1.09 10.274 10.274 0 01-2.63-1.95 9.502 9.502 0 01-1.81-2.72 11.13 11.13 0 00-.61-1.39 5.005 5.005 0 00-.91-1.15 3.773 3.773 0 00-1.24-.76 2.154 2.154 0 00-1.41-.11 3.088 3.088 0 00-1.62 2.41c.38 12.29 18.79 10.48 32.55 6.63 13.77-3.85 19.29-1.21 19.29-1.21 8.01 3.14 11.17-.02 12.38-3.69a10.641 10.641 0 00-1.15-8.67zm-13 2.85c-2.54 2.44-6.31.32-6.81-1.55-.5-1.88 1.74-4.21 5.01-5.23 3.26-1.01 6.31-.31 6.81 1.56s-2.05 2.39-5.01 5.22zM359.838 261.606a8.257 8.257 0 01-2.569-.813 9.833 9.833 0 01-2.262-1.52 7.727 7.727 0 01-1.666-2.206 5.158 5.158 0 01-.476-2.683 10.93 10.93 0 001.153 2.295 12.709 12.709 0 001.664 1.857 21.377 21.377 0 001.985 1.589c.7.498 1.421.983 2.17 1.48zM306.795 245.033a6.556 6.556 0 01-.179 2.244 7.357 7.357 0 01-.852 2.116 5.296 5.296 0 01-1.596 1.705 3.4 3.4 0 01-2.229.547 6.28 6.28 0 001.746-1.16 8.103 8.103 0 001.224-1.61 40.338 40.338 0 001.886-3.842zM420.319 373.65q-8.677-.07-17.354-.077c.207.451.415.903.628 1.349 5.577-.016 11.149-.031 16.726-.078l35.16-.218c11.719-.13 23.439-.202 35.159-.378-11.72-.177-23.44-.25-35.16-.38zM350 373.47l-20.342.04.015 1.474 20.327.042 29.795-.063c-.316-.482-.643-.96-.965-1.437zM209.362 374.248c11.72.176 23.44.254 35.16.383l35.16.213c8.253.068 16.508.078 24.762.094-.047-.462-.093-.919-.135-1.38-8.213.015-16.42.026-24.628.093l-35.16.213c-11.719.13-23.439.207-35.159.384z"/></svg>