<svg data-name="Layer 1" xmlns="http://www.w3.org/2000/svg" viewBox="0 0 700 550"><path d="M253.25 197.666h-.01a.085.085 0 01-.042-.01l-.007-.003a36.9 36.9 0 00-3.703-1.629 52.211 52.211 0 00-3.813-1.307l.103.015h-.019a.295.295 0 01-.093-.012l-.025-.007a76.354 76.354 0 00-20.58-3.467 84.942 84.942 0 00-10.435.333l-10.512.888c-7.011.566-14.035.97-21.055 1.417-7.022.426-14.04.887-21.05 1.47l.15-.536a20.38 20.38 0 013.382 3.095 18.786 18.786 0 012.53 3.833 23.535 23.535 0 011.564 4.32 26.75 26.75 0 01.69 4.539 37.413 37.413 0 01-.613 9.132 44.55 44.55 0 01-2.556 8.823l-.835-1.075c4.932-.931 9.862-1.871 14.8-2.767L195.929 222l-.809.729.107-.318-.032.086a10.342 10.342 0 014.178-5.523 11.001 11.001 0 016.677-1.802 10.517 10.517 0 016.384 2.698 3.781 3.781 0 01.62.628l.571.672a15.677 15.677 0 01.948 1.476c.274.505.46 1.024.693 1.536.109.258.227.513.326.772l.245.794a38.292 38.292 0 011.34 12.916 67.623 67.623 0 01-1.8 12.732l-.74-.743 9.955-2.082 9.975-1.994a.098.098 0 01.044.191l-9.838 2.58-9.856 2.507a.61.61 0 01-.748-.703l.008-.04a76.399 76.399 0 001.358-12.5 36.577 36.577 0 00-1.558-12.25l-.233-.725c-.093-.234-.203-.46-.303-.69-.213-.449-.391-.933-.628-1.355-.268-.392-.479-.829-.783-1.19l-.467-.533a2.617 2.617 0 00-.5-.497 8.455 8.455 0 00-5.135-2.1 8.904 8.904 0 00-5.398 1.448 8.47 8.47 0 00-3.379 4.414l-.033.087a.356.356 0 01-.022.072l-.066.15a1.003 1.003 0 01-.744.58l-14.844 2.513c-4.947.848-9.9 1.652-14.854 2.465a.774.774 0 01-.834-1.075 47.116 47.116 0 002.74-8.436 35.17 35.17 0 00.9-8.838 25.903 25.903 0 00-.525-4.408 19.905 19.905 0 00-1.428-4.192 18.118 18.118 0 00-2.394-3.72 19.764 19.764 0 00-3.236-3.033l-.009-.006a.297.297 0 01.159-.53c7.01-.57 14.01-1.258 21.007-1.99 6.998-.708 13.993-1.46 21.002-2.05l10.516-.844a76.32 76.32 0 0110.643-.163 70.7 70.7 0 0110.547 1.385 66.544 66.544 0 0110.201 2.928l-.118-.02h.019l.027.001a.251.251 0 01.075.015c1.315.47 2.545.99 3.796 1.55a31.065 31.065 0 013.613 1.907l-.049-.013h.01a.098.098 0 010 .197zM296.237 223.866a21.13 21.13 0 00-3.305-7.829 19.027 19.027 0 00-2.773-3.098 24.784 24.784 0 00-3.358-2.469 35.075 35.075 0 00-7.746-3.352 54.02 54.02 0 00-8.396-1.829l-.055-.005q-1.457-.406-2.905-.868c1.012.05 2.02.122 3.024.21l-.054-.005a32.116 32.116 0 018.831.841 27.691 27.691 0 018.315 3.361 18.259 18.259 0 016.345 6.435 16.098 16.098 0 012.077 8.608z"/><path d="M203.189 215.772a70.458 70.458 0 015.186-1.763q2.613-.796 5.252-1.47c1.754-.472 3.528-.858 5.295-1.275 1.776-.373 3.55-.762 5.34-1.075l.414-.073.26.199a14.346 14.346 0 012.022 1.901 18.483 18.483 0 011.666 2.117 19.231 19.231 0 011.355 2.304 17.145 17.145 0 011.014 2.453q-.77-1.077-1.584-2.084c-.551-.67-1.107-1.34-1.687-1.947a33.048 33.048 0 00-1.827-1.772 22.455 22.455 0 00-1.929-1.518l.673.126c-1.754.47-3.525.865-5.292 1.283-1.777.373-3.546.776-5.335 1.092q-2.675.514-5.379.898a70.4 70.4 0 01-5.444.604zM178.265 193.72a19.712 19.712 0 014.84 6.957 27.576 27.576 0 012.13 8.31 30.577 30.577 0 01-.52 8.542c-.07.35-.123.7-.205 1.046l-.293 1.026-.616 2.033a46.238 46.238 0 01-1.689 3.88c.199-1.407.527-2.756.755-4.12l.288-2.051.159-1.017c.042-.34.055-.683.085-1.024.047-.683.102-1.363.173-2.04.051-.679.024-1.361.04-2.04a36.767 36.767 0 00-.132-4.058 37.996 37.996 0 00-1.603-7.944 33.25 33.25 0 00-3.412-7.5z"/><path d="M231.523 214.164a179.454 179.454 0 014.432-1.598 14.38 14.38 0 00-.13 1.83c-1.273.4-2.555.781-3.847 1.153-.874.25-1.747.502-2.63.753q-.181-.28-.362-.53c-.121-.177-.251-.344-.363-.502.967-.38 1.933-.743 2.9-1.106zM246.168 211.023c-1.134.39-2.249.781-3.383 1.162h-.009a9.385 9.385 0 00-1.227-1.552l.419-.14c1.254-.408 2.509-.817 3.763-1.217.149.632.307 1.218.437 1.747zM239.784 204.9a563.399 563.399 0 015.613-1.794 5.896 5.896 0 00-.288 1.933c-1.57.557-3.16 1.087-4.74 1.626-3.503 1.143-7.025 2.268-10.575 3.28q-2.467.725-4.962 1.385c-1.915.511-3.829.994-5.771 1.413.771-.344 1.543-.688 2.323-1.023.01 0 .01 0 .019-.009 2.62-1.115 5.278-2.147 7.936-3.14 3.457-1.302 6.95-2.491 10.445-3.671zM254.401 201.61c-.158.065-.316.13-.474.186a4.98 4.98 0 00-1.356-.809l1.505-.418c.12.39.232.743.325 1.04zM166.456 228.24c-20.98-19.15-4.468-33.178-4.468-33.178 14.664 10.618 4.468 33.177 4.468 33.177zM214.776 249.25c-17.313 5.164-18.667-26.24-18.667-26.24l.061-.192c2.603-7.996 13.76-9.03 17.61-1.554 5.216 10.13.996 27.986.996 27.986zM227.834 245.5c-2.867 7.065-5.8 14.057-8.5 21.114a181.688 181.688 0 00-6.96 21.361 47.86 47.86 0 00-1.02 5.406 17.915 17.915 0 00.024 5.312 7.493 7.493 0 00.83 2.36 5.11 5.11 0 001.68 1.717 8.17 8.17 0 005.092.762 32.203 32.203 0 0010.48-3.774c.825-.457 1.65-.908 2.465-1.385l2.408-1.498c1.625-.964 3.147-2.092 4.706-3.151 1.553-1.07 3.03-2.25 4.545-3.364l2.199-1.773c.732-.59 1.485-1.151 2.191-1.774 1.42-1.234 2.898-2.392 4.278-3.667l2.105-1.869 2.05-1.928q4.086-3.87 7.86-8.047c2.534-2.763 4.966-5.618 7.34-8.521a202.453 202.453 0 0013.277-18.213q3.073-4.743 5.898-9.664c1.886-3.277 3.69-6.616 5.335-10.038l.37.132a108.456 108.456 0 01-8.942 21.15 136.354 136.354 0 01-12.672 19.258 129.08 129.08 0 01-15.96 16.685l-2.18 1.895-2.241 1.823c-1.484 1.225-3.038 2.365-4.59 3.5-1.556 1.131-3.172 2.181-4.773 3.241-1.648.994-3.252 2.046-4.928 2.984-1.673.941-3.324 1.91-5.031 2.782-1.692.895-3.378 1.796-5.107 2.632a42.077 42.077 0 01-10.911 3.847 9.987 9.987 0 01-6.032-.608 6.863 6.863 0 01-2.473-2.099 10.065 10.065 0 01-1.372-2.868 20.102 20.102 0 01-.697-6.024 40.434 40.434 0 01.59-5.875 68.267 68.267 0 013.043-11.207c1.275-3.634 2.732-7.186 4.313-10.674.775-1.751 1.617-3.47 2.465-5.184.84-1.717 1.727-3.411 2.64-5.09 1.819-3.36 3.736-6.666 5.859-9.852zM181.647 199.132c5.351-.805 10.717-1.417 16.089-1.961 5.37-.557 10.749-.998 16.13-1.418 5.382-.383 10.767-.74 16.16-.985 5.393-.257 10.791-.443 16.203-.436-5.351.808-10.717 1.421-16.089 1.965-5.37.556-10.749.997-16.13 1.414-5.383.38-10.768.74-16.161.983-5.393.256-10.79.444-16.202.438z"/><path d="M247.376 289.286c-.77-6.825-1.51-13.66-2.172-20.504l-.254-2.566-.127-1.283c-.013-.1-.017-.23-.037-.306a1.381 1.381 0 01-.056-.186 5.262 5.262 0 00-.22-.504c-.758-1.437-1.753-2.874-2.676-4.309-1.884-2.872-3.702-5.816-5.326-8.881a55.927 55.927 0 01-2.223-4.724c-.655-1.639-1.204-3.27-1.772-4.882a639.052 639.052 0 01-3.363-9.726l-1.654-4.873-.413-1.218a6.422 6.422 0 01-.322-1.424 5.83 5.83 0 01.404-2.907 4.337 4.337 0 012.027-2.273 4.156 4.156 0 013.032-.121 13.315 13.315 0 014.566 2.882l-1.022.574a49.238 49.238 0 01-.454-4.998 32.032 32.032 0 01-.004-2.514c.07-.843.105-1.699.247-2.535a6.087 6.087 0 01.93-2.495 2.193 2.193 0 011.22-.866 2.814 2.814 0 011.432.079 7.152 7.152 0 013.934 3.268l-.297-.162h.01l.192.001.102.158a27.6 27.6 0 011.547 2.838 9.512 9.512 0 00.75 1.333c.175.208.173.205.423.22a.387.387 0 00.386-.214 3.138 3.138 0 00.203-1.4 14.873 14.873 0 00-.123-1.56 22.712 22.712 0 00-.616-3.1 30.51 30.51 0 01-.683-3.146 10.007 10.007 0 01-.044-3.282 4.558 4.558 0 01.618-1.591 3.563 3.563 0 011.27-1.18 6.371 6.371 0 013.273-.631l-.058.003a5.612 5.612 0 011.443.047 6.192 6.192 0 011.375.389 5.322 5.322 0 012.24 1.768l-.036-.042a.447.447 0 01.121.29l-.006 1.584-.727-1.41-.01-.018-.009-.018-.015-.044a45.463 45.463 0 01-2.611-10.707 13.003 13.003 0 01.038-2.85 4.499 4.499 0 011.291-2.796 3.081 3.081 0 011.536-.713 3.804 3.804 0 011.636.166 7.457 7.457 0 012.528 1.586 22.897 22.897 0 013.574 4.352 52.616 52.616 0 012.796 4.791 49.514 49.514 0 014.15 10.287c.947 3.538 1.841 7.044 3.055 10.427 1.226 3.341 2.704 6.703 5.056 9.14a7.192 7.192 0 004.15 2.25 8.552 8.552 0 002.46-.1 20.003 20.003 0 002.56-.526 22.058 22.058 0 004.845-1.953 19.698 19.698 0 004.163-3.044l1.004-.997.534 1.22a13.666 13.666 0 011.042 4.306 18.133 18.133 0 01-.153 4.31 21.889 21.889 0 01-3.004 7.948 16.096 16.096 0 01-2.713 3.35 20.018 20.018 0 01-3.483 2.482c-1.226.689-2.482 1.26-3.633 1.903a7.135 7.135 0 00-2.79 2.406 7.918 7.918 0 00-.904 3.625 74.17 74.17 0 00-.156 4.059c-.034 2.719.018 5.447.115 8.173.105 2.727.21 5.455.388 8.18.193 2.72.343 5.46.8 8.139l-.18.042c-.584-2.69-.854-5.415-1.17-8.134-.288-2.722-.551-5.448-.73-8.181a171.32 171.32 0 01-.37-8.217q-.039-2.06.033-4.138a9.165 9.165 0 01.973-4.26 8.522 8.522 0 013.257-2.973c1.224-.71 2.45-1.296 3.594-1.97a18.442 18.442 0 003.14-2.323 14.425 14.425 0 002.37-3.049 20.197 20.197 0 002.624-7.34 16.278 16.278 0 00.124-3.862 12.117 12.117 0 00-.866-3.63l1.537.222a22.777 22.777 0 01-9.883 5.575 21.939 21.939 0 01-2.791.584c-.481.052-.922.143-1.437.162l-.773.023c-.259-.015-.517-.045-.776-.07a8.945 8.945 0 01-5.299-2.821c-2.705-2.89-4.147-6.428-5.395-9.898-1.214-3.499-2.085-7.08-2.987-10.595-.23-.876-.459-1.748-.736-2.574a48.334 48.334 0 00-.934-2.516 66.142 66.142 0 00-2.206-4.931 51.122 51.122 0 00-2.63-4.703 22.615 22.615 0 00-3.26-4.156 6.232 6.232 0 00-2.024-1.374 2.57 2.57 0 00-1.057-.148 1.863 1.863 0 00-.921.395 3.397 3.397 0 00-.965 2.062 11.954 11.954 0 00-.105 2.606 44.427 44.427 0 002.311 10.555l-.024-.062.009.019-.734.174a.342.342 0 00.104.254l-.037-.042a4.566 4.566 0 00-1.898-1.58 5.117 5.117 0 00-2.448-.417l-.037.004h-.022a5.741 5.741 0 00-2.932.52 3.235 3.235 0 00-1.595 2.326 9.446 9.446 0 00.021 3.077 29.986 29.986 0 00.645 3.1 25.848 25.848 0 01.656 3.156 15.459 15.459 0 01.146 1.622 3.58 3.58 0 01-.267 1.725 1.119 1.119 0 01-1.862.085 9.808 9.808 0 01-.837-1.435 27.02 27.02 0 00-1.54-2.75l.293.158h-.009l-.191.001-.106-.163a6.2 6.2 0 00-3.54-2.877 1.411 1.411 0 00-1.744.528 5.275 5.275 0 00-.701 2.135c-.11.796-.114 1.597-.16 2.4-.008.815.022 1.623.078 2.437a48.817 48.817 0 00.585 4.85l.285 1.655-1.307-1.081a12.151 12.151 0 00-4.138-2.483 2.735 2.735 0 00-1.991.098 2.972 2.972 0 00-1.264 1.545 4.287 4.287 0 00-.272 2.141 4.847 4.847 0 00.255 1.079l.425 1.216 1.7 4.863c1.147 3.238 2.251 6.491 3.345 9.747.555 1.632 1.084 3.262 1.686 4.817a54.471 54.471 0 002.107 4.615c1.546 3.026 3.339 5.93 5.139 8.85.89 1.477 1.824 2.89 2.624 4.513a5.783 5.783 0 01.269.685c.035.146.066.294.092.44.02.134.019.221.03.334l.09 1.282.181 2.564c.498 6.839.918 13.684 1.308 20.54z"/><path d="M258.573 212.742l-4.223-9.841.869-.329 3.354 10.17zM396.17 179.124c-3.426 1.451-6.996 2.671-10.571 3.791a101.845 101.845 0 01-10.941 2.72 55.363 55.363 0 01-11.29 1.125 30.96 30.96 0 01-5.728-.587 16.356 16.356 0 01-5.493-2.126l.082.047c-2.836-1.416-5.688-2.801-8.509-4.248l-.941-.482.566-.816a1.204 1.204 0 01.253-.29 1.245 1.245 0 01.153-.122c.085-.059.186-.136.261-.175.157-.086.325-.193.473-.256.307-.152.61-.282.908-.395.6-.234 1.196-.441 1.793-.618 1.192-.378 2.391-.664 3.59-.945q3.597-.83 7.219-1.403c2.412-.405 4.828-.761 7.247-1.09 2.417-.342 4.84-.627 7.26-.93l-.328.18 4.95-5.665c1.652-1.89 3.244-3.81 4.953-5.68a49.45 49.45 0 0111.855-9.333 52.22 52.22 0 016.872-3.193 57.11 57.11 0 017.276-2.135 44.966 44.966 0 0115.162-1.202 31.12 31.12 0 0114.274 5.564 33.136 33.136 0 019.984 11.689 35.279 35.279 0 012.723 7.253l.414 1.898c.115.629.226 1.252.322 1.882q.3 1.886.489 3.792a46.866 46.866 0 01.186 7.682 30.182 30.182 0 01-1.411 7.651l-.321.964-.97-.292-13.11-3.94-13.146-3.828a505.548 505.548 0 00-13.186-3.668q-3.304-.892-6.63-1.683c-1.112-.23-2.22-.528-3.34-.705l-1.679-.3zm-.046-.201l1.75.018 1.71.195c1.146.12 2.263.36 3.397.535 2.251.414 4.498.856 6.731 1.35a506.5 506.5 0 0113.346 3.174c4.436 1.108 8.847 2.307 13.26 3.498 4.409 1.206 8.819 2.397 13.21 3.68l-1.29.672c1.472-4.569 1.462-9.578 1.019-14.455q-.177-1.837-.468-3.668c-.091-.61-.199-1.22-.308-1.824l-.386-1.777a33.434 33.434 0 00-2.466-6.829 31.138 31.138 0 00-9.233-11.096 30.014 30.014 0 00-13.366-5.519 44.715 44.715 0 00-14.719.706 47.043 47.043 0 00-14.026 4.882 45.163 45.163 0 00-11.727 9.14c-3.283 3.748-6.413 7.698-9.586 11.573l-.12.147-.208.034c-2.402.39-4.806.767-7.2 1.194-2.395.413-4.786.853-7.163 1.341-2.378.482-4.747.998-7.087 1.577-1.168.293-2.33.612-3.462.966-.57.171-1.125.369-1.658.579q-.407.155-.766.335c-.132.056-.218.12-.33.178a1.31 1.31 0 00-.117.079c-.022.013-.039.026-.027.018.013-.022-.034.054.092-.128l-.375-1.298c2.84 1.41 5.647 2.883 8.47 4.325l.046.023.037.024c2.93 1.91 6.677 2.46 10.301 2.59a51.12 51.12 0 005.516-.164 67.184 67.184 0 005.518-.641c3.673-.55 7.307-1.383 10.925-2.28 3.624-.91 7.186-1.967 10.76-3.154z"/><path d="M418.815 150.833c-1.76 2.067-3.563 4.077-5.374 6.075l-5.428 5.987q-2.714 2.987-5.384 6.013a349.709 349.709 0 00-5.251 6.159 51.035 51.035 0 014.42-6.836c1.626-2.176 3.393-4.236 5.197-6.258a113.074 113.074 0 015.682-5.81 78.188 78.188 0 016.138-5.33zM428.211 151.822a71.541 71.541 0 013.854 8.174q1.693 4.194 2.96 8.55a71.874 71.874 0 011.952 8.851 40.948 40.948 0 01.384 9.045 86.219 86.219 0 00-1.439-8.853 145.678 145.678 0 00-2.217-8.663c-.81-2.872-1.728-5.715-2.644-8.564-.942-2.84-1.871-5.69-2.85-8.54zM372.573 172.841a43.404 43.404 0 014.856.34c1.606.18 3.198.44 4.787.716 1.585.3 3.166.617 4.733 1.013a42.92 42.92 0 014.665 1.393 42.91 42.91 0 01-4.856-.338c-1.607-.181-3.199-.44-4.787-.718-1.585-.302-3.166-.619-4.733-1.015a43.41 43.41 0 01-4.665-1.39zM372.573 185.313c.026 1.379-.047 2.756-.145 4.134a26.451 26.451 0 01-.594 4.135 6.534 6.534 0 01-.819 2.079c-.351.524-.693 1.137-1.034 1.72a179.37 179.37 0 00-2.01 3.578q-2.007 3.586-3.947 7.207c-.634 1.211-1.291 2.412-1.899 3.63a67.27 67.27 0 00-.879 1.831c-.139.306-.27.612-.385.914-.05.148-.112.304-.142.436a.782.782 0 00-.038.172c-.002.011-.011.067-.01.042a.136.136 0 00-.065-.115l-.252-.177a5.182 5.182 0 001.432.135 8.19 8.19 0 001.527-.206 12.684 12.684 0 001.505-.453 14.583 14.583 0 001.455-.648l.07-.035.046.01a2.972 2.972 0 011.317.609 2.307 2.307 0 01.746 1.181 2.205 2.205 0 00-.874-1.006 2.693 2.693 0 00-1.226-.408l.116-.025a11.847 11.847 0 01-2.959 1.488 8.997 8.997 0 01-1.657.366 5.27 5.27 0 01-1.788-.059l-.169-.037-.083-.14a1.112 1.112 0 01-.135-.363 1.052 1.052 0 01-.002-.214 1.594 1.594 0 01.044-.335 5.457 5.457 0 01.142-.553c.108-.348.228-.68.353-1.009.25-.656.533-1.291.82-1.922a79.875 79.875 0 011.812-3.727c1.256-2.455 2.598-4.86 3.98-7.241a150.003 150.003 0 012.155-3.533c.376-.587.744-1.151 1.192-1.745a5.95 5.95 0 00.773-1.7 56.7 56.7 0 001.627-8.016z"/><path d="M376.035 218.918c-3.957-6.1-9.664-3.426-9.664-3.426s-2.206 30.297 11.312 31.121c10.288.628 19.14-5.62 25.364-12.347a22.675 22.675 0 005.832-12.655c.844-6.9 2.112-17.325 2.435-20.333.494-4.616 2.365-16.702 9.067-15.965 0 0 14.012.14 6.759 24.373 0 0-1.979 15.167 10.88 13.353 0 0-2.638-7.583.824-13.353s8.014-13.064 7.799-18.072c0 0-45.385-13.415-50.496-12.59a16.626 16.626 0 018.573 17.803c-1.508 9.8-8.76 22.95-12.126 28.653a5.835 5.835 0 01-5.252 2.879c-1.949-.079-4.185-.364-5.249-1.199-2.102-1.648-6.058-8.242-6.058-8.242z"/><path d="M375.55 189.855a9.08 9.08 0 013.243-1.59 9.74 9.74 0 013.684-.308 7.297 7.297 0 013.487 1.39 6.55 6.55 0 012.198 2.906 13.307 13.307 0 00-2.77-2 9.098 9.098 0 00-3.086-.934 15.287 15.287 0 00-3.314-.006 36.316 36.316 0 00-3.442.542zM414.446 206.719c2.21.866 4.767.768 6.404-.682a7.717 7.717 0 001.933-2.64 18.697 18.697 0 001.154-3.22 30.06 30.06 0 001.123-6.848 25.431 25.431 0 00-.087-3.489 17.1 17.1 0 00-.253-1.737 9.9 9.9 0 00-.202-.858 2.21 2.21 0 00-.346-.803 4.143 4.143 0 01.912 1.552 14.31 14.31 0 01.553 1.73 18.863 18.863 0 01.495 3.604 23.324 23.324 0 01-.872 7.217c-.661 2.279-1.622 4.8-3.764 6.342a5.585 5.585 0 01-3.63 1.032 6.759 6.759 0 01-3.42-1.2zM398.454 238.666a12.036 12.036 0 012.226 1.749 17.66 17.66 0 011.859 2.101 13.856 13.856 0 011.468 2.424 4.716 4.716 0 01.548 2.827 11.303 11.303 0 00-1.468-2.277c-.544-.716-1.113-1.42-1.648-2.152a45.41 45.41 0 01-1.58-2.24 19.169 19.169 0 01-1.405-2.432zM438.02 223.04a42.382 42.382 0 012.383 4.192c.361.69.718 1.37 1.12 2.018a9.02 9.02 0 001.443 1.867 3.809 3.809 0 01-2.273-1.189 7.837 7.837 0 01-1.505-2.057 10.584 10.584 0 01-.89-2.338 8.076 8.076 0 01-.278-2.494z"/><path d="M458.136 219.573s-15.9 1.161-18.586 7.508l.484.911 1.775-.91c8.53-4.247 13.353 1.393 7.425 2.388-5.938.985-41.297 17.182-41.297 17.182-15.334 4.34-24.32 27.655-24.32 27.655 2.472-1.06 4.99-2.007 7.49-3.02 2.565-.827 5.111-1.72 7.704-2.453a108.33 108.33 0 0115.881-3.225 83.696 83.696 0 0116.216-.502c1.348.149 2.695.233 4.043.428 1.328.232 2.676.39 3.995.706a35.13 35.13 0 017.704 2.463 43.052 43.052 0 00-7.852-1.57c-1.32-.205-2.658-.27-3.978-.391-1.328-.084-2.657-.13-3.986-.195a111.215 111.215 0 00-15.919.901l-3.958.511-3.94.697-1.97.325-1.952.428c-1.31.288-2.611.567-3.922.836-2.602.604-5.185 1.292-7.796 1.915-2.584.706-5.148 1.487-7.76 2.146-40.219 6.598-79.462 31.326-82.092 30.666-2.64-.66-4.953-21.429-4.953-26.772 0-5.334-.985-15.435-8.903-15.435-7.908 0-6.923 6.923-6.923 6.923 14.84 3.959-19.45 6.932-29.671 8.242-10.222 1.32-4.619-2.63-4.619-2.63s-2.964-3.168-6.142.772a9.965 9.965 0 00-1.655 9.107c1.013 3.382 2.51 8.512 3.513 12.536 1.654 6.598 7.583 54.074 9.562 58.693 1.98 4.61 42.859 16.81 129.904 10.547 7.053-1.106 14.079-2.276 21.104-3.447 7.016-1.2 14.032-2.426 20.992-3.848 3.485-.697 6.97-1.421 10.417-2.248q5.2-1.185 10.315-2.63a105.915 105.915 0 0010.074-3.383 31.227 31.227 0 009.2-5.213 19.431 19.431 0 01-4.126 3.42 42.423 42.423 0 01-4.703 2.63 87.11 87.11 0 01-10.017 3.93 187.232 187.232 0 01-20.788 5.316q-10.524 2.09-21.15 3.457a277.87 277.87 0 01-21.318 2.016s-3.169 19.264-4.823 36.595h123.984c-.13-16.922-.158-39.345.363-59.51.985-38.9 0-57.207 0-57.207a29.193 29.193 0 01-5.26-1.078c-1.72-.492-3.401-1.078-5.083-1.682-3.355-1.208-6.626-2.62-9.878-4.07-3.234-1.478-6.431-3.02-9.581-4.684-3.15-1.645-6.264-3.382-9.275-5.297 3.355 1.227 6.635 2.593 9.897 3.996 3.262 1.385 6.487 2.853 9.73 4.294l9.655 4.423c3.243 1.431 6.412 2.974 9.795 4.098 0 0 16.318 7.425 17.805-11.374 1.477-18.79-16.328-59.344-60.83-55.887zm6.849 61.053a25.908 25.908 0 014.256 5.223c.585.957 1.087 1.97 1.617 2.974.455 1.031.827 2.09 1.254 3.14a11.12 11.12 0 01.484 1.617l.427 1.636a23.855 23.855 0 01.632 3.308l.223 1.673.111.836.038.837.111 3.354.028.837-.056.836-.12 1.673a78.843 78.843 0 01-.27 3.327c-.372 2.193-.725 4.386-1.199 6.551-.604 2.137-1.19 4.265-1.858 6.365.27-2.202.613-4.367.957-6.532.26-2.175.409-4.359.66-6.524l.083-3.262.047-1.626.028-.808-.056-.809-.167-3.243-.038-.808-.12-.8-.242-1.598a36.699 36.699 0 00-3.82-12.239 29.959 29.959 0 00-3.66-5.306 22.107 22.107 0 00-4.88-4.312 18.264 18.264 0 015.53 3.68zm23.427-37.635a6.564 6.564 0 01-3.215 3.16 9.991 9.991 0 01-2.184.705 20.728 20.728 0 01-2.268.196c-.752-.038-1.514-.038-2.258-.13l-2.211-.363c-.735-.149-1.44-.362-2.166-.548l-2.09-.567a26.996 26.996 0 00-4.154-.744 47.655 47.655 0 00-8.54-.027 105.503 105.503 0 00-17.016 2.955 203.767 203.767 0 00-8.39 2.295c-2.798.79-5.549 1.7-8.318 2.62a109.202 109.202 0 0116.327-6.31 84.616 84.616 0 0117.248-3.41 47.433 47.433 0 018.893.13 28.648 28.648 0 014.396.92l4.135 1.273 2.072.446c.697.121 1.394.15 2.09.242.698.047 1.395-.01 2.083-.028a9.52 9.52 0 001.998-.492 5.842 5.842 0 003.131-2.556 7.364 7.364 0 00.818-1.951 7.895 7.895 0 00.334-2.138 8.123 8.123 0 01-.715 4.322z"/><path d="M324.6 403.554q27.449-.796 54.897-1.068c9.15-.126 18.299-.154 27.448-.229l27.448-.076 27.448.072c9.15.077 18.3.101 27.449.23q27.448.268 54.896 1.071-27.448.801-54.896 1.072c-9.15.128-18.3.152-27.449.229l-27.448.072-27.448-.076c-9.15-.074-18.299-.102-27.448-.229q-27.448-.271-54.897-1.068zM378.631 199.806c3.588 0 3.594-5.576 0-5.576-3.587 0-3.593 5.576 0 5.576z"/></svg>